<?xml version="1.0" encoding="utf-8"?>
<!-- Generator: Adobe Illustrator 16.0.3, SVG Export Plug-In . SVG Version: 6.00 Build 0)  -->
<!DOCTYPE svg PUBLIC "-//W3C//DTD SVG 1.1//EN" "http://www.w3.org/Graphics/SVG/1.1/DTD/svg11.dtd">
<svg version="1.1" id="Layer_1" xmlns="http://www.w3.org/2000/svg" xmlns:xlink="http://www.w3.org/1999/xlink" x="0px" y="0px"
	 width="307.061px" height="296.243px" viewBox="0 0 307.061 296.243" enable-background="new 0 0 307.061 296.243"
	 xml:space="preserve">
<g>
	<g>
		<g>
			<path d="M-733.506-32.545c14.963-0.047,29.894-1.664,44.858-1.897c15.848-0.246,33.574-0.168,48.283,6.542
				c5.805,2.649,10.578,6.528,13.297,12.383c2.566,5.523,1.189,11.979,3.373,17.697c5.668,14.838,18.855,26.838,30.295,37.3
				c10.439,9.548,21.49,18.407,32.529,27.245c4.033,3.229,8.082,6.443,12.02,9.791c1.301,1.105,2.58,2.236,3.801,3.428
				c0.42,0.41,0.82,0.839,1.203,1.283c-1.008-1.168,0.178,0.998-0.48-0.938c2.066,6.067,11.729,3.463,9.643-2.658
				c-1.232-3.617-4.768-6.208-7.566-8.588c-5.227-4.443-10.648-8.661-15.996-12.954c-14.049-11.274-28.064-22.75-40.535-35.784
				c-5.236-5.473-10.203-11.295-13.875-17.949c-3.182-5.762-2.385-10.881-3.758-17.197c-3.223-14.824-17.547-22.518-31.07-25.985
				c-28.17-7.224-57.457-1.808-86.021-1.718C-739.953-42.526-739.955-32.526-733.506-32.545L-733.506-32.545z"/>
		</g>
	</g>
	<g>
		<g>
			<path d="M-694.853-39.408c0.127,11.57,3.637,21.825,7.65,32.519c3.77,10.043,7.996,23.148,5.75,33.758
				c-2.074,9.781-6.846,19.191-10.68,28.363c-3.434,8.213-8.285,17.447-8.543,26.539c-0.184,6.451,9.818,6.434,10,0
				c0.229-8.031,5.523-17.516,8.654-25.005c3.793-9.07,8.314-18.292,10.363-27.962c2.375-11.207-1.045-24.469-4.707-35.063
				c-3.82-11.049-8.357-21.235-8.488-33.149C-684.925-45.852-694.925-45.859-694.853-39.408L-694.853-39.408z"/>
		</g>
	</g>
	<g>
		<g>
			<path d="M-763.703-57.784c-17.561,1.986-35.072,7.857-52.037,12.556c-8.912,2.468-17.807,4.999-26.666,7.644
				c-4.09,1.221-11.672,2.146-13.381,6.705c-0.732,1.951,0.428,4.75,2.297,5.646c0.875,0.42,1.695,0.764,2.695,0.69
				c6.391-0.47,6.438-10.474,0-10c-0.932,0.059-0.146,0.283,2.352,0.675c0.766,1.883,1.533,3.765,2.299,5.646
				c0.002-0.007,0.004-0.014,0.008-0.021c-0.768,0.996-1.533,1.992-2.299,2.988c-0.32,0.239-1.309,0.482-0.033,0.034
				c0.822-0.289,1.652-0.551,2.482-0.814c2.777-0.882,5.57-1.711,8.363-2.54c8.836-2.62,17.709-5.125,26.594-7.579
				c9.369-2.588,18.762-5.101,28.193-7.455c3.85-0.96,7.707-1.882,11.58-2.734c1.518-0.334,3.041-0.646,4.566-0.939
				c0.715-0.137,1.434-0.262,2.152-0.381c1.387-0.23,0.191-0.049,0.834-0.121C-757.371-48.5-757.301-58.508-763.703-57.784
				L-763.703-57.784z"/>
		</g>
	</g>
	<circle cx="-750.965" cy="-39.292" r="23.281"/>
	<g>
		<g>
			<path d="M-624.132-16.757c-2.184,0.368-1.707,0.27-4.131,0.56c-2.947,0.353-5.898,0.666-8.85,0.978
				c-7.768,0.819-15.541,1.579-23.313,2.348c-16.49,1.631-32.996,3.188-49.449,5.173c-4.887,0.59-9.856,1.084-14.669,2.155
				c-4.746,1.056-5.76,4.552-4.762,8.899c3.432,14.951,7.793,29.687,11.315,44.619c0.617,2.607,1.203,5.221,1.729,7.848
				c0.432,2.151,0.533,2.293,0.57,3.832c0.154,6.438,10.156,6.453,10,0c-0.137-5.703-1.992-11.601-3.314-17.104
				c-2.045-8.521-4.268-16.999-6.477-25.479c-1.512-5.805-3.165-11.601-4.425-17.468c-0.09-0.424-0.227-1.483,0.023,0.445
				c0.285,2.222-1.479,3.717-3.168,4.374c0.473-0.184,0.984-0.282,1.477-0.392c2.008-0.446,4.058-0.72,6.091-1.009
				c29.438-4.184,59.281-5.762,88.813-9.412c1.736-0.215,3.473-0.434,5.197-0.724C-615.126-8.184-617.827-17.819-624.132-16.757
				L-624.132-16.757z"/>
		</g>
	</g>
	<g>
		<path d="M-846.432-7.862c-11.443,0.859-21.557-9.578-22.414-21.021c-0.859-11.443,7.58-23.273,19.023-24.133"/>
		<polygon points="-865.807,-25.508 -866.264,-33.442 -1072.632,-17.651 		"/>
	</g>
	<g>
		<g>
			<path d="M-700.931,77.668c-2.291,2.28-4.482,4.478-7.406,5.922c-3.713,1.833-8.912,1.399-12.886,1.421
				c-6.447,0.033-6.451,10.033,0,10c5.323-0.027,10.944-0.068,15.995-1.96c4.521-1.694,8-4.96,11.367-8.312
				C-689.284,80.187-696.356,73.117-700.931,77.668L-700.931,77.668z"/>
		</g>
	</g>
	<g>
		<g>
			<path d="M-699.548,85.775c5.135,3.986,10.785,7.387,17.521,7.164c6.432-0.213,6.453-10.214,0-10
				c-3.941,0.13-7.41-1.874-10.451-4.234c-2.15-1.67-4.965-2.107-7.07,0C-701.294,80.45-701.706,84.101-699.548,85.775
				L-699.548,85.775z"/>
		</g>
	</g>
	<g>
		<path d="M-537.665,76.599c13.814,0,24.176,3.453,11.742,17.959c-8.979,10.361-23.484,10.361-35.918,10.361
			c-16.576,0-18.648-6.908-3.453-16.578c8.979-5.525,17.959-8.289,28.32-11.742"/>
	</g>
	<g>
		<path d="M-711.397,56.23c13.506,2.906,22.908,8.461,7.703,20.027c-10.957,8.24-25.138,5.189-37.292,2.574
			c-16.207-3.486-16.779-10.675,0.109-16.933c9.941-3.514,19.301-4.326,30.155-5.523"/>
	</g>
	<g>
		<g>
			<path d="M-854.652-30.879c1.365,0.215,2.68,0.543,3.979,1.018c-0.883-0.322,0.74,0.378,0.912,0.469
				c0.512,0.272,0.998,0.592,1.477,0.918c0.463,0.337,0.453,0.326-0.027-0.031c0.205,0.169,0.404,0.344,0.6,0.523
				c0.375,0.337,0.719,0.708,1.057,1.083c0.6,0.667-0.504-0.775,0.275,0.375c0.295,0.435,0.541,0.897,0.768,1.37
				c-0.66-1.372-0.137-0.279-0.027,0.1c0.361,1.257-0.043-0.944,0.006-0.168c0.074,1.18,0.248-1.056,0.072-0.359
				c0.242-0.955,0.709-1.33,1.658-2.059c-0.416,0.242-0.166,0.145,0.746-0.295c-0.484,0.111-0.227,0.078,0.775-0.1
				c-0.699,0.039,1.434,0.348,0.174-0.015c-0.672-0.193,1.004,0.534-0.254-0.146c-0.225-0.126-0.443-0.26-0.66-0.4
				c-0.078-0.048-1.199-0.865-0.449-0.279c-2.145-1.678-4.969-2.102-7.07,0c-1.752,1.751-2.152,5.389,0,7.071
				c2.938,2.298,6.23,4.449,10.143,3.511c4.137-0.992,5.188-5.303,4.611-8.938c-0.469-2.951-2.65-5.832-4.754-7.824
				c-3.09-2.927-7.168-4.811-11.352-5.467c-2.691-0.422-5.367,0.645-6.15,3.492C-858.805-34.629-857.35-31.302-854.652-30.879
				L-854.652-30.879z"/>
		</g>
	</g>
</g>
<g>
	<circle cx="-1183.24" cy="110.097" r="20.285"/>
	<g>
		<path d="M-1017.349,183.113c8.866,4.623,11.555,16.997,6.933,25.863c-4.623,8.866-16.309,13.744-25.174,9.122"/>
		<polygon points="-1011.116,205.081 -1014.422,211.165 -854.401,294.313 		"/>
	</g>
	<g>
		<path d="M-1100.351,360.416c-11.239-4.306-18.592-10.346-3.956-18.271c10.536-5.632,22.338-1.109,32.455,2.767
			c13.489,5.167,13.02,11.434-2.358,14.563c-9.029,1.698-17.197,1.146-26.703,0.727"/>
	</g>
	<g>
		<path d="M-1262.651,358.237c11.239-4.306,18.592-10.345,3.956-18.271c-10.537-5.632-22.338-1.109-32.455,2.766
			c-13.488,5.167-13.021,11.434,2.358,14.564c9.029,1.698,17.196,1.146,26.703,0.727"/>
	</g>
	<g>
		<g>
			<path d="M-1189.297,129.894c5.195,40.21,10.332,81.434,1.485,121.52c-1.387,6.284,8.253,8.954,9.643,2.658
				c9.064-41.069,4.196-82.964-1.128-124.178C-1180.112,123.59-1190.122,123.511-1189.297,129.894L-1189.297,129.894z"/>
		</g>
	</g>
	<g>
		<g>
			<path d="M-1180.085,155.388c-47.123-0.025-101.93-2.72-130.82-45.964c-3.563-5.333-12.229-0.333-8.635,5.047
				c14.75,22.079,36.559,36.129,61.885,43.311c25.073,7.109,51.696,7.593,77.57,7.607
				C-1173.637,165.392-1173.637,155.392-1180.085,155.388L-1180.085,155.388z"/>
		</g>
	</g>
	<g>
		<g>
			<path d="M-1181.706,163.467c22.938,7.966,39.199,28.002,62.402,35.735c13.308,4.436,28.263,5.344,42.174,5.991
				c14.797,0.688,29.626,0.287,44.432,0.272c6.448-0.006,6.449-10.006,0-10c-27.977,0.028-58.428,2.599-85.393-6.388
				c-22.514-7.503-38.417-27.426-60.957-35.253C-1185.156,151.703-1187.758,161.365-1181.706,163.467L-1181.706,163.467z"/>
		</g>
	</g>
	<g>
		<g>
			<path d="M-1187.41,249.257c-0.118,8.293-5.694,14.025-12.227,18.503c-9.013,6.178-19.185,10.558-28.699,15.881
				c-10.05,5.623-19.78,12.361-26.999,21.45c-8.683,10.933-12.496,24.188-12.61,38.044c-0.053,6.451,9.947,6.445,10,0
				c0.106-12.866,3.913-24.813,12.621-34.438c7.804-8.625,18.139-14.443,28.305-19.825c16.319-8.64,39.3-17.884,39.609-39.614
				C-1177.318,242.805-1187.318,242.813-1187.41,249.257L-1187.41,249.257z"/>
		</g>
	</g>
	<g>
		<g>
			<path d="M-1187.41,248.095c0.279,22.398,20.985,32.353,38.153,41.61c9.74,5.252,19.325,10.887,26.906,19.08
				c8.852,9.567,12.302,22.133,12.403,34.931c0.051,6.446,10.051,6.451,10,0c-0.106-13.479-3.434-26.688-11.66-37.547
				c-7.009-9.254-16.52-15.976-26.493-21.715c-14.49-8.339-39.059-16.23-39.31-36.359
				C-1177.49,241.651-1187.49,241.644-1187.41,248.095L-1187.41,248.095z"/>
		</g>
	</g>
	<g>
		<g>
			<g>
				<path d="M-1308.771,111.367c-0.06-4.841-1.447-10.922,1.06-15.338c3.188-5.616-5.452-10.653-8.635-5.047
					c-3.587,6.318-2.512,13.452-2.425,20.385C-1318.691,117.811-1308.691,117.818-1308.771,111.367L-1308.771,111.367z"/>
			</g>
		</g>
		<g>
			<g>
				<path d="M-1311.542,108.702c-4.061-4.289-6.851-9.24-12.1-12.281c-5.515-3.195-11.53-1.818-17.365-3.275
					c-6.258-1.563-8.912,8.081-2.658,9.643c4.887,1.221,10.364,0.163,14.976,2.268c4.353,1.986,6.896,7.358,10.076,10.718
					C-1314.172,120.464-1307.113,113.381-1311.542,108.702L-1311.542,108.702z"/>
			</g>
		</g>
	</g>
	<ellipse cx="-1025.585" cy="199.732" rx="9.802" ry="8.496"/>
</g>
<g>
	<circle cx="-1216.24" cy="453.764" r="20.285"/>
	<g>
		<path d="M-1136.178,718.979c-8.524-8.497-12.792-17.001,3.801-18.304c11.915-0.871,20.865,8.053,28.538,15.701
			c10.23,10.197,7.258,15.734-8.066,12.354c-8.941-2.113-16.182-5.933-24.699-10.175"/>
	</g>
	<g>
		<path d="M-1233.128,725.254c-11.036-4.802-18.112-11.163-3.137-18.429c10.777-5.156,22.366-0.112,32.299,4.21
			c13.245,5.764,12.498,12.003-3.005,14.445c-9.096,1.294-17.23,0.378-26.708-0.465"/>
	</g>
	<g>
		<g>
			<path d="M-1221.297,465.894c5.001,38.508,11.006,77.172,2.514,115.661c-1.387,6.284,8.253,8.954,9.643,2.658
				c8.713-39.493,2.978-78.791-2.157-118.319C-1212.116,459.592-1222.126,459.512-1221.297,465.894L-1221.297,465.894z"/>
		</g>
	</g>
	<g>
		<g>
			<path d="M-1217.956,482.396c-13.792,2.154-27.766,3.098-41.587,5.085c-6.894,0.99-13.817,2.141-20.514,4.088
				c-4.37,1.27-9.925,3.161-12.222,7.458c-1.057,1.978-0.866,4.443,0.782,6.059c10.589,10.382,24.36,18.026,36.97,25.623
				c11.832,7.128,23.839,14.017,36.042,20.493c-0.598-2.28-1.196-4.561-1.794-6.841c-1.441,2.859-2.349,5.854-3.215,8.925
				c-0.376,1.334-0.759,2.604-1.452,3.805c-0.417,0.314-0.181,0.23,0.707-0.252c-0.957,0.121-2.067-0.548-2.866-0.938
				c-5.769-2.82-10.84,5.803-5.047,8.635c4.891,2.392,10.438,3.659,14.614-0.771c3.652-3.874,3.594-9.793,5.894-14.355
				c1.186-2.353,0.72-5.507-1.794-6.841c-11.833-6.279-23.461-12.971-34.958-19.842c-12.244-7.318-25.768-14.649-36.03-24.71
				c0.26,2.02,0.521,4.039,0.782,6.059c0.278-0.521-0.44,0.279,0.542-0.586c-0.296,0.261,1.482-0.756,1.915-0.964
				c1.98-0.948,4.247-1.467,6.36-2.024c6.643-1.752,13.495-2.755,20.289-3.71c13.046-1.832,26.224-2.717,39.241-4.751
				C-1208.941,491.045-1211.65,481.41-1217.956,482.396L-1217.956,482.396z"/>
		</g>
	</g>
	<g>
		<g>
			<path d="M-1211.294,492.217c41.889,0,83.777,0,125.666,0c6.449,0,6.449-10,0-10c-41.889,0-83.777,0-125.666,0
				C-1217.743,482.217-1217.743,492.217-1211.294,492.217L-1211.294,492.217z"/>
		</g>
	</g>
	<g>
		<g>
			<path d="M-1220.157,583.676c-5.401,7.37-7.292,17.576-9.014,26.337c-2.586,13.151-4.003,26.556-5.106,39.902
				c-1.078,13.038-1.705,26.12-1.916,39.2c-0.134,8.356-0.385,16.927,0.863,25.219c0.957,6.359,10.591,3.647,9.643-2.658
				c0.099,0.654-0.125-1.299-0.203-2.39c-0.128-1.789-0.192-3.584-0.247-5.377c-0.142-4.616-0.125-9.237-0.068-13.854
				c0.154-12.618,0.782-25.234,1.744-37.815c0.988-12.921,2.369-25.841,4.746-38.587c1.538-8.249,3.106-17.988,8.194-24.93
				C-1207.704,583.513-1216.388,578.532-1220.157,583.676L-1220.157,583.676z"/>
		</g>
	</g>
	<g>
		<g>
			<path d="M-1218.278,590.073c3.895,8.49,9.668,16.257,14.965,23.899c8.448,12.188,17.239,24.14,26.017,36.091
				c8.905,12.123,17.864,24.208,26.65,36.418c5.906,8.207,12.075,16.427,17.033,25.259c3.156,5.622,11.795,0.583,8.635-5.047
				c-4.792-8.537-10.737-16.481-16.432-24.423c-8.729-12.175-17.659-24.205-26.532-36.275
				c-8.824-12.005-17.639-24.021-26.162-36.243c-5.503-7.892-11.51-15.94-15.54-24.726
				C-1212.329,579.171-1220.946,584.256-1218.278,590.073L-1218.278,590.073z"/>
		</g>
	</g>
	<path d="M-1043.298,470.429h-26.564c-0.375,0-9.127-0.033-9.127-0.033c-2.745,0-4.32,4.238-5.306,4.238
		c-1.585,0.25-4.889,1.334-4.923,4.004v13.884c-0.934,5.74,2.15,4.739,4.472,4.739s5.34,0.533,3.938-4.739v-8.779
		c0.839,0.364,1.764,0.569,2.736,0.569h5.74c3.797,0,6.875-3.078,6.875-6.874c0-1.079-0.256-2.096-0.698-3.004h22.857
		c1.107,0,2.004-0.896,2.004-2.003C-1041.294,471.325-1042.19,470.429-1043.298,470.429z"/>
	
		<rect x="-1084.832" y="471.923" transform="matrix(-0.8304 0.5571 -0.5571 -0.8304 -1720.2705 1471.0135)" width="1.692" height="3.604"/>
	<path fill="none" stroke="#000000" stroke-width="2" stroke-miterlimit="10" d="M-1073.583,484.612c0,2.17-0.357,3.704-2.528,3.704
		h-4.681c-2.17,0-2.303-1.76-2.303-3.93l0,0c0-2.17,1.759-3.93,3.93-3.93h3.054C-1073.94,480.457-1073.583,484.612-1073.583,484.612
		z"/>
	<g>
		<g>
			<path d="M-1082.709,484.577c-0.412-0.426-0.093-0.121,0.008,0.074c0.09,0.174,0.161,0.359,0.238,0.539
				c0.22,0.511,0.525,0.931,0.897,1.35c0.649,0.729,1.541,1.31,2.417,1.732c1.227,0.594,2.692,0.347,3.42-0.896
				c0.647-1.105,0.33-2.827-0.897-3.42c-0.319-0.155-0.625-0.325-0.924-0.517c-0.585-0.376,0.351,0.319-0.175-0.135
				c-0.101-0.087-0.475-0.59-0.16-0.111c-0.486-0.739-0.643-1.483-1.289-2.151c-0.947-0.979-2.584-0.951-3.535,0
				C-1083.685,482.017-1083.656,483.599-1082.709,484.577L-1082.709,484.577z"/>
		</g>
	</g>
	<polygon points="-1044.651,470.695 -1043.272,468.306 -1043.247,470.695 	"/>
	<path d="M-1085.78,471.472c-0.912,1.126-2.463,1.089-3.572,1.604c0.075,0.072,3.778,1.035,4.964-0.431
		c1.185-1.465,0.933-4.109,0.88-4.147C-1083.946,469.014-1084.899,470.382-1085.78,471.472z"/>
	<path d="M-992.821,465.818c-0.051,0-0.101,0.003-0.15,0.003c0.012-0.087,0.02-0.176,0.02-0.265c0-1.882-2.641-3.408-5.898-3.408
		c-1.146,0-2.217,0.189-3.121,0.518c-1.129-2.569-4.73-4.449-9.003-4.449c-4.826,0-8.799,2.398-9.313,5.481
		c-1.792,0.287-3.241,1.143-3.887,2.263c-3.681,0.606-6.401,2.747-6.401,5.297c0,3.02,3.817,5.468,8.526,5.468
		c0.002,0,0.005,0,0.006,0c-0.002,0.078-0.006,0.156-0.006,0.233c0,4.561,3.844,8.258,8.585,8.258c2.82,0,5.323-1.309,6.889-3.329
		c0.919,0.615,1.991,0.97,3.139,0.97c3.373,0,6.111-3.058,6.157-6.851c1.207,0.84,2.762,1.346,4.459,1.346
		c3.836,0,6.946-2.581,6.946-5.767S-988.985,465.818-992.821,465.818z"/>
</g>
<g>
	<circle cx="76.696" cy="20.285" r="20.285"/>
	<g>
		<path d="M156.757,285.5c-8.523-8.497-12.791-17.001,3.802-18.304c11.915-0.871,20.865,8.053,28.538,15.701
			c10.23,10.197,7.258,15.734-8.066,12.354c-8.941-2.113-16.182-5.933-24.699-10.175"/>
	</g>
	<g>
		<path d="M59.808,291.775c-11.036-4.802-18.112-11.163-3.137-18.429c10.776-5.156,22.365-0.112,32.299,4.21
			c13.244,5.764,12.498,12.003-3.006,14.445c-9.096,1.294-17.229,0.378-26.708-0.465"/>
	</g>
	<g>
		<g>
			<path d="M71.638,32.415c5.002,38.508,11.006,77.172,2.515,115.661c-1.387,6.284,8.253,8.954,9.643,2.658
				c8.714-39.493,2.978-78.791-2.157-118.319C80.819,26.113,70.81,26.033,71.638,32.415L71.638,32.415z"/>
		</g>
	</g>
	<g>
		<g>
			<path d="M74.979,48.917c-13.791,2.154-27.766,3.098-41.588,5.085c-6.894,0.99-13.816,2.141-20.514,4.088
				c-4.369,1.27-9.925,3.161-12.222,7.458c-1.058,1.978-0.866,4.443,0.782,6.059c10.588,10.382,24.359,18.026,36.969,25.623
				c11.832,7.128,23.84,14.017,36.043,20.493c-0.598-2.28-1.195-4.561-1.794-6.841c-1.44,2.859-2.349,5.854-3.215,8.925
				c-0.376,1.334-0.759,2.604-1.452,3.805c-0.416,0.314-0.181,0.23,0.707-0.252c-0.957,0.121-2.067-0.548-2.865-0.938
				c-5.77-2.82-10.84,5.803-5.047,8.635c4.891,2.392,10.438,3.659,14.613-0.771c3.652-3.874,3.594-9.793,5.894-14.355
				c1.186-2.353,0.72-5.507-1.794-6.841c-11.832-6.279-23.461-12.971-34.958-19.842c-12.243-7.318-25.769-14.649-36.03-24.71
				c0.261,2.02,0.521,4.039,0.782,6.059c0.278-0.521-0.44,0.279,0.542-0.586c-0.297,0.261,1.481-0.756,1.914-0.964
				c1.98-0.948,4.248-1.467,6.36-2.024c6.643-1.752,13.495-2.755,20.289-3.71c13.046-1.832,26.224-2.717,39.241-4.751
				C83.994,57.566,81.286,47.932,74.979,48.917L74.979,48.917z"/>
		</g>
	</g>
	<g>
		<g>
			<path d="M81.642,58.738c41.889,0,83.777,0,125.666,0c6.448,0,6.448-10,0-10c-41.889,0-83.777,0-125.666,0
				C75.192,48.738,75.192,58.738,81.642,58.738L81.642,58.738z"/>
		</g>
	</g>
	<g>
		<g>
			<path d="M72.778,150.197c-5.4,7.37-7.291,17.576-9.014,26.337c-2.587,13.151-4.004,26.556-5.106,39.902
				c-1.077,13.038-1.705,26.12-1.915,39.2c-0.135,8.356-0.385,16.927,0.862,25.219c0.956,6.359,10.591,3.647,9.643-2.658
				c0.099,0.654-0.124-1.299-0.203-2.39c-0.128-1.789-0.192-3.584-0.247-5.377c-0.142-4.616-0.125-9.237-0.068-13.854
				c0.154-12.618,0.782-25.234,1.744-37.815c0.987-12.921,2.369-25.841,4.746-38.587c1.537-8.249,3.105-17.988,8.193-24.93
				C85.231,150.034,76.548,145.054,72.778,150.197L72.778,150.197z"/>
		</g>
	</g>
	<g>
		<g>
			<path d="M74.657,156.595c3.895,8.49,9.669,16.257,14.966,23.899c8.448,12.188,17.239,24.14,26.017,36.091
				c8.906,12.123,17.864,24.208,26.65,36.418c5.906,8.207,12.075,16.427,17.033,25.259c3.156,5.622,11.795,0.583,8.635-5.047
				c-4.792-8.537-10.736-16.481-16.432-24.423c-8.73-12.175-17.66-24.205-26.532-36.275c-8.824-12.005-17.639-24.021-26.161-36.243
				c-5.504-7.892-11.511-15.94-15.541-24.726C80.606,145.692,71.989,150.777,74.657,156.595L74.657,156.595z"/>
		</g>
	</g>
	<path d="M249.638,36.95h-26.564c-0.375,0-9.127-0.033-9.127-0.033c-2.745,0-4.32,4.238-5.307,4.238
		c-1.585,0.25-4.889,1.334-4.922,4.004v13.884c-0.935,5.74,2.149,4.739,4.472,4.739s5.34,0.533,3.938-4.739v-8.779
		c0.838,0.364,1.764,0.569,2.736,0.569h5.74c3.797,0,6.875-3.078,6.875-6.874c0-1.079-0.256-2.096-0.699-3.004h22.857
		c1.107,0,2.004-0.896,2.004-2.003C251.642,37.847,250.745,36.95,249.638,36.95z"/>
	<rect x="208.104" y="38.445" transform="matrix(-0.8304 0.5572 -0.5572 -0.8304 404.8786 -42.767)" width="1.691" height="3.603"/>
	<path fill="none" stroke="#000000" stroke-width="2" stroke-miterlimit="10" d="M219.353,51.134c0,2.17-0.357,3.704-2.527,3.704
		h-4.682c-2.17,0-2.303-1.76-2.303-3.93l0,0c0-2.17,1.76-3.93,3.93-3.93h3.055C218.995,46.979,219.353,51.134,219.353,51.134z"/>
	<g>
		<g>
			<path d="M210.226,51.099c-0.412-0.426-0.092-0.121,0.008,0.074c0.09,0.174,0.162,0.359,0.238,0.539
				c0.221,0.511,0.525,0.931,0.897,1.35c0.649,0.729,1.541,1.31,2.417,1.732c1.227,0.594,2.691,0.347,3.42-0.896
				c0.647-1.105,0.33-2.827-0.896-3.42c-0.32-0.155-0.625-0.325-0.924-0.517c-0.586-0.376,0.35,0.319-0.176-0.135
				c-0.1-0.087-0.475-0.59-0.16-0.111c-0.486-0.739-0.643-1.483-1.289-2.151c-0.946-0.979-2.584-0.951-3.535,0
				C209.251,48.538,209.279,50.12,210.226,51.099L210.226,51.099z"/>
		</g>
	</g>
	<polygon points="248.284,37.217 249.663,34.827 249.688,37.217 	"/>
	<path d="M207.155,37.993c-0.912,1.126-2.463,1.089-3.572,1.604c0.074,0.072,3.777,1.035,4.964-0.431
		c1.185-1.465,0.933-4.109,0.88-4.147C208.989,35.535,208.036,36.903,207.155,37.993z"/>
	<path d="M300.114,32.34c-0.051,0-0.101,0.003-0.15,0.003c0.012-0.087,0.02-0.176,0.02-0.265c0-1.882-2.641-3.408-5.898-3.408
		c-1.146,0-2.217,0.189-3.121,0.518c-1.129-2.569-4.73-4.449-9.003-4.449c-4.826,0-8.799,2.398-9.313,5.481
		c-1.792,0.287-3.241,1.143-3.887,2.263c-3.681,0.606-6.401,2.747-6.401,5.297c0,3.02,3.817,5.468,8.526,5.468
		c0.002,0,0.005,0,0.006,0c-0.002,0.078-0.006,0.156-0.006,0.233c0,4.561,3.844,8.258,8.585,8.258c2.82,0,5.323-1.309,6.889-3.329
		c0.919,0.615,1.991,0.97,3.139,0.97c3.373,0,6.111-3.058,6.157-6.851c1.207,0.84,2.762,1.346,4.459,1.346
		c3.836,0,6.946-2.581,6.946-5.767S303.95,32.34,300.114,32.34z"/>
</g>
</svg>
