<?xml version="1.0" encoding="utf-8"?>
<!-- Generator: Adobe Illustrator 16.0.3, SVG Export Plug-In . SVG Version: 6.00 Build 0)  -->
<!DOCTYPE svg PUBLIC "-//W3C//DTD SVG 1.1//EN" "http://www.w3.org/Graphics/SVG/1.1/DTD/svg11.dtd">
<svg version="1.1" id="Layer_1" xmlns="http://www.w3.org/2000/svg" xmlns:xlink="http://www.w3.org/1999/xlink" x="0px" y="0px"
	 width="492.833px" height="272.097px" viewBox="0 0 492.833 272.097" enable-background="new 0 0 492.833 272.097"
	 xml:space="preserve">
<g>
	<g>
		<g>
			<path d="M-646.209-55.085c14.963-0.047,29.894-1.664,44.858-1.897c15.848-0.246,33.574-0.168,48.283,6.542
				c5.805,2.649,10.578,6.528,13.297,12.383c2.566,5.523,1.189,11.979,3.373,17.697c5.668,14.838,18.855,26.838,30.295,37.3
				c10.439,9.548,21.49,18.407,32.529,27.245c4.033,3.229,8.082,6.443,12.02,9.791c1.301,1.105,2.58,2.236,3.801,3.428
				c0.42,0.41,0.82,0.839,1.203,1.283c-1.008-1.168,0.178,0.998-0.48-0.938c2.066,6.067,11.729,3.463,9.643-2.658
				c-1.232-3.617-4.768-6.208-7.566-8.588c-5.227-4.443-10.648-8.661-15.996-12.954c-14.049-11.274-28.064-22.75-40.535-35.784
				c-5.236-5.473-10.203-11.295-13.875-17.949c-3.182-5.762-2.385-10.881-3.758-17.197c-3.223-14.824-17.547-22.518-31.07-25.985
				c-28.17-7.224-57.457-1.808-86.021-1.718C-652.656-65.066-652.658-55.066-646.209-55.085L-646.209-55.085z"/>
		</g>
	</g>
	<g>
		<g>
			<path d="M-607.556-61.948c0.127,11.57,3.637,21.825,7.65,32.519c3.77,10.043,7.996,23.148,5.75,33.758
				c-2.074,9.781-6.846,19.191-10.68,28.363c-3.434,8.213-8.285,17.447-8.543,26.539c-0.184,6.451,9.818,6.434,10,0
				c0.229-8.031,5.523-17.516,8.654-25.005c3.793-9.07,8.314-18.292,10.363-27.962c2.375-11.207-1.045-24.469-4.707-35.063
				c-3.82-11.049-8.357-21.235-8.488-33.149C-597.628-68.392-607.628-68.399-607.556-61.948L-607.556-61.948z"/>
		</g>
	</g>
	<g>
		<g>
			<path d="M-676.406-80.324c-17.561,1.986-35.072,7.857-52.037,12.556c-8.912,2.468-17.807,4.999-26.666,7.644
				c-4.09,1.221-11.672,2.146-13.381,6.705c-0.732,1.951,0.428,4.75,2.297,5.646c0.875,0.42,1.695,0.764,2.695,0.69
				c6.391-0.47,6.438-10.474,0-10c-0.932,0.059-0.146,0.283,2.352,0.675c0.766,1.883,1.533,3.765,2.299,5.646
				c0.002-0.007,0.004-0.014,0.008-0.021c-0.768,0.996-1.533,1.992-2.299,2.988c-0.32,0.239-1.309,0.482-0.033,0.034
				c0.822-0.289,1.652-0.551,2.482-0.814c2.777-0.882,5.57-1.711,8.363-2.54c8.836-2.62,17.709-5.125,26.594-7.579
				c9.369-2.588,18.762-5.101,28.193-7.455c3.85-0.96,7.707-1.882,11.58-2.734c1.518-0.334,3.041-0.646,4.566-0.939
				c0.715-0.137,1.434-0.262,2.152-0.381c1.387-0.23,0.191-0.049,0.834-0.121C-670.074-71.041-670.004-81.048-676.406-80.324
				L-676.406-80.324z"/>
		</g>
	</g>
	<circle cx="-663.668" cy="-61.832" r="23.281"/>
	<g>
		<g>
			<path d="M-536.835-39.297c-2.184,0.368-1.707,0.27-4.131,0.56c-2.947,0.353-5.898,0.666-8.85,0.978
				c-7.768,0.819-15.541,1.579-23.313,2.348c-16.49,1.631-32.996,3.188-49.449,5.173c-4.887,0.59-9.856,1.084-14.669,2.155
				c-4.746,1.056-5.76,4.552-4.762,8.899c3.432,14.951,7.793,29.687,11.315,44.619c0.617,2.607,1.203,5.221,1.729,7.848
				c0.432,2.151,0.533,2.293,0.57,3.832c0.154,6.438,10.156,6.453,10,0c-0.137-5.703-1.992-11.601-3.314-17.104
				c-2.045-8.521-4.268-16.999-6.477-25.479c-1.512-5.805-3.165-11.601-4.425-17.468c-0.09-0.424-0.227-1.483,0.023,0.445
				c0.285,2.222-1.479,3.717-3.168,4.374c0.473-0.184,0.984-0.282,1.477-0.392c2.008-0.446,4.058-0.72,6.091-1.009
				c29.438-4.184,59.281-5.762,88.813-9.412c1.736-0.215,3.473-0.434,5.197-0.724C-527.829-30.724-530.53-40.359-536.835-39.297
				L-536.835-39.297z"/>
		</g>
	</g>
	<g>
		<path d="M-759.135-30.402c-11.443,0.859-21.557-9.578-22.414-21.021c-0.859-11.443,7.58-23.273,19.023-24.133"/>
		<polygon points="-778.51,-48.048 -778.967,-55.982 -985.335,-40.191 		"/>
	</g>
	<g>
		<g>
			<path d="M-613.634,55.128c-2.291,2.28-4.482,4.478-7.406,5.922c-3.713,1.833-8.912,1.399-12.886,1.421
				c-6.447,0.033-6.451,10.033,0,10c5.323-0.027,10.944-0.068,15.995-1.96c4.521-1.694,8-4.96,11.367-8.312
				C-601.987,57.647-609.06,50.577-613.634,55.128L-613.634,55.128z"/>
		</g>
	</g>
	<g>
		<g>
			<path d="M-612.251,63.235c5.135,3.986,10.785,7.387,17.521,7.164c6.432-0.213,6.453-10.214,0-10
				c-3.941,0.13-7.41-1.874-10.451-4.234c-2.15-1.67-4.965-2.107-7.07,0C-613.997,57.91-614.409,61.561-612.251,63.235
				L-612.251,63.235z"/>
		</g>
	</g>
	<g>
		<path d="M-450.368,54.059c13.814,0,24.176,3.453,11.742,17.959c-8.979,10.361-23.484,10.361-35.918,10.361
			c-16.576,0-18.648-6.908-3.453-16.578c8.979-5.525,17.959-8.289,28.32-11.742"/>
	</g>
	<g>
		<path d="M-624.101,33.69c13.506,2.906,22.908,8.461,7.703,20.027c-10.957,8.24-25.138,5.189-37.292,2.574
			c-16.207-3.486-16.779-10.675,0.109-16.933c9.941-3.514,19.301-4.326,30.155-5.523"/>
	</g>
	<g>
		<g>
			<path d="M-767.355-53.419c1.365,0.215,2.68,0.543,3.979,1.018c-0.883-0.322,0.74,0.378,0.912,0.469
				c0.512,0.272,0.998,0.592,1.477,0.918c0.463,0.337,0.453,0.326-0.027-0.031c0.205,0.169,0.404,0.344,0.6,0.523
				c0.375,0.337,0.719,0.708,1.057,1.083c0.6,0.667-0.504-0.775,0.275,0.375c0.295,0.435,0.541,0.897,0.768,1.37
				c-0.66-1.372-0.137-0.279-0.027,0.1c0.361,1.257-0.043-0.944,0.006-0.168c0.074,1.18,0.248-1.056,0.072-0.359
				c0.242-0.955,0.709-1.33,1.658-2.059c-0.416,0.242-0.166,0.145,0.746-0.295c-0.484,0.111-0.227,0.078,0.775-0.1
				c-0.699,0.039,1.434,0.348,0.174-0.015c-0.672-0.193,1.004,0.534-0.254-0.146c-0.225-0.126-0.443-0.26-0.66-0.4
				c-0.078-0.048-1.199-0.865-0.449-0.279c-2.145-1.678-4.969-2.102-7.07,0c-1.752,1.751-2.152,5.389,0,7.071
				c2.938,2.298,6.23,4.449,10.143,3.511c4.137-0.992,5.188-5.303,4.611-8.938c-0.469-2.951-2.65-5.832-4.754-7.824
				c-3.09-2.927-7.168-4.811-11.352-5.467c-2.691-0.422-5.367,0.645-6.15,3.492C-771.508-57.169-770.053-53.842-767.355-53.419
				L-767.355-53.419z"/>
		</g>
	</g>
</g>
<g>
	<circle cx="-1095.943" cy="87.557" r="20.285"/>
	<g>
		<path d="M-930.052,160.573c8.866,4.623,11.555,16.997,6.933,25.863c-4.623,8.866-16.309,13.744-25.174,9.122"/>
		<polygon points="-923.819,182.541 -927.125,188.625 -767.104,271.773 		"/>
	</g>
	<g>
		<path d="M-1013.054,337.876c-11.239-4.306-18.592-10.346-3.956-18.271c10.536-5.632,22.338-1.109,32.455,2.767
			c13.489,5.167,13.02,11.434-2.358,14.563c-9.029,1.698-17.197,1.146-26.703,0.727"/>
	</g>
	<g>
		<path d="M-1175.354,335.697c11.239-4.306,18.592-10.345,3.956-18.271c-10.537-5.632-22.338-1.109-32.455,2.766
			c-13.488,5.167-13.021,11.434,2.358,14.564c9.029,1.698,17.196,1.146,26.703,0.727"/>
	</g>
	<g>
		<g>
			<path d="M-1102,107.354c5.195,40.21,10.332,81.434,1.485,121.52c-1.387,6.284,8.253,8.954,9.643,2.658
				c9.064-41.069,4.196-82.964-1.128-124.178C-1092.815,101.05-1102.825,100.971-1102,107.354L-1102,107.354z"/>
		</g>
	</g>
	<g>
		<g>
			<path d="M-1092.789,132.848c-47.123-0.025-101.93-2.72-130.82-45.964c-3.563-5.333-12.229-0.333-8.635,5.047
				c14.75,22.079,36.559,36.129,61.885,43.311c25.073,7.109,51.696,7.593,77.57,7.607
				C-1086.34,142.852-1086.34,132.852-1092.789,132.848L-1092.789,132.848z"/>
		</g>
	</g>
	<g>
		<g>
			<path d="M-1094.409,140.927c22.938,7.966,39.199,28.002,62.402,35.735c13.308,4.436,28.263,5.344,42.174,5.991
				c14.797,0.688,29.626,0.287,44.432,0.272c6.448-0.006,6.449-10.006,0-10c-27.977,0.028-58.428,2.599-85.393-6.388
				c-22.514-7.503-38.417-27.426-60.957-35.253C-1097.859,129.163-1100.461,138.825-1094.409,140.927L-1094.409,140.927z"/>
		</g>
	</g>
	<g>
		<g>
			<path d="M-1100.113,226.717c-0.118,8.293-5.694,14.025-12.227,18.503c-9.013,6.178-19.185,10.558-28.699,15.881
				c-10.05,5.623-19.78,12.361-26.999,21.45c-8.683,10.933-12.496,24.188-12.61,38.044c-0.053,6.451,9.947,6.445,10,0
				c0.106-12.866,3.913-24.813,12.621-34.438c7.804-8.625,18.139-14.443,28.305-19.825c16.319-8.64,39.3-17.884,39.609-39.614
				C-1090.021,220.265-1100.021,220.273-1100.113,226.717L-1100.113,226.717z"/>
		</g>
	</g>
	<g>
		<g>
			<path d="M-1100.113,225.555c0.279,22.398,20.985,32.353,38.153,41.61c9.74,5.252,19.325,10.887,26.906,19.08
				c8.852,9.567,12.302,22.133,12.403,34.931c0.051,6.446,10.051,6.451,10,0c-0.106-13.479-3.434-26.688-11.66-37.547
				c-7.009-9.254-16.52-15.976-26.493-21.715c-14.49-8.339-39.059-16.23-39.31-36.359
				C-1090.193,219.111-1100.193,219.104-1100.113,225.555L-1100.113,225.555z"/>
		</g>
	</g>
	<g>
		<g>
			<g>
				<path d="M-1221.474,88.827c-0.06-4.841-1.447-10.922,1.06-15.338c3.188-5.616-5.452-10.653-8.635-5.047
					c-3.587,6.318-2.512,13.452-2.425,20.385C-1231.394,95.271-1221.394,95.278-1221.474,88.827L-1221.474,88.827z"/>
			</g>
		</g>
		<g>
			<g>
				<path d="M-1224.246,86.162c-4.061-4.289-6.851-9.24-12.1-12.281c-5.515-3.195-11.53-1.818-17.365-3.275
					c-6.258-1.563-8.912,8.081-2.658,9.643c4.887,1.221,10.364,0.163,14.976,2.268c4.353,1.986,6.896,7.358,10.076,10.718
					C-1226.875,97.924-1219.816,90.841-1224.246,86.162L-1224.246,86.162z"/>
			</g>
		</g>
	</g>
	<ellipse cx="-938.289" cy="177.192" rx="9.802" ry="8.496"/>
</g>
<g>
	<circle cx="163.995" cy="21.56" r="20.285"/>
	<g>
		<path d="M329.886,94.577c8.866,4.623,11.555,16.997,6.933,25.863c-4.622,8.866-16.309,13.744-25.175,9.122"/>
		<polygon points="336.118,116.544 332.812,122.628 492.833,205.777 		"/>
	</g>
	<g>
		<path d="M246.884,271.879c-11.24-4.306-18.592-10.346-3.956-18.271c10.536-5.632,22.338-1.109,32.454,2.767
			c13.489,5.167,13.021,11.434-2.357,14.563c-9.029,1.698-17.197,1.146-26.703,0.727"/>
	</g>
	<g>
		<path d="M84.583,269.701c11.239-4.306,18.592-10.345,3.955-18.271c-10.536-5.632-22.338-1.109-32.454,2.766
			c-13.488,5.167-13.021,11.434,2.358,14.564c9.028,1.698,17.195,1.146,26.702,0.727"/>
	</g>
	<g>
		<g>
			<path d="M157.937,41.357c5.195,40.21,10.332,81.434,1.486,121.52c-1.388,6.284,8.252,8.954,9.643,2.658
				c9.063-41.069,4.195-82.964-1.129-124.178C167.122,35.054,157.112,34.974,157.937,41.357L157.937,41.357z"/>
		</g>
	</g>
	<g>
		<g>
			<path d="M167.149,66.852c-47.123-0.025-101.931-2.72-130.82-45.964c-3.563-5.333-12.229-0.333-8.635,5.047
				c14.749,22.079,36.559,36.129,61.885,43.311c25.072,7.109,51.695,7.593,77.57,7.607
				C173.598,76.855,173.598,66.855,167.149,66.852L167.149,66.852z"/>
		</g>
	</g>
	<g>
		<g>
			<path d="M165.528,74.93c22.939,7.966,39.199,28.002,62.402,35.735c13.308,4.436,28.264,5.344,42.174,5.991
				c14.798,0.688,29.627,0.287,44.433,0.272c6.448-0.006,6.449-10.006,0-10c-27.977,0.028-58.429,2.599-85.394-6.388
				c-22.514-7.503-38.416-27.426-60.957-35.253C162.079,63.166,159.477,72.829,165.528,74.93L165.528,74.93z"/>
		</g>
	</g>
	<g>
		<g>
			<path d="M159.825,160.72c-0.118,8.293-5.694,14.025-12.228,18.503c-9.013,6.178-19.185,10.558-28.699,15.881
				c-10.05,5.623-19.78,12.361-26.999,21.45c-8.684,10.933-12.496,24.188-12.609,38.044c-0.054,6.451,9.946,6.445,10,0
				c0.105-12.866,3.912-24.813,12.621-34.438c7.804-8.625,18.139-14.443,28.305-19.825c16.319-8.64,39.301-17.884,39.609-39.614
				C169.917,154.268,159.916,154.277,159.825,160.72L159.825,160.72z"/>
		</g>
	</g>
	<g>
		<g>
			<path d="M159.825,159.558c0.279,22.398,20.984,32.353,38.152,41.61c9.74,5.252,19.325,10.887,26.906,19.08
				c8.852,9.567,12.303,22.133,12.403,34.931c0.051,6.446,10.051,6.451,10,0c-0.106-13.479-3.435-26.688-11.66-37.547
				c-7.009-9.254-16.521-15.976-26.493-21.715c-14.489-8.339-39.059-16.23-39.309-36.359
				C169.744,153.115,159.744,153.107,159.825,159.558L159.825,159.558z"/>
		</g>
	</g>
	<g>
		<g>
			<g>
				<path d="M38.464,22.83c-0.061-4.841-1.447-10.922,1.06-15.338c3.188-5.616-5.452-10.653-8.635-5.047
					c-3.587,6.318-2.512,13.452-2.425,20.385C28.544,29.274,38.544,29.282,38.464,22.83L38.464,22.83z"/>
			</g>
		</g>
		<g>
			<g>
				<path d="M35.692,20.166c-4.062-4.289-6.852-9.24-12.101-12.281c-5.515-3.195-11.53-1.818-17.365-3.275
					c-6.259-1.563-8.912,8.081-2.658,9.643c4.888,1.221,10.364,0.163,14.976,2.268c4.354,1.986,6.896,7.358,10.076,10.718
					C33.062,31.928,40.122,24.844,35.692,20.166L35.692,20.166z"/>
			</g>
		</g>
	</g>
	<ellipse cx="321.649" cy="111.195" rx="9.802" ry="8.496"/>
</g>
<g>
	<circle cx="-1128.943" cy="431.224" r="20.285"/>
	<g>
		<path d="M-1048.881,696.438c-8.524-8.497-12.792-17.001,3.801-18.304c11.915-0.871,20.865,8.053,28.538,15.701
			c10.23,10.197,7.258,15.734-8.066,12.354c-8.941-2.113-16.182-5.933-24.699-10.175"/>
	</g>
	<g>
		<path d="M-1145.831,702.714c-11.036-4.802-18.112-11.163-3.137-18.429c10.777-5.156,22.366-0.112,32.299,4.21
			c13.245,5.764,12.498,12.003-3.005,14.445c-9.096,1.294-17.23,0.378-26.708-0.465"/>
	</g>
	<g>
		<g>
			<path d="M-1134,443.354c5.001,38.508,11.006,77.172,2.514,115.661c-1.387,6.284,8.253,8.954,9.643,2.658
				c8.713-39.493,2.978-78.791-2.157-118.319C-1124.819,437.052-1134.829,436.972-1134,443.354L-1134,443.354z"/>
		</g>
	</g>
	<g>
		<g>
			<path d="M-1130.659,459.855c-13.792,2.154-27.766,3.098-41.587,5.085c-6.894,0.99-13.817,2.141-20.514,4.088
				c-4.37,1.27-9.925,3.161-12.222,7.458c-1.057,1.978-0.866,4.443,0.782,6.059c10.589,10.382,24.36,18.026,36.97,25.623
				c11.832,7.128,23.839,14.017,36.042,20.493c-0.598-2.28-1.196-4.561-1.794-6.841c-1.441,2.859-2.349,5.854-3.215,8.925
				c-0.376,1.334-0.759,2.604-1.452,3.805c-0.417,0.314-0.181,0.23,0.707-0.252c-0.957,0.121-2.067-0.548-2.866-0.938
				c-5.769-2.82-10.84,5.803-5.047,8.635c4.891,2.392,10.438,3.659,14.614-0.771c3.652-3.874,3.594-9.793,5.894-14.355
				c1.186-2.353,0.72-5.507-1.794-6.841c-11.833-6.279-23.461-12.971-34.958-19.842c-12.244-7.318-25.768-14.649-36.03-24.71
				c0.26,2.02,0.521,4.039,0.782,6.059c0.278-0.521-0.44,0.279,0.542-0.586c-0.296,0.261,1.482-0.756,1.915-0.964
				c1.98-0.948,4.247-1.467,6.36-2.024c6.643-1.752,13.495-2.755,20.289-3.71c13.046-1.832,26.224-2.717,39.241-4.751
				C-1121.645,468.505-1124.353,458.87-1130.659,459.855L-1130.659,459.855z"/>
		</g>
	</g>
	<g>
		<g>
			<path d="M-1123.997,469.677c41.889,0,83.777,0,125.666,0c6.449,0,6.449-10,0-10c-41.889,0-83.777,0-125.666,0
				C-1130.446,459.677-1130.446,469.677-1123.997,469.677L-1123.997,469.677z"/>
		</g>
	</g>
	<g>
		<g>
			<path d="M-1132.86,561.136c-5.401,7.37-7.292,17.576-9.014,26.337c-2.586,13.151-4.003,26.556-5.106,39.902
				c-1.078,13.038-1.705,26.12-1.916,39.2c-0.134,8.356-0.385,16.927,0.863,25.219c0.957,6.359,10.591,3.647,9.643-2.658
				c0.099,0.654-0.125-1.299-0.203-2.39c-0.128-1.789-0.192-3.584-0.247-5.377c-0.142-4.616-0.125-9.237-0.068-13.854
				c0.154-12.618,0.782-25.234,1.744-37.815c0.988-12.921,2.369-25.841,4.746-38.587c1.538-8.249,3.106-17.988,8.194-24.93
				C-1120.407,560.973-1129.091,555.992-1132.86,561.136L-1132.86,561.136z"/>
		</g>
	</g>
	<g>
		<g>
			<path d="M-1130.981,567.533c3.895,8.49,9.668,16.257,14.965,23.899c8.448,12.188,17.239,24.14,26.017,36.091
				c8.905,12.123,17.864,24.208,26.65,36.418c5.906,8.207,12.075,16.427,17.033,25.259c3.156,5.622,11.795,0.583,8.635-5.047
				c-4.792-8.537-10.737-16.481-16.432-24.423c-8.729-12.175-17.659-24.205-26.532-36.275
				c-8.824-12.005-17.639-24.021-26.162-36.243c-5.503-7.892-11.51-15.94-15.54-24.726
				C-1125.032,556.631-1133.649,561.716-1130.981,567.533L-1130.981,567.533z"/>
		</g>
	</g>
	<path d="M-956.001,447.889h-26.564c-0.375,0-9.127-0.033-9.127-0.033c-2.745,0-4.32,4.238-5.306,4.238
		c-1.585,0.25-4.889,1.334-4.923,4.004v13.884c-0.934,5.74,2.15,4.739,4.472,4.739s5.34,0.533,3.938-4.739v-8.779
		c0.839,0.364,1.764,0.569,2.736,0.569h5.74c3.797,0,6.875-3.078,6.875-6.874c0-1.079-0.256-2.096-0.698-3.004h22.857
		c1.107,0,2.004-0.896,2.004-2.003C-953.997,448.785-954.894,447.889-956.001,447.889z"/>
	
		<rect x="-997.535" y="449.383" transform="matrix(-0.8304 0.5571 -0.5571 -0.8304 -1573.0352 1381.1224)" width="1.692" height="3.604"/>
	<path fill="none" stroke="#000000" stroke-width="2" stroke-miterlimit="10" d="M-986.286,462.072c0,2.17-0.357,3.704-2.528,3.704
		h-4.681c-2.17,0-2.303-1.76-2.303-3.93l0,0c0-2.17,1.759-3.93,3.93-3.93h3.054C-986.644,457.917-986.286,462.072-986.286,462.072z"
		/>
	<g>
		<g>
			<path d="M-995.413,462.037c-0.412-0.426-0.093-0.121,0.008,0.074c0.09,0.174,0.161,0.359,0.238,0.539
				c0.22,0.511,0.525,0.931,0.897,1.35c0.649,0.729,1.541,1.31,2.417,1.732c1.227,0.594,2.692,0.347,3.42-0.896
				c0.647-1.105,0.33-2.827-0.897-3.42c-0.319-0.155-0.625-0.325-0.924-0.517c-0.585-0.376,0.351,0.319-0.175-0.135
				c-0.101-0.087-0.475-0.59-0.16-0.111c-0.486-0.739-0.643-1.483-1.289-2.151c-0.947-0.979-2.584-0.951-3.535,0
				C-996.388,459.477-996.359,461.059-995.413,462.037L-995.413,462.037z"/>
		</g>
	</g>
	<polygon points="-957.354,448.155 -955.976,445.766 -955.95,448.155 	"/>
	<path d="M-998.483,448.932c-0.912,1.126-2.463,1.089-3.572,1.604c0.075,0.072,3.778,1.035,4.964-0.431
		c1.185-1.465,0.933-4.109,0.88-4.147C-996.649,446.474-997.602,447.842-998.483,448.932z"/>
	<path d="M-905.524,443.278c-0.051,0-0.101,0.003-0.15,0.003c0.012-0.087,0.02-0.176,0.02-0.265c0-1.882-2.641-3.408-5.898-3.408
		c-1.146,0-2.217,0.189-3.121,0.518c-1.129-2.569-4.73-4.449-9.003-4.449c-4.826,0-8.799,2.398-9.313,5.481
		c-1.792,0.287-3.241,1.143-3.887,2.263c-3.681,0.606-6.401,2.747-6.401,5.297c0,3.02,3.817,5.468,8.526,5.468
		c0.002,0,0.005,0,0.006,0c-0.002,0.078-0.006,0.156-0.006,0.233c0,4.561,3.844,8.258,8.585,8.258c2.82,0,5.323-1.309,6.889-3.329
		c0.919,0.615,1.991,0.97,3.139,0.97c3.373,0,6.111-3.058,6.157-6.851c1.207,0.84,2.762,1.346,4.459,1.346
		c3.836,0,6.946-2.581,6.946-5.767S-901.688,443.278-905.524,443.278z"/>
</g>
</svg>
