<?xml version="1.0" encoding="utf-8"?>
<!-- Generator: Adobe Illustrator 16.0.3, SVG Export Plug-In . SVG Version: 6.00 Build 0)  -->
<!DOCTYPE svg PUBLIC "-//W3C//DTD SVG 1.1//EN" "http://www.w3.org/Graphics/SVG/1.1/DTD/svg11.dtd">
<svg version="1.1" id="Layer_1" xmlns="http://www.w3.org/2000/svg" xmlns:xlink="http://www.w3.org/1999/xlink" x="0px" y="0px"
	 width="552.277px" height="167.492px" viewBox="0 0 552.277 167.492" enable-background="new 0 0 552.277 167.492"
	 xml:space="preserve">
<g>
	<g>
		<g>
			<path d="M-568.328-91.467c14.963-0.047,29.894-1.664,44.857-1.897c15.849-0.246,33.574-0.168,48.283,6.542
				c5.806,2.649,10.578,6.528,13.297,12.383c2.566,5.523,1.189,11.979,3.373,17.697c5.668,14.838,18.855,26.838,30.295,37.3
				c10.439,9.548,21.49,18.407,32.529,27.245c4.033,3.229,8.082,6.443,12.021,9.791c1.301,1.105,2.579,2.236,3.801,3.428
				c0.42,0.41,0.819,0.839,1.203,1.283c-1.009-1.168,0.178,0.998-0.48-0.938c2.066,6.067,11.729,3.463,9.644-2.658
				c-1.232-3.617-4.769-6.208-7.566-8.588c-5.227-4.443-10.648-8.661-15.996-12.954c-14.049-11.274-28.063-22.75-40.535-35.784
				c-5.235-5.473-10.203-11.295-13.875-17.949c-3.182-5.762-2.385-10.881-3.758-17.197c-3.223-14.824-17.547-22.519-31.07-25.985
				c-28.17-7.224-57.457-1.808-86.021-1.718C-574.775-101.447-574.777-91.447-568.328-91.467L-568.328-91.467z"/>
		</g>
	</g>
	<g>
		<g>
			<path d="M-529.675-98.329c0.127,11.57,3.637,21.825,7.649,32.519c3.771,10.043,7.996,23.148,5.75,33.758
				c-2.074,9.781-6.846,19.19-10.68,28.363c-3.435,8.213-8.285,17.447-8.543,26.539c-0.185,6.451,9.817,6.434,10,0
				c0.229-8.031,5.522-17.516,8.653-25.005c3.794-9.07,8.314-18.292,10.363-27.962c2.375-11.207-1.045-24.469-4.707-35.063
				c-3.819-11.049-8.356-21.235-8.487-33.149C-519.747-104.773-529.747-104.78-529.675-98.329L-529.675-98.329z"/>
		</g>
	</g>
	<g>
		<g>
			<path d="M-598.525-116.705c-17.561,1.986-35.072,7.857-52.037,12.556c-8.912,2.468-17.807,4.999-26.666,7.644
				c-4.09,1.221-11.672,2.146-13.381,6.705c-0.731,1.951,0.428,4.75,2.297,5.646c0.875,0.42,1.695,0.765,2.695,0.69
				c6.391-0.47,6.438-10.474,0-10c-0.932,0.059-0.146,0.283,2.352,0.675c0.767,1.883,1.533,3.765,2.3,5.646
				c0.002-0.007,0.004-0.014,0.008-0.021c-0.769,0.996-1.533,1.992-2.299,2.988c-0.32,0.239-1.31,0.481-0.033,0.034
				c0.821-0.289,1.651-0.551,2.481-0.814c2.777-0.882,5.57-1.711,8.363-2.54c8.836-2.62,17.709-5.125,26.594-7.579
				c9.369-2.588,18.763-5.101,28.193-7.455c3.85-0.96,7.707-1.882,11.58-2.733c1.518-0.334,3.041-0.646,4.565-0.939
				c0.716-0.137,1.435-0.262,2.152-0.381c1.387-0.23,0.191-0.049,0.834-0.121C-592.193-107.422-592.123-117.43-598.525-116.705
				L-598.525-116.705z"/>
		</g>
	</g>
	<circle cx="-585.787" cy="-98.213" r="23.281"/>
	<g>
		<g>
			<path d="M-458.954-75.679c-2.185,0.368-1.707,0.27-4.131,0.56c-2.947,0.353-5.898,0.666-8.851,0.978
				c-7.768,0.819-15.541,1.579-23.313,2.348c-16.49,1.631-32.996,3.188-49.449,5.173c-4.887,0.59-9.856,1.084-14.669,2.155
				c-4.746,1.056-5.76,4.552-4.762,8.899c3.432,14.951,7.793,29.687,11.314,44.619c0.617,2.607,1.203,5.221,1.729,7.848
				c0.432,2.151,0.532,2.293,0.569,3.832c0.154,6.438,10.156,6.453,10,0c-0.137-5.703-1.991-11.601-3.313-17.104
				c-2.045-8.521-4.269-16.999-6.478-25.479c-1.512-5.805-3.165-11.601-4.425-17.468c-0.09-0.424-0.227-1.482,0.023,0.445
				c0.285,2.222-1.479,3.717-3.168,4.374c0.473-0.184,0.983-0.282,1.477-0.392c2.008-0.446,4.058-0.72,6.091-1.009
				c29.438-4.184,59.281-5.762,88.813-9.412c1.735-0.215,3.473-0.434,5.197-0.724C-449.948-67.105-452.649-76.74-458.954-75.679
				L-458.954-75.679z"/>
		</g>
	</g>
	<g>
		<path d="M-681.254-66.783c-11.443,0.859-21.558-9.578-22.414-21.021c-0.859-11.443,7.58-23.273,19.022-24.133"/>
		<polygon points="-700.629,-84.43 -701.086,-92.363 -907.454,-76.572 		"/>
	</g>
	<g>
		<g>
			<path d="M-535.753,18.747c-2.291,2.28-4.482,4.478-7.406,5.922c-3.713,1.833-8.912,1.399-12.886,1.421
				c-6.447,0.033-6.451,10.033,0,10c5.322-0.027,10.943-0.068,15.995-1.96c4.521-1.694,8-4.96,11.366-8.312
				C-524.106,21.266-531.179,14.195-535.753,18.747L-535.753,18.747z"/>
		</g>
	</g>
	<g>
		<g>
			<path d="M-534.37,26.854c5.135,3.986,10.785,7.387,17.521,7.164c6.433-0.213,6.453-10.214,0-10
				c-3.94,0.13-7.409-1.874-10.45-4.234c-2.15-1.67-4.966-2.107-7.07,0C-536.116,21.528-536.528,25.18-534.37,26.854L-534.37,26.854
				z"/>
		</g>
	</g>
	<g>
		<path d="M-372.487,17.678c13.814,0,24.176,3.453,11.742,17.959c-8.979,10.361-23.484,10.361-35.918,10.361
			c-16.576,0-18.648-6.908-3.453-16.578c8.979-5.525,17.959-8.289,28.32-11.742"/>
	</g>
	<g>
		<path d="M-546.22-2.691c13.507,2.906,22.908,8.461,7.703,20.027c-10.957,8.24-25.138,5.189-37.292,2.574
			c-16.207-3.486-16.778-10.675,0.109-16.933c9.941-3.514,19.301-4.326,30.155-5.523"/>
	</g>
	<g>
		<g>
			<path d="M-689.475-89.801c1.365,0.215,2.681,0.543,3.979,1.018c-0.883-0.322,0.74,0.378,0.912,0.469
				c0.512,0.272,0.998,0.592,1.477,0.918c0.463,0.337,0.453,0.326-0.026-0.031c0.204,0.169,0.403,0.344,0.6,0.522
				c0.375,0.337,0.719,0.708,1.057,1.083c0.601,0.667-0.504-0.774,0.275,0.375c0.295,0.436,0.541,0.897,0.768,1.37
				c-0.659-1.372-0.137-0.279-0.026,0.1c0.36,1.257-0.043-0.944,0.006-0.168c0.074,1.18,0.248-1.056,0.072-0.359
				c0.241-0.955,0.709-1.33,1.657-2.059c-0.416,0.242-0.166,0.145,0.746-0.295c-0.483,0.111-0.227,0.078,0.775-0.1
				c-0.699,0.039,1.434,0.348,0.174-0.015c-0.672-0.193,1.004,0.534-0.254-0.146c-0.225-0.126-0.443-0.26-0.66-0.4
				c-0.078-0.048-1.199-0.865-0.449-0.279c-2.145-1.678-4.969-2.102-7.069,0c-1.752,1.751-2.152,5.389,0,7.071
				c2.938,2.298,6.229,4.449,10.143,3.511c4.137-0.992,5.188-5.303,4.611-8.938c-0.469-2.951-2.65-5.832-4.754-7.824
				c-3.09-2.927-7.168-4.811-11.353-5.467c-2.69-0.422-5.367,0.646-6.149,3.492C-693.627-93.551-692.172-90.224-689.475-89.801
				L-689.475-89.801z"/>
		</g>
	</g>
</g>
<g>
	<g>
		<g>
			<path d="M213.153,30.027c6.448,0.02,6.446-9.98-0.002-9.999c-28.563-0.09-57.851-5.506-86.021,1.718
				c-13.523,3.467-27.847,11.161-31.07,25.985c-1.373,6.316-0.576,11.435-3.758,17.197c-3.672,6.654-8.639,12.477-13.875,17.949
				c-12.471,13.035-26.486,24.509-40.535,35.785c-5.348,4.293-10.769,8.51-15.996,12.953c-2.798,2.381-6.334,4.971-7.565,8.588
				c-2.086,6.121,7.576,8.725,9.643,2.658c-0.658,1.936,0.528-0.23-0.479,0.938c0.383-0.443,0.782-0.873,1.202-1.282
				c1.222-1.192,2.5-2.323,3.802-3.429c3.938-3.348,7.987-6.562,12.02-9.791c11.039-8.838,22.09-17.696,32.529-27.244
				c11.44-10.463,24.627-22.462,30.295-37.3c2.185-5.718,0.807-12.174,3.373-17.697c2.719-5.854,7.492-9.733,13.297-12.383
				c14.709-6.71,32.435-6.788,48.283-6.542C183.258,28.363,198.189,29.98,213.153,30.027L213.153,30.027z"/>
		</g>
	</g>
	<g>
		<g>
			<path d="M174.499,23.165c0.071-6.451-9.929-6.444-9.999,0c-0.131,11.914-4.668,22.1-8.488,33.149
				c-3.662,10.594-7.082,23.856-4.707,35.063c2.049,9.67,6.57,18.893,10.363,27.963c3.131,7.488,8.425,16.974,8.654,25.004
				c0.182,6.436,10.184,6.451,10,0c-0.259-9.092-5.109-18.325-8.543-26.539c-3.834-9.172-8.606-18.582-10.681-28.362
				c-2.246-10.61,1.98-23.715,5.75-33.758C170.862,44.99,174.372,34.735,174.499,23.165L174.499,23.165z"/>
		</g>
	</g>
	<g>
		<g>
			<path d="M243.349,4.789c-6.401-0.725-6.332,9.283,0.001,10c0.644,0.072-0.553-0.109,0.834,0.121
				c0.719,0.119,1.438,0.244,2.152,0.381c1.525,0.293,3.048,0.605,4.566,0.939c3.872,0.852,7.729,1.774,11.579,2.734
				c9.432,2.354,18.824,4.867,28.193,7.455c8.885,2.454,17.758,4.959,26.594,7.579c2.793,0.829,5.586,1.658,8.363,2.54
				c0.83,0.263,1.66,0.525,2.481,0.814c1.276,0.448,0.287,0.205-0.032-0.034c-0.767-0.996-1.531-1.992-2.3-2.988
				c0.004,0.007,0.007,0.014,0.009,0.021c0.766-1.881,1.532-3.763,2.299-5.646c2.498-0.392,3.284-0.616,2.352-0.675
				c-6.438-0.475-6.391,9.53,0,10c1,0.074,1.82-0.271,2.695-0.69c1.869-0.896,3.029-3.695,2.297-5.646
				c-1.709-4.56-9.291-5.484-13.381-6.705c-8.859-2.646-17.754-5.176-26.666-7.645C278.421,12.646,260.909,6.775,243.349,4.789
				L243.349,4.789z"/>
		</g>
	</g>
	<circle cx="230.611" cy="23.281" r="23.281"/>
	<g>
		<g>
			<path d="M103.778,45.815c-6.305-1.061-9.006,8.574-2.656,9.643c1.724,0.29,3.461,0.509,5.197,0.724
				c29.531,3.65,59.375,5.229,88.813,9.412c2.033,0.289,4.083,0.563,6.091,1.009c0.493,0.11,1.004,0.208,1.478,0.392
				c-1.689-0.657-3.453-2.152-3.168-4.374c0.25-1.928,0.112-0.869,0.022-0.445c-1.26,5.867-2.913,11.663-4.425,17.468
				c-2.209,8.48-4.432,16.958-6.477,25.479c-1.322,5.504-3.178,11.401-3.314,17.104c-0.156,6.452,9.846,6.438,10,0
				c0.037-1.539,0.138-1.681,0.57-3.832c0.525-2.627,1.111-5.241,1.729-7.849c3.522-14.932,7.883-29.667,11.315-44.619
				c0.998-4.347-0.017-7.843-4.763-8.898c-4.813-1.071-9.781-1.565-14.669-2.155c-16.452-1.985-32.959-3.542-49.448-5.173
				c-7.772-0.77-15.545-1.529-23.313-2.348c-2.952-0.312-5.903-0.625-8.85-0.978C105.485,46.085,105.962,46.183,103.778,45.815
				L103.778,45.815z"/>
		</g>
	</g>
	<g>
		<path d="M329.469,9.557c11.443,0.86,19.882,12.69,19.022,24.133c-0.856,11.443-10.971,21.88-22.414,21.021"/>
		<polygon points="552.278,44.922 345.909,29.131 345.452,37.064 		"/>
	</g>
	<g>
		<g>
			<path d="M180.577,140.242c-4.574-4.553-11.647,2.518-7.07,7.07c3.367,3.352,6.846,6.617,11.367,8.313
				c5.051,1.892,10.672,1.933,15.995,1.959c6.451,0.033,6.446-9.967,0-10c-3.975-0.021-9.173,0.412-12.887-1.42
				C185.059,144.718,182.868,142.521,180.577,140.242L180.577,140.242z"/>
		</g>
	</g>
	<g>
		<g>
			<path d="M179.194,148.347c2.158-1.674,1.746-5.325,0-7.068c-2.104-2.107-4.92-1.671-7.069,0
				c-3.041,2.359-6.511,4.363-10.451,4.232c-6.453-0.213-6.432,9.787,0,10C168.409,155.736,174.059,152.333,179.194,148.347
				L179.194,148.347z"/>
		</g>
	</g>
	<g>
		<path d="M16.62,139.171c10.36,3.453,19.341,6.217,28.319,11.742c15.195,9.67,13.123,16.578-3.453,16.578
			c-12.434,0-26.938,0-35.918-10.361c-12.434-14.506-2.071-17.959,11.742-17.959"/>
	</g>
	<g>
		<path d="M190.369,118.949c10.854,1.196,20.214,2.008,30.154,5.521c16.889,6.259,16.316,13.447,0.109,16.934
			c-12.154,2.615-26.335,5.666-37.292-2.574c-15.205-11.566-5.803-17.121,7.703-20.027"/>
	</g>
	<g>
		<g>
			<path d="M334.299,31.693c2.697-0.422,4.151-3.75,3.49-6.151c-0.783-2.847-3.459-3.914-6.15-3.492
				c-4.184,0.656-8.262,2.54-11.353,5.467c-2.104,1.992-4.284,4.873-4.754,7.824c-0.576,3.635,0.475,7.946,4.611,8.938
				c3.913,0.938,7.205-1.213,10.143-3.511c2.152-1.682,1.753-5.32,0-7.071c-2.101-2.103-4.925-1.678-7.069,0
				c0.75-0.586-0.371,0.23-0.449,0.279c-0.217,0.14-0.435,0.274-0.66,0.4c-1.258,0.68,0.418-0.047-0.254,0.146
				c-1.26,0.363,0.873,0.054,0.174,0.015c1.002,0.178,1.259,0.211,0.775,0.1c0.912,0.44,1.162,0.537,0.746,0.295
				c0.949,0.729,1.416,1.104,1.658,2.06c-0.177-0.697-0.003,1.539,0.071,0.359c0.049-0.776-0.354,1.425,0.006,0.168
				c0.11-0.379,0.634-1.472-0.026-0.1c0.227-0.473,0.473-0.935,0.768-1.37c0.779-1.15-0.325,0.292,0.275-0.375
				c0.338-0.375,0.682-0.746,1.057-1.083c0.196-0.179,0.396-0.354,0.601-0.523c-0.48,0.357-0.49,0.368-0.027,0.031
				c0.479-0.326,0.965-0.646,1.477-0.918c0.173-0.091,1.795-0.791,0.912-0.469C331.618,32.236,332.934,31.908,334.299,31.693
				L334.299,31.693z"/>
		</g>
	</g>
</g>
<g>
	<circle cx="-1018.062" cy="51.175" r="20.285"/>
	<g>
		<path d="M-852.171,124.192c8.865,4.623,11.555,16.997,6.933,25.862c-4.623,8.867-16.309,13.744-25.174,9.123"/>
		<polygon points="-845.938,146.16 -849.245,152.244 -689.224,235.392 		"/>
	</g>
	<g>
		<path d="M-935.173,301.496c-11.239-4.307-18.593-10.347-3.956-18.271c10.536-5.633,22.338-1.109,32.455,2.768
			c13.488,5.166,13.02,11.434-2.358,14.563c-9.029,1.697-17.197,1.146-26.703,0.727"/>
	</g>
	<g>
		<path d="M-1097.474,299.316c11.239-4.307,18.593-10.346,3.956-18.271c-10.537-5.631-22.338-1.108-32.455,2.767
			c-13.487,5.167-13.021,11.435,2.358,14.563c9.029,1.699,17.196,1.146,26.703,0.728"/>
	</g>
	<g>
		<g>
			<path d="M-1024.12,70.972c5.195,40.209,10.332,81.434,1.484,121.52c-1.387,6.284,8.254,8.955,9.644,2.658
				c9.063-41.068,4.196-82.964-1.128-124.178C-1014.934,64.669-1024.944,64.589-1024.12,70.972L-1024.12,70.972z"/>
		</g>
	</g>
	<g>
		<g>
			<path d="M-1014.908,96.466c-47.123-0.024-101.93-2.719-130.82-45.963c-3.563-5.333-12.229-0.333-8.635,5.047
				c14.75,22.079,36.559,36.129,61.885,43.311c25.073,7.109,51.696,7.594,77.57,7.607
				C-1008.459,106.47-1008.459,96.47-1014.908,96.466L-1014.908,96.466z"/>
		</g>
	</g>
	<g>
		<g>
			<path d="M-1016.528,104.544c22.938,7.967,39.199,28.002,62.402,35.736c13.308,4.436,28.263,5.344,42.174,5.99
				c14.797,0.688,29.626,0.287,44.432,0.271c6.448-0.006,6.449-10.006,0-10c-27.977,0.029-58.428,2.6-85.393-6.387
				c-22.515-7.504-38.417-27.427-60.957-35.254C-1019.978,92.781-1022.58,102.445-1016.528,104.544L-1016.528,104.544z"/>
		</g>
	</g>
	<g>
		<g>
			<path d="M-1022.232,190.335c-0.118,8.293-5.694,14.025-12.227,18.502c-9.014,6.179-19.186,10.559-28.699,15.881
				c-10.05,5.623-19.78,12.361-26.999,21.451c-8.683,10.933-12.496,24.188-12.61,38.043c-0.053,6.451,9.947,6.445,10,0
				c0.106-12.865,3.913-24.813,12.621-34.438c7.804-8.625,18.14-14.443,28.306-19.824c16.318-8.641,39.3-17.885,39.608-39.615
				C-1012.14,183.882-1022.141,183.892-1022.232,190.335L-1022.232,190.335z"/>
		</g>
	</g>
	<g>
		<g>
			<path d="M-1022.232,189.173c0.279,22.398,20.985,32.353,38.153,41.609c9.74,5.252,19.325,10.887,26.906,19.08
				c8.852,9.566,12.302,22.133,12.402,34.932c0.052,6.445,10.052,6.451,10,0c-0.105-13.479-3.434-26.688-11.66-37.547
				c-7.009-9.254-16.52-15.977-26.492-21.715c-14.49-8.34-39.06-16.23-39.311-36.359
				C-1012.313,182.73-1022.313,182.722-1022.232,189.173L-1022.232,189.173z"/>
		</g>
	</g>
	<g>
		<g>
			<g>
				<path d="M-1143.594,52.445c-0.06-4.841-1.446-10.922,1.061-15.338c3.188-5.616-5.452-10.653-8.635-5.047
					c-3.587,6.318-2.513,13.452-2.426,20.385C-1153.513,58.889-1143.513,58.897-1143.594,52.445L-1143.594,52.445z"/>
			</g>
		</g>
		<g>
			<g>
				<path d="M-1146.365,49.781c-4.062-4.289-6.851-9.24-12.1-12.281c-5.516-3.195-11.53-1.818-17.365-3.275
					c-6.258-1.563-8.912,8.081-2.658,9.643c4.887,1.221,10.364,0.163,14.976,2.268c4.354,1.986,6.896,7.358,10.076,10.718
					C-1148.995,61.543-1141.935,54.459-1146.365,49.781L-1146.365,49.781z"/>
			</g>
		</g>
	</g>
	<ellipse cx="-860.408" cy="140.811" rx="9.802" ry="8.496"/>
</g>
<g>
	<circle cx="-1051.062" cy="394.842" r="20.285"/>
	<g>
		<path d="M-971,660.056c-8.524-8.496-12.792-17,3.801-18.303c11.915-0.871,20.865,8.053,28.538,15.701
			c10.229,10.197,7.258,15.732-8.066,12.354c-8.94-2.113-16.182-5.934-24.698-10.176"/>
	</g>
	<g>
		<path d="M-1067.95,666.333c-11.036-4.803-18.112-11.164-3.137-18.43c10.776-5.156,22.365-0.111,32.299,4.211
			c13.245,5.764,12.498,12.002-3.005,14.443c-9.097,1.295-17.23,0.379-26.708-0.465"/>
	</g>
	<g>
		<g>
			<path d="M-1056.12,406.972c5.001,38.508,11.006,77.172,2.514,115.66c-1.387,6.285,8.253,8.955,9.644,2.658
				c8.713-39.492,2.978-78.791-2.157-118.318C-1046.938,400.669-1056.948,400.589-1056.12,406.972L-1056.12,406.972z"/>
		</g>
	</g>
	<g>
		<g>
			<path d="M-1052.778,423.474c-13.792,2.154-27.766,3.098-41.587,5.084c-6.895,0.99-13.817,2.143-20.514,4.088
				c-4.37,1.271-9.926,3.162-12.223,7.459c-1.057,1.979-0.866,4.443,0.782,6.059c10.589,10.383,24.36,18.025,36.97,25.623
				c11.832,7.129,23.839,14.018,36.042,20.494c-0.598-2.281-1.196-4.563-1.794-6.842c-1.44,2.859-2.349,5.854-3.215,8.926
				c-0.376,1.334-0.759,2.604-1.452,3.805c-0.417,0.313-0.181,0.229,0.707-0.252c-0.957,0.121-2.066-0.549-2.866-0.939
				c-5.769-2.818-10.84,5.805-5.047,8.637c4.892,2.391,10.438,3.658,14.614-0.771c3.652-3.875,3.594-9.793,5.895-14.355
				c1.186-2.354,0.72-5.508-1.794-6.842c-11.833-6.277-23.462-12.971-34.958-19.842c-12.244-7.316-25.769-14.648-36.03-24.709
				c0.26,2.02,0.521,4.039,0.782,6.059c0.277-0.521-0.44,0.279,0.542-0.586c-0.297,0.262,1.481-0.756,1.915-0.965
				c1.979-0.947,4.246-1.467,6.359-2.023c6.644-1.752,13.495-2.754,20.289-3.709c13.046-1.832,26.224-2.717,39.241-4.752
				C-1043.764,432.125-1046.472,422.49-1052.778,423.474L-1052.778,423.474z"/>
		</g>
	</g>
	<g>
		<g>
			<path d="M-1046.116,433.294c41.889,0,83.777,0,125.666,0c6.449,0,6.449-10,0-10c-41.889,0-83.777,0-125.666,0
				C-1052.565,423.294-1052.565,433.294-1046.116,433.294L-1046.116,433.294z"/>
		</g>
	</g>
	<g>
		<g>
			<path d="M-1054.979,524.753c-5.4,7.371-7.292,17.576-9.014,26.338c-2.586,13.15-4.003,26.555-5.106,39.902
				c-1.078,13.037-1.705,26.119-1.916,39.199c-0.134,8.355-0.385,16.928,0.863,25.219c0.957,6.359,10.591,3.646,9.643-2.658
				c0.1,0.654-0.125-1.299-0.202-2.389c-0.129-1.789-0.192-3.584-0.247-5.377c-0.143-4.617-0.125-9.238-0.068-13.855
				c0.154-12.617,0.782-25.234,1.744-37.814c0.988-12.922,2.369-25.842,4.746-38.588c1.538-8.248,3.105-17.986,8.193-24.93
				C-1042.526,524.591-1051.21,519.611-1054.979,524.753L-1054.979,524.753z"/>
		</g>
	</g>
	<g>
		<g>
			<path d="M-1053.1,531.152c3.896,8.49,9.668,16.258,14.965,23.898c8.448,12.189,17.239,24.141,26.018,36.092
				c8.905,12.123,17.864,24.207,26.65,36.418c5.905,8.207,12.074,16.428,17.032,25.258c3.156,5.623,11.795,0.584,8.636-5.047
				c-4.792-8.537-10.737-16.48-16.433-24.422c-8.729-12.176-17.659-24.205-26.532-36.275c-8.823-12.006-17.639-24.021-26.161-36.242
				c-5.504-7.893-11.511-15.941-15.54-24.727C-1047.151,520.25-1055.769,525.333-1053.1,531.152L-1053.1,531.152z"/>
		</g>
	</g>
	<path d="M-878.12,411.507h-26.564c-0.375,0-9.127-0.033-9.127-0.033c-2.745,0-4.319,4.238-5.306,4.238
		c-1.585,0.25-4.889,1.334-4.923,4.004v13.883c-0.935,5.74,2.149,4.74,4.472,4.74s5.34,0.533,3.938-4.74v-8.777
		c0.839,0.363,1.764,0.568,2.735,0.568h5.74c3.797,0,6.875-3.078,6.875-6.874c0-1.079-0.256-2.097-0.698-3.005h22.857
		c1.106,0,2.004-0.895,2.004-2.002C-876.116,412.404-877.013,411.507-878.12,411.507z"/>
	
		<rect x="-919.701" y="413.018" transform="matrix(0.8304 -0.5572 0.5572 0.8304 -387.0258 -441.6426)" width="1.691" height="3.604"/>
	<path fill="none" stroke="#000000" stroke-width="2" stroke-miterlimit="10" d="M-908.405,425.691c0,2.17-0.357,3.703-2.528,3.703
		h-4.681c-2.17,0-2.303-1.76-2.303-3.93l0,0c0-2.17,1.759-3.93,3.93-3.93h3.054C-908.763,421.537-908.405,425.691-908.405,425.691z"
		/>
	<g>
		<g>
			<path d="M-917.532,425.656c-0.412-0.426-0.093-0.121,0.008,0.074c0.09,0.174,0.161,0.359,0.238,0.539
				c0.22,0.512,0.524,0.932,0.896,1.35c0.649,0.729,1.541,1.311,2.417,1.732c1.228,0.594,2.692,0.348,3.42-0.896
				c0.647-1.105,0.33-2.826-0.896-3.42c-0.319-0.154-0.625-0.324-0.924-0.518c-0.585-0.375,0.351,0.32-0.175-0.135
				c-0.102-0.086-0.476-0.59-0.16-0.111c-0.486-0.738-0.644-1.482-1.289-2.15c-0.947-0.979-2.584-0.951-3.535,0
				C-918.507,423.095-918.479,424.677-917.532,425.656L-917.532,425.656z"/>
		</g>
	</g>
	<polygon points="-879.474,411.774 -878.095,409.384 -878.069,411.774 	"/>
	<path d="M-920.603,412.55c-0.912,1.125-2.463,1.088-3.572,1.604c0.075,0.072,3.778,1.035,4.965-0.431
		c1.185-1.466,0.933-4.108,0.88-4.147C-918.769,410.091-919.721,411.46-920.603,412.55z"/>
	<path d="M-827.644,406.897c-0.051,0-0.101,0.003-0.149,0.003c0.012-0.087,0.02-0.176,0.02-0.266c0-1.881-2.641-3.407-5.897-3.407
		c-1.146,0-2.218,0.188-3.121,0.519c-1.129-2.57-4.73-4.449-9.003-4.449c-4.826,0-8.8,2.397-9.313,5.48
		c-1.792,0.287-3.241,1.143-3.887,2.264c-3.682,0.605-6.401,2.746-6.401,5.297c0,3.02,3.817,5.467,8.526,5.467
		c0.002,0,0.005,0,0.006,0c-0.002,0.078-0.006,0.156-0.006,0.234c0,4.561,3.844,8.258,8.585,8.258c2.82,0,5.323-1.309,6.889-3.33
		c0.919,0.615,1.991,0.971,3.14,0.971c3.372,0,6.11-3.059,6.156-6.852c1.207,0.84,2.763,1.346,4.459,1.346
		c3.836,0,6.946-2.58,6.946-5.766C-820.696,409.479-823.808,406.897-827.644,406.897z"/>
</g>
</svg>
