<?xml version="1.0" encoding="utf-8"?>
<!-- Generator: Adobe Illustrator 16.0.0, SVG Export Plug-In . SVG Version: 6.00 Build 0)  -->
<!DOCTYPE svg PUBLIC "-//W3C//DTD SVG 1.1//EN" "http://www.w3.org/Graphics/SVG/1.1/DTD/svg11.dtd">
<svg version="1.1" id="Layer_1" xmlns="http://www.w3.org/2000/svg" xmlns:xlink="http://www.w3.org/1999/xlink" x="0px" y="0px"
	 width="569px" height="283.096px" viewBox="0 0 569 283.096" enable-background="new 0 0 569 283.096" xml:space="preserve">
<rect x="0.584" y="0.399" fill-rule="evenodd" clip-rule="evenodd" fill="#0041A8" width="140.03" height="140.029"/>
<rect x="286.106" y="0.303" fill="#FC0606" width="140.03" height="140.029"/>
<rect x="428.887" fill="#FCFF06" width="140.029" height="140.029"/>
<path fill-rule="evenodd" clip-rule="evenodd" d="M506.346,117.423c-1.107,2.817-1.582,3.03-4.757,1.703
	c-2.001,3.026-3.154,3.032-5.157,0.023c-3.174,1.287-3.695,1.051-4.599-1.315c-1.804-0.423-3.063-0.695-4.308-1.018
	c-0.917-0.237-1.813-0.758-2.726-0.775c-4.403-0.084-8.812,0.018-13.216-0.057c-7.159-0.119-12.516-5.604-12.219-12.762
	c0.094-2.238-0.414-3.82-2.104-5.2c-1.08-0.882-2.021-1.941-2.988-2.954c-5.775-6.053-3.73-14.528,4.162-17.275
	c0.458-0.158,0.92-0.308,2.11-0.705c-0.901-1.395-1.548-2.676-2.455-3.734c-1.415-1.648-1.273-7.396,0.156-9.045
	c0.741-0.857,1.134-2.063,1.515-3.168c0.286-0.835-0.006-2.032,0.492-2.604c2.986-3.422,5.082-7.93,10.704-8.078
	c11.696-0.309,23.388-1.18,35.079-1.164c7.971,0.01,15.943,1.102,23.909,1.786c1.598,0.138,3.253,0.468,3.247,2.729
	c0,0.335,0.545,0.799,0.939,0.979c3.029,1.384,4.182,3.832,4.154,7.019c-0.005,0.578-0.016,1.502,0.307,1.686
	c2.835,1.621,2.133,4.328,2,6.709c-0.067,1.224-0.994,2.395-1.513,3.598c-0.446,1.037-0.864,2.086-1.31,3.167
	c1.801,0.843,3.424,1.378,4.799,2.29c4.889,3.243,5.916,9.868,2.303,14.508c-0.855,1.1-1.859,2.104-2.896,3.039
	c-2.476,2.234-4.091,4.501-4.23,8.293c-0.232,6.292-5.799,10.791-12.201,10.893c-3.604,0.059-7.217-0.131-10.809,0.078
	c-1.648,0.096-3.236,0.99-4.893,1.315C508.785,117.592,507.652,117.423,506.346,117.423z M531.412,79.018
	c3.506-3.871,3.447-15.343,0.304-17.876c-0.41,1.485-0.97,2.897-1.167,4.36c-0.318,2.361-1.578,2.806-3.738,2.569
	c-7.1-0.774-13.364-3.307-18.457-8.402c-7.43-7.435-11.1-7.415-18.532-0.004c-5.335,5.318-11.927,7.865-19.368,8.462
	c-1.73,0.139-2.551-0.441-2.859-2.186c-0.297-1.68-0.926-3.299-1.513-5.299c-3.034,4.777-2.749,15.222,0.262,17.919
	c0.474-1.792,0.794-3.58,1.456-5.231c0.282-0.699,1.268-1.564,1.959-1.59c7.489-0.266,13.33-3.805,18.428-8.941
	c1.764-1.777,3.465-3.629,5.363-5.251c3.764-3.212,7.311-3.216,11.057,0.016c2.117,1.827,4.007,3.915,6.007,5.88
	c3.552,3.489,7.503,6.725,12.464,7.371C528.07,71.465,531.839,72.574,531.412,79.018z M469.66,65.404
	c7.174,0.712,18.759-5.225,19.651-10.223c-6.599,0-13.146-0.07-19.687,0.11c-0.63,0.018-1.816,1.66-1.718,2.413
	C468.254,60.331,469.053,62.898,469.66,65.404z M528.272,65.742c0.567-2.4,1.076-4.51,1.562-6.625
	c0.781-3.404,0.389-3.955-2.993-3.977c-5.28-0.029-10.562-0.021-15.841,0.008c-0.82,0.004-1.639,0.196-2.457,0.303
	c-0.082,0.32-0.164,0.64-0.246,0.96C513.656,61.785,519.896,65.414,528.272,65.742z M479.953,107.566
	c-0.473,0.021-0.943,0.043-1.414,0.066c-0.738,1.195-2.206,2.525-2.016,3.551c0.21,1.135,1.936,1.99,3.002,2.968
	c0.959-1.067,2.57-2.073,2.682-3.224C482.309,109.891,480.77,108.693,479.953,107.566z M520.838,111.68
	c-0.016-0.428-0.086-0.973-0.101-1.401c-1.202-0.743-1.142-2.167-2.215-2.013c-1.088,0.156-2.749,1.943-2.688,2.924
	c0.064,1.041,1.814,2.687,2.91,2.756C519.825,114.014,519.699,112.535,520.838,111.68z M506.443,76.236
	c-1.359,3.873-0.75,4.877,3.813,6.469C511.381,79.126,508.781,77.803,506.443,76.236z M491.81,76.455
	c-3.854,1.682-4.525,2.747-3.938,6.262C492.451,80.918,492.732,80.473,491.81,76.455z M496.637,73.998
	c-3.598,0.895-3.831,1.416-2.791,5.896c0.925-0.251,1.842-0.499,2.791-0.757C496.637,77.387,496.637,75.828,496.637,73.998z
	 M504.213,79.816c0.913-4.617,0.725-5.016-2.769-5.771c0,1.676,0,3.32,0,5.134C502.383,79.395,503.296,79.605,504.213,79.816z
	 M467.193,88.154c0.098,0.1,0.196,0.201,0.294,0.303c-2.077,1.833-4.153,3.664-6.229,5.498c-0.021-0.039-0.045-0.077-0.068-0.115
	C463.19,91.944,465.191,90.049,467.193,88.154z M530.559,88.412c0.077-0.078,0.154-0.158,0.231-0.236
	c1.983,1.912,3.967,3.826,5.95,5.738c-0.059,0.072-0.116,0.145-0.175,0.218C534.563,92.225,532.561,90.319,530.559,88.412z
	 M465.385,86.884c-0.221-0.212-0.442-0.423-0.663-0.636c-1.741,1.813-3.481,3.623-5.222,5.434c0.215,0.202,0.428,0.402,0.643,0.604
	C461.89,90.486,463.637,88.686,465.385,86.884z M538.282,91.838c-0.069,0.079-0.138,0.158-0.207,0.236
	c-1.849-1.697-3.698-3.393-5.546-5.088c0.125-0.135,0.25-0.27,0.375-0.404C534.696,88.334,536.49,90.086,538.282,91.838z
	 M460.209,83.486c-0.279-0.363-0.559-0.726-0.836-1.088c-1.262,1.246-2.521,2.494-3.781,3.74c0.283,0.298,0.566,0.596,0.849,0.895
	C457.696,85.851,458.952,84.669,460.209,83.486z M538.742,82.27c-0.34,0.357-0.68,0.716-1.02,1.072
	c1.293,1.23,2.588,2.463,3.883,3.693c0.313-0.326,0.626-0.652,0.939-0.979C541.277,84.795,540.01,83.532,538.742,82.27z"/>
<path fill-rule="evenodd" clip-rule="evenodd" d="M532.168,47.452c-22.182-3.149-44.361-3.073-66.549-0.054
	c-0.158-13.973,16.742-28.243,33.67-28.122C515.816,19.396,532.525,33.908,532.168,47.452z"/>
<path fill-rule="evenodd" clip-rule="evenodd" d="M390.39,45.551c-22.183-3.148-44.36-3.071-66.55-0.053
	c-0.158-13.973,16.743-28.244,33.67-28.121C374.037,17.495,390.746,32.008,390.39,45.551z"/>
<path fill-rule="evenodd" clip-rule="evenodd" d="M400.791,77.357c-1.374-0.911-2.998-1.447-4.797-2.291
	c0.444-1.08,0.861-2.129,1.309-3.167c0.518-1.202,1.445-2.372,1.512-3.596c0.133-2.38,0.836-5.089-1.998-6.708
	c-0.324-0.185-0.313-1.109-0.309-1.688c0.027-3.188-1.125-5.635-4.152-7.018c-0.395-0.182-0.941-0.646-0.939-0.979
	c0.004-2.263-1.65-2.593-3.248-2.73c-7.966-0.685-15.938-1.776-23.909-1.786c-11.692-0.016-23.382,0.855-35.079,1.165
	c-5.621,0.147-7.717,4.655-10.704,8.079c-0.497,0.57-0.206,1.768-0.493,2.603c-0.38,1.104-0.771,2.312-1.514,3.165
	c-1.43,1.65-1.57,7.4-0.156,9.047c0.907,1.058,1.555,2.34,2.455,3.734c-1.191,0.397-1.652,0.547-2.109,0.705
	c-7.893,2.747-9.939,11.223-4.162,17.275c0.967,1.013,1.907,2.071,2.988,2.954c1.689,1.38,2.195,2.963,2.104,5.2
	c-0.299,7.158,5.059,12.641,12.219,12.763c4.404,0.074,8.811-0.028,13.215,0.057c0.912,0.018,1.809,0.537,2.725,0.774
	c1.246,0.321,2.506,0.595,4.309,1.018c0.904,2.366,1.424,2.603,4.598,1.316c2.004,3.008,3.158,3.002,5.158-0.024
	c3.175,1.326,3.65,1.114,4.757-1.703c1.307,0,2.439,0.169,3.497-0.04c1.656-0.326,3.244-1.219,4.893-1.314
	c3.592-0.209,7.207-0.02,10.811-0.077c6.401-0.104,11.968-4.601,12.199-10.894c0.141-3.791,1.756-6.057,4.23-8.292
	c1.039-0.937,2.042-1.939,2.897-3.041C406.708,87.227,405.682,80.601,400.791,77.357z M366.764,53.551
	c0.819-0.105,1.639-0.299,2.458-0.303c5.279-0.027,10.561-0.037,15.84-0.008c3.382,0.021,3.774,0.572,2.993,3.977
	c-0.484,2.115-0.994,4.224-1.561,6.626c-8.377-0.329-14.617-3.958-19.977-9.332C366.6,54.19,366.682,53.871,366.764,53.551z
	 M327.848,53.391c6.541-0.18,13.087-0.109,19.686-0.109c-0.893,4.999-12.479,10.935-19.652,10.223
	c-0.607-2.506-1.404-5.072-1.752-7.698C326.031,55.052,327.217,53.408,327.848,53.391z M314.662,85.131
	c-0.283-0.297-0.566-0.594-0.848-0.893c1.26-1.246,2.52-2.494,3.779-3.74c0.279,0.362,0.558,0.725,0.836,1.088
	C317.174,82.768,315.918,83.951,314.662,85.131z M317.722,89.781c1.741-1.812,3.481-3.621,5.222-5.432
	c0.221,0.211,0.441,0.421,0.662,0.635c-1.747,1.801-3.494,3.602-5.242,5.402C318.149,90.184,317.936,89.982,317.722,89.781z
	 M319.479,92.055c-0.022-0.039-0.046-0.077-0.069-0.116c2.002-1.895,4.004-3.79,6.004-5.685c0.099,0.101,0.197,0.201,0.295,0.303
	C323.633,88.389,321.556,90.222,319.479,92.055z M340.429,109.027c-0.112,1.151-1.724,2.156-2.683,3.225
	c-1.065-0.979-2.791-1.832-3.002-2.969c-0.189-1.023,1.279-2.354,2.016-3.551c0.473-0.023,0.943-0.045,1.414-0.066
	C338.99,106.793,340.529,107.991,340.429,109.027z M346.092,80.815c-0.586-3.515,0.086-4.581,3.939-6.263
	C350.953,78.571,350.674,79.018,346.092,80.815z M354.859,77.236c-0.949,0.259-1.867,0.506-2.792,0.758
	c-1.04-4.48-0.808-5.001,2.792-5.895C354.859,73.928,354.859,75.486,354.859,77.236z M362.435,77.916
	c-0.917-0.211-1.829-0.423-2.769-0.639c0-1.813,0-3.455,0-5.133C363.158,72.9,363.348,73.299,362.435,77.916z M368.479,80.804
	L368.479,80.804c-0.001,0-0.001,0.001-0.001,0.002c-3.707-1.294-4.805-2.199-4.357-4.571c0.104-0.547,0.289-1.174,0.544-1.898
	c0.292,0.195,0.589,0.388,0.882,0.58C367.595,76.268,369.461,77.672,368.479,80.804z M377.002,112.156
	c-0.982,0.061-2.769-1.6-2.926-2.689c-0.004-0.025-0.002-0.053-0.004-0.08c-0.006-0.031-0.014-0.066-0.016-0.096
	c-0.02-0.324,0.148-0.735,0.421-1.146c0.452-0.739,1.171-1.518,1.628-2.254c0.43-0.018,0.859-0.032,1.288-0.048
	c0.854,1.14,2.431,2.321,2.362,3.403C379.688,110.342,378.043,112.092,377.002,112.156z M381.297,68.914
	c-4.96-0.646-8.91-3.883-12.463-7.371c-2-1.965-3.891-4.053-6.007-5.879c-3.745-3.234-7.294-3.229-11.057-0.016
	c-1.897,1.621-3.601,3.474-5.363,5.25c-5.097,5.137-10.938,8.676-18.427,8.943c-0.693,0.023-1.678,0.887-1.959,1.589
	c-0.664,1.649-0.982,3.438-1.457,5.229c-3.012-2.695-3.297-13.143-0.262-17.918c0.586,1.998,1.216,3.619,1.513,5.299
	c0.31,1.745,1.128,2.324,2.86,2.186c7.439-0.596,14.032-3.144,19.367-8.461c7.434-7.412,11.103-7.431,18.531,0.002
	c5.094,5.098,11.357,7.629,18.457,8.404c2.16,0.235,3.42-0.209,3.738-2.569c0.199-1.464,0.758-2.876,1.168-4.361
	c3.144,2.532,3.202,14.005-0.304,17.876C390.06,70.672,386.292,69.564,381.297,68.914z M394.787,92.231
	c-2.004-1.905-4.004-3.813-6.007-5.72c0.077-0.077,0.153-0.157,0.231-0.236c1.984,1.912,3.967,3.824,5.949,5.738
	C394.902,92.086,394.846,92.158,394.787,92.231z M396.297,90.174c-1.85-1.697-3.698-3.393-5.547-5.088
	c0.125-0.135,0.25-0.27,0.376-0.405c1.792,1.754,3.585,3.505,5.378,5.259C396.435,90.016,396.365,90.094,396.297,90.174z
	 M399.826,85.135c-1.294-1.23-2.588-2.463-3.883-3.693c0.34-0.357,0.68-0.715,1.021-1.072c1.266,1.263,2.533,2.525,3.801,3.787
	C400.453,84.482,400.139,84.811,399.826,85.135z"/>
<rect x="143.473" y="0.353" fill="#007300" width="140.029" height="140.03"/>
<path fill-rule="evenodd" clip-rule="evenodd" d="M247.756,45.602c-22.182-3.148-44.361-3.071-66.55-0.053
	c-0.158-13.975,16.743-28.244,33.669-28.123C231.404,17.546,248.113,32.059,247.756,45.602z"/>
<path fill-rule="evenodd" clip-rule="evenodd" d="M258.158,77.408c-1.375-0.91-2.999-1.447-4.798-2.291
	c0.445-1.08,0.862-2.13,1.309-3.167c0.518-1.204,1.446-2.374,1.513-3.597c0.132-2.381,0.835-5.088-1.999-6.708
	c-0.324-0.184-0.313-1.108-0.308-1.687c0.028-3.188-1.125-5.635-4.153-7.02c-0.395-0.18-0.94-0.645-0.939-0.978
	c0.004-2.262-1.65-2.593-3.248-2.73c-7.965-0.685-15.938-1.775-23.909-1.788c-11.692-0.016-23.383,0.857-35.079,1.167
	c-5.621,0.147-7.717,4.655-10.704,8.078c-0.498,0.57-0.206,1.769-0.493,2.603c-0.38,1.105-0.772,2.312-1.514,3.167
	c-1.43,1.648-1.571,7.397-0.157,9.046c0.908,1.058,1.554,2.34,2.455,3.733c-1.19,0.397-1.652,0.548-2.11,0.706
	c-7.893,2.748-9.938,11.223-4.162,17.275c0.967,1.014,1.908,2.071,2.989,2.953c1.689,1.381,2.196,2.964,2.103,5.2
	c-0.297,7.16,5.059,12.642,12.219,12.764c4.405,0.075,8.812-0.029,13.215,0.056c0.912,0.02,1.809,0.538,2.726,0.775
	c1.246,0.321,2.504,0.594,4.308,1.018c0.903,2.365,1.424,2.603,4.598,1.314c2.003,3.01,3.156,3.004,5.157-0.023
	c3.175,1.327,3.65,1.115,4.757-1.703c1.307,0,2.439,0.17,3.498-0.039c1.656-0.325,3.243-1.219,4.893-1.314
	c3.592-0.209,7.206-0.02,10.81-0.077c6.401-0.104,11.968-4.601,12.2-10.894c0.14-3.792,1.755-6.057,4.23-8.293
	c1.038-0.936,2.042-1.939,2.897-3.04C264.074,87.277,263.047,80.65,258.158,77.408z M224.13,53.601
	c0.819-0.104,1.638-0.298,2.458-0.302c5.28-0.027,10.56-0.037,15.84-0.008c3.382,0.021,3.775,0.572,2.994,3.977
	c-0.486,2.115-0.995,4.225-1.562,6.625c-8.376-0.327-14.617-3.957-19.976-9.332C223.966,54.241,224.048,53.922,224.13,53.601z
	 M185.213,53.441c6.541-0.18,13.087-0.11,19.686-0.11c-0.893,4.999-12.478,10.937-19.652,10.224
	c-0.607-2.507-1.405-5.072-1.752-7.698C183.396,55.102,184.583,53.459,185.213,53.441z M172.028,85.182
	c-0.283-0.297-0.566-0.596-0.848-0.893c1.26-1.247,2.52-2.494,3.78-3.74c0.278,0.363,0.558,0.725,0.836,1.088
	C174.54,82.818,173.284,84,172.028,85.182z M175.088,89.832c1.74-1.812,3.48-3.621,5.221-5.432c0.221,0.209,0.442,0.422,0.663,0.634
	c-1.747,1.802-3.495,3.602-5.242,5.401C175.516,90.234,175.302,90.033,175.088,89.832z M176.845,92.105
	c-0.022-0.039-0.046-0.078-0.069-0.115c2.001-1.896,4.003-3.791,6.004-5.687c0.098,0.102,0.196,0.202,0.294,0.304
	C180.998,88.439,178.922,90.272,176.845,92.105z M197.794,109.079c-0.111,1.15-1.723,2.153-2.682,3.222
	c-1.066-0.977-2.792-1.831-3.002-2.967c-0.19-1.024,1.279-2.355,2.016-3.552c0.472-0.021,0.943-0.044,1.414-0.067
	C196.356,106.844,197.896,108.041,197.794,109.079z M203.458,80.866c-0.587-3.515,0.084-4.581,3.938-6.263
	C208.319,78.622,208.039,79.068,203.458,80.866z M212.225,77.287c-0.949,0.259-1.867,0.506-2.791,0.757
	c-1.04-4.48-0.808-5.001,2.791-5.895C212.225,73.979,212.225,75.537,212.225,77.287z M219.801,77.967
	c-0.917-0.211-1.83-0.423-2.769-0.639c0-1.813,0-3.456,0-5.133C220.525,72.949,220.713,73.35,219.801,77.967z M225.846,80.854
	L225.846,80.854c-0.001,0-0.001,0-0.001,0.001c-3.707-1.293-4.805-2.199-4.357-4.57c0.104-0.549,0.289-1.174,0.543-1.899
	c0.292,0.196,0.589,0.388,0.881,0.581C224.96,76.319,226.828,77.723,225.846,80.854z M234.367,112.206
	c-0.981,0.062-2.768-1.599-2.925-2.688c-0.003-0.025-0.002-0.054-0.004-0.08c-0.005-0.032-0.014-0.066-0.016-0.096
	c-0.02-0.326,0.149-0.735,0.421-1.148c0.452-0.737,1.172-1.516,1.628-2.254c0.43-0.016,0.859-0.031,1.288-0.045
	c0.854,1.139,2.431,2.32,2.363,3.402C237.052,110.393,235.408,112.142,234.367,112.206z M238.663,68.965
	c-4.96-0.646-8.911-3.883-12.463-7.373c-2-1.963-3.89-4.052-6.007-5.879c-3.746-3.231-7.294-3.226-11.056-0.014
	c-1.898,1.621-3.601,3.473-5.363,5.25c-5.098,5.137-10.939,8.676-18.427,8.941c-0.692,0.025-1.678,0.89-1.959,1.592
	c-0.663,1.648-0.982,3.438-1.457,5.229c-3.011-2.697-3.296-13.142-0.262-17.918c0.587,1.999,1.216,3.619,1.513,5.299
	c0.309,1.744,1.128,2.323,2.859,2.186c7.441-0.598,14.033-3.143,19.368-8.462c7.433-7.411,11.103-7.431,18.532,0.003
	c5.093,5.098,11.357,7.627,18.457,8.404c2.161,0.236,3.42-0.209,3.739-2.57c0.197-1.463,0.757-2.876,1.167-4.359
	c3.144,2.531,3.203,14.004-0.304,17.875C247.426,70.723,243.658,69.615,238.663,68.965z M252.153,92.281
	c-2.002-1.906-4.004-3.813-6.007-5.719c0.077-0.078,0.154-0.157,0.231-0.237c1.983,1.913,3.967,3.825,5.95,5.739
	C252.269,92.137,252.211,92.209,252.153,92.281z M253.663,90.224c-1.849-1.695-3.698-3.392-5.546-5.087
	c0.125-0.135,0.25-0.27,0.376-0.405c1.792,1.753,3.584,3.505,5.377,5.259C253.8,90.066,253.731,90.145,253.663,90.224z
	 M257.192,85.186c-1.294-1.23-2.588-2.463-3.883-3.693c0.34-0.357,0.68-0.715,1.021-1.072c1.267,1.262,2.534,2.525,3.802,3.786
	C257.819,84.533,257.505,84.859,257.192,85.186z"/>
<path fill-rule="evenodd" clip-rule="evenodd" d="M104.868,45.648c-22.183-3.148-44.362-3.071-66.55-0.051
	c-0.158-13.975,16.744-28.246,33.67-28.123C88.516,17.593,105.225,32.107,104.868,45.648z"/>
<path fill-rule="evenodd" clip-rule="evenodd" d="M115.27,77.456c-1.375-0.913-2.999-1.448-4.798-2.292
	c0.445-1.08,0.862-2.129,1.309-3.167c0.519-1.203,1.446-2.374,1.513-3.597c0.132-2.379,0.834-5.088-2-6.707
	c-0.324-0.184-0.312-1.109-0.308-1.688c0.028-3.188-1.125-5.633-4.153-7.018c-0.395-0.182-0.94-0.646-0.939-0.979
	c0.004-2.262-1.65-2.593-3.248-2.729c-7.966-0.685-15.938-1.776-23.909-1.787c-11.692-0.017-23.383,0.855-35.079,1.164
	c-5.621,0.148-7.718,4.656-10.704,8.08c-0.498,0.57-0.206,1.768-0.493,2.602c-0.38,1.105-0.772,2.312-1.514,3.167
	c-1.43,1.649-1.57,7.399-0.156,9.046c0.907,1.059,1.554,2.34,2.455,3.734c-1.19,0.398-1.652,0.548-2.11,0.705
	c-7.893,2.748-9.938,11.225-4.162,17.276c0.967,1.013,1.908,2.071,2.989,2.954c1.689,1.379,2.196,2.962,2.104,5.199
	c-0.298,7.159,5.059,12.642,12.219,12.763c4.404,0.075,8.811-0.027,13.215,0.058c0.913,0.018,1.809,0.537,2.726,0.773
	c1.246,0.322,2.504,0.596,4.308,1.019c0.903,2.366,1.424,2.603,4.598,1.315c2.003,3.01,3.157,3.004,5.157-0.023
	c3.175,1.326,3.651,1.113,4.757-1.703c1.307,0,2.439,0.168,3.498-0.041c1.656-0.323,3.244-1.219,4.893-1.313
	c3.592-0.21,7.206-0.021,10.81-0.079c6.401-0.103,11.968-4.601,12.2-10.893c0.14-3.792,1.755-6.058,4.231-8.292
	c1.038-0.938,2.041-1.941,2.897-3.04C121.186,87.324,120.159,80.699,115.27,77.456z M81.242,53.648
	c0.819-0.105,1.637-0.299,2.458-0.303c5.28-0.027,10.56-0.037,15.84-0.007c3.381,0.021,3.775,0.571,2.993,3.976
	c-0.485,2.115-0.994,4.225-1.561,6.626c-8.376-0.328-14.617-3.957-19.976-9.331C81.078,54.289,81.16,53.969,81.242,53.648z
	 M42.326,53.488c6.54-0.179,13.087-0.109,19.686-0.109c-0.893,4.999-12.478,10.936-19.652,10.223
	c-0.607-2.506-1.405-5.072-1.752-7.698C40.508,55.15,41.694,53.506,42.326,53.488z M29.14,85.229
	c-0.283-0.297-0.565-0.595-0.848-0.894c1.26-1.246,2.52-2.494,3.78-3.74c0.279,0.363,0.558,0.726,0.836,1.088
	C31.652,82.865,30.396,84.047,29.14,85.229z M32.2,89.879c1.74-1.812,3.481-3.621,5.221-5.432c0.221,0.211,0.442,0.422,0.663,0.635
	c-1.747,1.801-3.495,3.602-5.243,5.402C32.627,90.282,32.414,90.08,32.2,89.879z M33.958,92.153
	c-0.022-0.038-0.046-0.079-0.069-0.116c2.001-1.895,4.003-3.791,6.004-5.687c0.098,0.103,0.197,0.202,0.294,0.305
	C38.11,88.488,36.034,90.319,33.958,92.153z M54.907,109.126c-0.112,1.15-1.724,2.154-2.682,3.224
	c-1.066-0.978-2.792-1.832-3.002-2.968c-0.19-1.024,1.279-2.356,2.016-3.552c0.471-0.022,0.942-0.044,1.414-0.067
	C53.468,106.892,55.008,108.09,54.907,109.126z M60.57,80.914c-0.587-3.516,0.084-4.581,3.939-6.263
	C65.432,78.67,65.151,79.116,60.57,80.914z M69.337,77.334c-0.949,0.26-1.867,0.506-2.792,0.759
	c-1.04-4.481-0.807-5.002,2.792-5.897C69.337,74.025,69.337,75.584,69.337,77.334z M76.913,78.015
	c-0.917-0.212-1.829-0.421-2.769-0.64c0-1.813,0-3.456,0-5.133C77.637,72.998,77.826,73.396,76.913,78.015z M82.958,80.902
	L82.958,80.902c-0.001,0-0.001,0.002-0.001,0.002c-3.708-1.293-4.805-2.199-4.357-4.571c0.104-0.548,0.289-1.175,0.543-1.899
	c0.292,0.195,0.589,0.389,0.881,0.58C82.072,76.366,83.94,77.771,82.958,80.902z M91.479,112.254
	c-0.981,0.061-2.768-1.6-2.925-2.689c-0.003-0.025-0.002-0.053-0.004-0.078c-0.005-0.033-0.014-0.067-0.015-0.099
	c-0.02-0.323,0.149-0.733,0.42-1.146c0.452-0.739,1.172-1.518,1.628-2.256c0.43-0.016,0.859-0.029,1.288-0.045
	c0.854,1.139,2.431,2.321,2.363,3.402C94.165,110.439,92.521,112.189,91.479,112.254z M95.775,69.012
	c-4.96-0.646-8.911-3.883-12.463-7.371c-2-1.964-3.89-4.053-6.007-5.879c-3.746-3.232-7.293-3.228-11.056-0.016
	c-1.897,1.621-3.601,3.474-5.363,5.25c-5.098,5.137-10.939,8.677-18.428,8.943c-0.692,0.023-1.677,0.888-1.959,1.588
	c-0.663,1.65-0.982,3.439-1.457,5.23c-3.011-2.695-3.296-13.142-0.262-17.917c0.587,1.998,1.216,3.619,1.513,5.299
	c0.309,1.744,1.128,2.323,2.859,2.186c7.44-0.597,14.033-3.144,19.368-8.462c7.433-7.412,11.103-7.43,18.532,0.002
	c5.093,5.098,11.358,7.629,18.457,8.404c2.161,0.236,3.42-0.209,3.738-2.568c0.198-1.463,0.757-2.877,1.167-4.361
	c3.145,2.531,3.203,14.004-0.304,17.875C104.538,70.771,100.77,69.662,95.775,69.012z M109.265,92.328
	c-2.002-1.906-4.004-3.813-6.007-5.718c0.078-0.079,0.154-0.157,0.232-0.237c1.983,1.913,3.966,3.825,5.95,5.74
	C109.381,92.185,109.324,92.256,109.265,92.328z M110.774,90.272c-1.849-1.697-3.698-3.393-5.546-5.089
	c0.126-0.135,0.25-0.27,0.376-0.404c1.792,1.752,3.585,3.505,5.378,5.257C110.912,90.113,110.844,90.192,110.774,90.272z
	 M114.305,85.233c-1.294-1.231-2.589-2.463-3.883-3.694c0.34-0.357,0.68-0.714,1.02-1.072c1.267,1.264,2.535,2.526,3.802,3.787
	C114.931,84.58,114.618,84.906,114.305,85.233z"/>
<rect x="0.668" y="143.066" fill-rule="evenodd" clip-rule="evenodd" fill="#0041A8" width="140.03" height="140.029"/>
<rect x="286.189" y="142.97" fill="#FC0606" width="140.031" height="140.029"/>
<rect x="428.971" y="142.667" fill="#FCFF06" width="140.029" height="140.029"/>
<path fill-rule="evenodd" clip-rule="evenodd" d="M506.43,260.09c-1.107,2.817-1.582,3.03-4.758,1.703
	c-2,3.026-3.154,3.032-5.157,0.023c-3.173,1.287-3.694,1.051-4.599-1.315c-1.803-0.423-3.063-0.695-4.308-1.018
	c-0.917-0.237-1.813-0.758-2.726-0.775c-4.403-0.084-8.811,0.018-13.215-0.057c-7.16-0.119-12.517-5.604-12.219-12.762
	c0.093-2.238-0.414-3.82-2.104-5.2c-1.08-0.882-2.021-1.941-2.988-2.954c-5.776-6.053-3.73-14.528,4.162-17.275
	c0.457-0.158,0.919-0.308,2.109-0.705c-0.9-1.395-1.547-2.676-2.455-3.734c-1.414-1.648-1.273-7.396,0.156-9.045
	c0.742-0.857,1.135-2.063,1.515-3.168c0.286-0.835-0.005-2.032,0.493-2.604c2.986-3.422,5.082-7.93,10.703-8.078
	c11.697-0.309,23.388-1.18,35.08-1.164c7.971,0.01,15.943,1.102,23.908,1.786c1.598,0.138,3.253,0.468,3.248,2.729
	c-0.001,0.335,0.545,0.799,0.939,0.979c3.028,1.384,4.181,3.832,4.153,7.019c-0.005,0.578-0.016,1.502,0.308,1.686
	c2.834,1.621,2.132,4.328,2,6.709c-0.068,1.224-0.995,2.395-1.514,3.598c-0.446,1.037-0.863,2.086-1.309,3.167
	c1.8,0.843,3.424,1.378,4.799,2.29c4.889,3.243,5.916,9.868,2.303,14.508c-0.855,1.1-1.859,2.104-2.896,3.039
	c-2.477,2.234-4.092,4.501-4.231,8.293c-0.231,6.292-5.799,10.791-12.2,10.893c-3.604,0.059-7.217-0.131-10.81,0.078
	c-1.648,0.096-3.236,0.99-4.893,1.315C508.869,260.259,507.735,260.09,506.43,260.09z M531.496,221.685
	c3.506-3.871,3.447-15.343,0.303-17.876c-0.41,1.485-0.969,2.897-1.167,4.36c-0.317,2.361-1.577,2.806-3.738,2.569
	c-7.1-0.774-13.364-3.307-18.457-8.402c-7.429-7.435-11.099-7.415-18.532-0.004c-5.335,5.318-11.927,7.865-19.367,8.462
	c-1.731,0.139-2.551-0.441-2.859-2.186c-0.297-1.68-0.926-3.299-1.514-5.299c-3.033,4.777-2.748,15.222,0.262,17.919
	c0.475-1.792,0.794-3.58,1.457-5.231c0.281-0.699,1.267-1.564,1.959-1.59c7.488-0.266,13.33-3.805,18.428-8.941
	c1.763-1.777,3.465-3.629,5.363-5.251c3.763-3.212,7.311-3.216,11.056,0.016c2.117,1.827,4.007,3.915,6.007,5.88
	c3.553,3.489,7.504,6.725,12.464,7.371C528.154,214.132,531.922,215.241,531.496,221.685z M469.743,208.071
	c7.174,0.712,18.759-5.225,19.651-10.223c-6.598,0-13.145-0.07-19.686,0.11c-0.631,0.018-1.816,1.66-1.719,2.413
	C468.338,202.998,469.136,205.565,469.743,208.071z M528.355,208.409c0.567-2.4,1.076-4.51,1.562-6.625
	c0.782-3.404,0.389-3.955-2.993-3.977c-5.28-0.029-10.561-0.021-15.841,0.008c-0.819,0.004-1.638,0.196-2.456,0.303
	c-0.083,0.32-0.165,0.64-0.246,0.96C513.739,204.452,519.98,208.081,528.355,208.409z M480.036,250.233
	c-0.472,0.021-0.942,0.043-1.414,0.066c-0.737,1.195-2.206,2.525-2.016,3.551c0.21,1.135,1.937,1.99,3.003,2.968
	c0.958-1.067,2.569-2.073,2.682-3.224C482.392,252.558,480.853,251.36,480.036,250.233z M520.921,254.347
	c-0.015-0.428-0.085-0.973-0.101-1.401c-1.202-0.743-1.142-2.167-2.215-2.013c-1.088,0.156-2.748,1.943-2.688,2.924
	c0.064,1.041,1.813,2.687,2.91,2.756C519.908,256.681,519.783,255.202,520.921,254.347z M506.527,218.903
	c-1.359,3.873-0.75,4.877,3.813,6.469C511.465,221.793,508.865,220.47,506.527,218.903z M491.893,219.122
	c-3.854,1.682-4.525,2.747-3.938,6.262C492.535,223.585,492.816,223.14,491.893,219.122z M496.721,216.665
	c-3.599,0.895-3.832,1.416-2.791,5.896c0.924-0.251,1.842-0.499,2.791-0.757C496.721,220.054,496.721,218.495,496.721,216.665z
	 M504.297,222.483c0.912-4.617,0.725-5.016-2.77-5.771c0,1.676,0,3.32,0,5.134C502.467,222.062,503.379,222.272,504.297,222.483z
	 M467.277,230.821c0.098,0.1,0.195,0.201,0.293,0.303c-2.076,1.833-4.152,3.664-6.229,5.498c-0.022-0.039-0.046-0.077-0.069-0.115
	C463.273,234.611,465.275,232.716,467.277,230.821z M530.642,231.079c0.077-0.078,0.155-0.158,0.231-0.236
	c1.984,1.912,3.967,3.826,5.951,5.738c-0.059,0.072-0.117,0.145-0.176,0.218C534.646,234.892,532.645,232.986,530.642,231.079z
	 M465.468,229.551c-0.221-0.212-0.442-0.423-0.663-0.636c-1.74,1.813-3.48,3.623-5.221,5.434c0.214,0.202,0.428,0.402,0.642,0.604
	C461.973,233.153,463.721,231.353,465.468,229.551z M538.365,234.505c-0.068,0.079-0.138,0.158-0.207,0.236
	c-1.849-1.697-3.697-3.393-5.546-5.088c0.126-0.135,0.25-0.27,0.376-0.404C534.779,231.001,536.573,232.753,538.365,234.505z
	 M460.292,226.153c-0.279-0.363-0.558-0.726-0.836-1.088c-1.261,1.246-2.521,2.494-3.78,3.74c0.282,0.298,0.565,0.596,0.848,0.895
	C457.779,228.518,459.035,227.336,460.292,226.153z M538.825,224.937c-0.339,0.357-0.68,0.716-1.02,1.072
	c1.294,1.23,2.589,2.463,3.883,3.693c0.313-0.326,0.626-0.652,0.94-0.979C541.361,227.462,540.093,226.199,538.825,224.937z"/>
<path fill-rule="evenodd" clip-rule="evenodd" d="M532.252,190.119c-22.183-3.149-44.361-3.073-66.55-0.054
	c-0.158-13.973,16.743-28.243,33.67-28.122C515.899,162.063,532.609,176.575,532.252,190.119z"/>
<path fill-rule="evenodd" clip-rule="evenodd" d="M390.473,188.218c-22.182-3.148-44.36-3.071-66.549-0.053
	c-0.158-13.973,16.742-28.244,33.67-28.121C374.121,160.162,390.83,174.675,390.473,188.218z"/>
<path fill-rule="evenodd" clip-rule="evenodd" d="M400.875,220.024c-1.375-0.911-2.998-1.447-4.798-2.291
	c0.444-1.08,0.862-2.129,1.309-3.167c0.519-1.202,1.446-2.372,1.513-3.596c0.133-2.38,0.835-5.089-1.998-6.708
	c-0.324-0.185-0.313-1.109-0.309-1.688c0.027-3.188-1.125-5.635-4.153-7.018c-0.395-0.182-0.94-0.646-0.939-0.979
	c0.005-2.263-1.65-2.593-3.248-2.73c-7.966-0.685-15.938-1.776-23.909-1.786c-11.691-0.016-23.382,0.855-35.078,1.165
	c-5.621,0.147-7.718,4.655-10.705,8.079c-0.497,0.57-0.205,1.768-0.492,2.603c-0.381,1.104-0.772,2.312-1.515,3.165
	c-1.43,1.65-1.57,7.4-0.155,9.047c0.906,1.058,1.554,2.34,2.455,3.734c-1.191,0.397-1.652,0.547-2.11,0.705
	c-7.893,2.747-9.938,11.223-4.162,17.275c0.967,1.013,1.907,2.071,2.988,2.954c1.689,1.38,2.196,2.963,2.104,5.2
	c-0.298,7.158,5.06,12.641,12.219,12.763c4.404,0.074,8.812-0.028,13.215,0.057c0.913,0.018,1.81,0.537,2.726,0.774
	c1.245,0.321,2.505,0.595,4.309,1.018c0.903,2.366,1.424,2.603,4.598,1.316c2.003,3.008,3.157,3.002,5.157-0.024
	c3.175,1.326,3.65,1.114,4.757-1.703c1.307,0,2.439,0.169,3.498-0.04c1.656-0.326,3.244-1.219,4.893-1.314
	c3.592-0.209,7.206-0.02,10.81-0.077c6.401-0.104,11.968-4.601,12.2-10.894c0.14-3.791,1.755-6.057,4.23-8.292
	c1.038-0.937,2.041-1.939,2.896-3.041C406.791,229.894,405.765,223.268,400.875,220.024z M366.848,196.218
	c0.818-0.105,1.638-0.299,2.457-0.303c5.279-0.027,10.561-0.037,15.84-0.008c3.383,0.021,3.775,0.572,2.994,3.977
	c-0.484,2.115-0.994,4.224-1.562,6.626c-8.376-0.329-14.616-3.958-19.976-9.332C366.684,196.857,366.766,196.538,366.848,196.218z
	 M327.931,196.058c6.541-0.18,13.087-0.109,19.687-0.109c-0.893,4.999-12.479,10.935-19.652,10.223
	c-0.607-2.506-1.405-5.072-1.752-7.698C326.114,197.719,327.3,196.075,327.931,196.058z M314.746,227.798
	c-0.283-0.297-0.566-0.594-0.849-0.893c1.26-1.246,2.521-2.494,3.78-3.74c0.278,0.362,0.557,0.725,0.836,1.088
	C317.258,225.435,316.002,226.618,314.746,227.798z M317.805,232.448c1.741-1.812,3.481-3.621,5.223-5.432
	c0.221,0.211,0.441,0.421,0.662,0.635c-1.748,1.801-3.495,3.602-5.242,5.402C318.232,232.851,318.02,232.649,317.805,232.448z
	 M319.563,234.722c-0.021-0.039-0.045-0.077-0.068-0.116c2.002-1.895,4.003-3.79,6.004-5.685c0.098,0.101,0.197,0.201,0.295,0.303
	C323.716,231.056,321.639,232.889,319.563,234.722z M340.512,251.694c-0.111,1.151-1.723,2.156-2.682,3.225
	c-1.066-0.979-2.791-1.832-3.002-2.969c-0.189-1.023,1.278-2.354,2.016-3.551c0.472-0.023,0.942-0.045,1.414-0.066
	C339.074,249.46,340.613,250.658,340.512,251.694z M346.176,223.482c-0.587-3.515,0.085-4.581,3.938-6.263
	C351.037,221.238,350.757,221.685,346.176,223.482z M354.942,219.903c-0.949,0.259-1.866,0.506-2.792,0.758
	c-1.039-4.48-0.807-5.001,2.792-5.895C354.942,216.595,354.942,218.153,354.942,219.903z M362.518,220.583
	c-0.917-0.211-1.828-0.423-2.769-0.639c0-1.813,0-3.455,0-5.133C363.242,215.567,363.432,215.966,362.518,220.583z M368.563,223.471
	L368.563,223.471c0,0,0,0.001,0,0.002c-3.707-1.294-4.805-2.199-4.357-4.571c0.104-0.547,0.289-1.174,0.543-1.898
	c0.293,0.195,0.589,0.388,0.882,0.58C367.678,218.935,369.545,220.339,368.563,223.471z M377.085,254.823
	c-0.981,0.061-2.769-1.6-2.925-2.689c-0.004-0.025-0.003-0.053-0.005-0.08c-0.005-0.031-0.013-0.066-0.016-0.096
	c-0.02-0.324,0.149-0.735,0.421-1.146c0.453-0.739,1.172-1.518,1.629-2.254c0.43-0.018,0.858-0.032,1.287-0.048
	c0.855,1.14,2.432,2.321,2.363,3.403C379.771,253.009,378.126,254.759,377.085,254.823z M381.381,211.581
	c-4.961-0.646-8.911-3.883-12.463-7.371c-2-1.965-3.891-4.053-6.008-5.879c-3.745-3.234-7.293-3.229-11.057-0.016
	c-1.897,1.621-3.6,3.474-5.363,5.25c-5.097,5.137-10.938,8.676-18.427,8.943c-0.692,0.023-1.677,0.887-1.959,1.589
	c-0.663,1.649-0.982,3.438-1.456,5.229c-3.012-2.695-3.297-13.143-0.262-17.918c0.586,1.998,1.215,3.619,1.512,5.299
	c0.31,1.745,1.129,2.324,2.86,2.186c7.44-0.596,14.032-3.144,19.367-8.461c7.434-7.412,11.103-7.431,18.532,0.002
	c5.093,5.098,11.357,7.629,18.457,8.404c2.16,0.235,3.42-0.209,3.738-2.569c0.198-1.464,0.757-2.876,1.168-4.361
	c3.143,2.532,3.201,14.005-0.305,17.876C390.143,213.339,386.375,212.231,381.381,211.581z M394.87,234.898
	c-2.003-1.905-4.004-3.813-6.007-5.72c0.078-0.077,0.154-0.157,0.231-0.236c1.984,1.912,3.967,3.824,5.95,5.738
	C394.986,234.753,394.929,234.825,394.87,234.898z M396.38,232.841c-1.849-1.697-3.698-3.393-5.546-5.088
	c0.125-0.135,0.25-0.27,0.375-0.405c1.793,1.754,3.586,3.505,5.379,5.259C396.518,232.683,396.449,232.761,396.38,232.841z
	 M399.91,227.802c-1.295-1.23-2.589-2.463-3.883-3.693c0.34-0.357,0.68-0.715,1.021-1.072c1.267,1.263,2.534,2.525,3.802,3.787
	C400.536,227.149,400.223,227.478,399.91,227.802z"/>
<rect x="143.556" y="143.02" fill="#007300" width="140.029" height="140.03"/>
<path fill-rule="evenodd" clip-rule="evenodd" d="M247.839,188.269c-22.182-3.148-44.361-3.071-66.55-0.053
	c-0.158-13.975,16.743-28.244,33.669-28.123C231.487,160.213,248.196,174.726,247.839,188.269z"/>
<path fill-rule="evenodd" clip-rule="evenodd" d="M258.241,220.075c-1.375-0.91-2.999-1.447-4.798-2.291
	c0.445-1.08,0.862-2.13,1.309-3.167c0.518-1.204,1.446-2.374,1.513-3.597c0.132-2.381,0.835-5.088-1.999-6.708
	c-0.324-0.184-0.313-1.108-0.308-1.687c0.028-3.188-1.125-5.635-4.153-7.02c-0.395-0.18-0.94-0.645-0.939-0.978
	c0.004-2.262-1.65-2.593-3.248-2.73c-7.965-0.685-15.938-1.775-23.909-1.788c-11.692-0.016-23.383,0.857-35.079,1.167
	c-5.621,0.147-7.717,4.655-10.704,8.078c-0.498,0.57-0.206,1.769-0.493,2.603c-0.38,1.105-0.772,2.312-1.514,3.167
	c-1.43,1.648-1.571,7.397-0.157,9.046c0.908,1.058,1.554,2.34,2.455,3.733c-1.19,0.397-1.652,0.548-2.11,0.706
	c-7.893,2.748-9.938,11.223-4.162,17.275c0.967,1.014,1.908,2.071,2.989,2.953c1.689,1.381,2.196,2.964,2.103,5.2
	c-0.297,7.16,5.059,12.642,12.219,12.764c4.405,0.075,8.812-0.029,13.215,0.056c0.912,0.02,1.809,0.538,2.726,0.775
	c1.246,0.321,2.504,0.594,4.308,1.018c0.903,2.365,1.424,2.603,4.598,1.314c2.003,3.01,3.156,3.004,5.157-0.023
	c3.175,1.327,3.65,1.115,4.757-1.703c1.307,0,2.439,0.17,3.498-0.039c1.656-0.325,3.243-1.219,4.893-1.314
	c3.592-0.209,7.206-0.02,10.81-0.077c6.401-0.104,11.968-4.601,12.2-10.894c0.14-3.792,1.755-6.057,4.23-8.293
	c1.038-0.936,2.042-1.939,2.897-3.04C264.158,229.944,263.131,223.317,258.241,220.075z M224.213,196.268
	c0.819-0.104,1.638-0.298,2.458-0.302c5.28-0.027,10.56-0.037,15.84-0.008c3.382,0.021,3.775,0.572,2.994,3.977
	c-0.486,2.115-0.995,4.225-1.562,6.625c-8.376-0.327-14.617-3.957-19.976-9.332C224.049,196.908,224.132,196.589,224.213,196.268z
	 M185.297,196.108c6.541-0.18,13.087-0.11,19.686-0.11c-0.893,4.999-12.478,10.937-19.652,10.224
	c-0.607-2.507-1.405-5.072-1.752-7.698C183.479,197.769,184.666,196.126,185.297,196.108z M172.112,227.849
	c-0.283-0.297-0.566-0.596-0.848-0.893c1.26-1.247,2.52-2.494,3.78-3.74c0.278,0.363,0.558,0.725,0.836,1.088
	C174.624,225.485,173.368,226.667,172.112,227.849z M175.171,232.499c1.74-1.812,3.48-3.621,5.221-5.432
	c0.221,0.209,0.442,0.422,0.663,0.634c-1.747,1.802-3.495,3.602-5.242,5.401C175.599,232.901,175.385,232.7,175.171,232.499z
	 M176.929,234.772c-0.022-0.039-0.046-0.078-0.069-0.115c2.001-1.896,4.003-3.791,6.004-5.687c0.098,0.102,0.196,0.202,0.294,0.304
	C181.082,231.106,179.005,232.939,176.929,234.772z M197.878,251.746c-0.111,1.15-1.723,2.153-2.682,3.222
	c-1.066-0.977-2.792-1.831-3.002-2.967c-0.19-1.024,1.279-2.355,2.016-3.552c0.472-0.021,0.943-0.044,1.414-0.067
	C196.44,249.511,197.979,250.708,197.878,251.746z M203.542,223.533c-0.587-3.515,0.084-4.581,3.938-6.263
	C208.403,221.289,208.123,221.735,203.542,223.533z M212.308,219.954c-0.949,0.259-1.867,0.506-2.791,0.757
	c-1.04-4.48-0.808-5.001,2.791-5.895C212.308,216.646,212.308,218.204,212.308,219.954z M219.884,220.634
	c-0.917-0.211-1.83-0.423-2.769-0.639c0-1.813,0-3.456,0-5.133C220.608,215.616,220.797,216.017,219.884,220.634z M225.929,223.521
	L225.929,223.521c-0.001,0-0.001,0-0.001,0.001c-3.707-1.293-4.805-2.199-4.357-4.57c0.104-0.549,0.289-1.174,0.543-1.899
	c0.292,0.196,0.589,0.388,0.881,0.581C225.044,218.986,226.911,220.39,225.929,223.521z M234.451,254.873
	c-0.981,0.062-2.768-1.599-2.925-2.688c-0.003-0.025-0.002-0.054-0.004-0.08c-0.005-0.032-0.014-0.066-0.016-0.096
	c-0.02-0.326,0.149-0.735,0.421-1.148c0.452-0.737,1.172-1.516,1.628-2.254c0.43-0.016,0.859-0.031,1.288-0.045
	c0.854,1.139,2.431,2.32,2.363,3.402C237.136,253.06,235.491,254.809,234.451,254.873z M238.747,211.632
	c-4.96-0.646-8.911-3.883-12.463-7.373c-2-1.963-3.89-4.052-6.007-5.879c-3.746-3.231-7.294-3.226-11.056-0.014
	c-1.898,1.621-3.601,3.473-5.363,5.25c-5.098,5.137-10.939,8.676-18.427,8.941c-0.692,0.025-1.678,0.89-1.959,1.592
	c-0.663,1.648-0.982,3.438-1.457,5.229c-3.011-2.697-3.296-13.142-0.262-17.918c0.587,1.999,1.216,3.619,1.513,5.299
	c0.309,1.744,1.128,2.323,2.859,2.186c7.441-0.598,14.033-3.143,19.368-8.462c7.433-7.411,11.103-7.431,18.532,0.003
	c5.093,5.098,11.357,7.627,18.457,8.404c2.161,0.236,3.42-0.209,3.739-2.57c0.197-1.463,0.757-2.876,1.167-4.359
	c3.144,2.531,3.203,14.004-0.304,17.875C247.509,213.39,243.742,212.282,238.747,211.632z M252.236,234.948
	c-2.002-1.906-4.004-3.813-6.007-5.719c0.077-0.078,0.154-0.157,0.231-0.237c1.983,1.913,3.967,3.825,5.95,5.739
	C252.353,234.804,252.295,234.876,252.236,234.948z M253.746,232.891c-1.849-1.695-3.698-3.392-5.546-5.087
	c0.125-0.135,0.25-0.27,0.376-0.405c1.792,1.753,3.584,3.505,5.377,5.259C253.884,232.733,253.815,232.812,253.746,232.891z
	 M257.276,227.853c-1.294-1.23-2.588-2.463-3.883-3.693c0.34-0.357,0.68-0.715,1.021-1.072c1.267,1.262,2.534,2.525,3.802,3.786
	C257.902,227.2,257.589,227.526,257.276,227.853z"/>
<path fill-rule="evenodd" clip-rule="evenodd" d="M104.952,188.315c-22.183-3.148-44.362-3.071-66.55-0.051
	c-0.158-13.975,16.744-28.246,33.67-28.123C88.599,160.26,105.308,174.774,104.952,188.315z"/>
<path fill-rule="evenodd" clip-rule="evenodd" d="M115.354,220.123c-1.375-0.913-2.999-1.448-4.798-2.292
	c0.445-1.08,0.862-2.129,1.309-3.167c0.519-1.203,1.446-2.374,1.513-3.597c0.132-2.379,0.834-5.088-2-6.707
	c-0.324-0.184-0.312-1.109-0.308-1.688c0.028-3.188-1.125-5.633-4.153-7.018c-0.395-0.182-0.94-0.646-0.939-0.979
	c0.004-2.262-1.65-2.593-3.248-2.729c-7.966-0.685-15.938-1.776-23.909-1.787c-11.692-0.017-23.383,0.855-35.079,1.164
	c-5.621,0.148-7.718,4.656-10.704,8.08c-0.498,0.57-0.206,1.768-0.493,2.602c-0.38,1.105-0.772,2.312-1.514,3.167
	c-1.43,1.649-1.57,7.399-0.156,9.046c0.907,1.059,1.554,2.34,2.455,3.734c-1.19,0.398-1.652,0.548-2.11,0.705
	c-7.893,2.748-9.938,11.225-4.162,17.276c0.967,1.013,1.908,2.071,2.989,2.954c1.689,1.379,2.196,2.962,2.104,5.199
	c-0.298,7.159,5.059,12.642,12.219,12.763c4.404,0.075,8.811-0.027,13.215,0.058c0.913,0.018,1.809,0.537,2.726,0.773
	c1.246,0.322,2.504,0.596,4.308,1.019c0.903,2.366,1.424,2.603,4.598,1.315c2.003,3.01,3.157,3.004,5.157-0.023
	c3.175,1.326,3.651,1.113,4.757-1.703c1.307,0,2.439,0.168,3.498-0.041c1.656-0.323,3.244-1.219,4.893-1.313
	c3.592-0.21,7.206-0.021,10.81-0.079c6.401-0.103,11.968-4.601,12.2-10.893c0.14-3.792,1.755-6.058,4.231-8.292
	c1.038-0.938,2.041-1.941,2.897-3.04C121.27,229.991,120.243,223.366,115.354,220.123z M81.326,196.315
	c0.819-0.105,1.637-0.299,2.458-0.303c5.28-0.027,10.56-0.037,15.84-0.007c3.381,0.021,3.775,0.571,2.993,3.976
	c-0.485,2.115-0.994,4.225-1.561,6.626c-8.376-0.328-14.617-3.957-19.976-9.331C81.161,196.956,81.244,196.636,81.326,196.315z
	 M42.409,196.155c6.54-0.179,13.087-0.109,19.686-0.109c-0.893,4.999-12.478,10.936-19.652,10.223
	c-0.607-2.506-1.405-5.072-1.752-7.698C40.592,197.817,41.778,196.173,42.409,196.155z M29.224,227.896
	c-0.283-0.297-0.565-0.595-0.848-0.894c1.26-1.246,2.52-2.494,3.78-3.74c0.279,0.363,0.558,0.726,0.836,1.088
	C31.735,225.532,30.479,226.714,29.224,227.896z M32.283,232.546c1.74-1.812,3.481-3.621,5.221-5.432
	c0.221,0.211,0.442,0.422,0.663,0.635c-1.747,1.801-3.495,3.602-5.243,5.402C32.711,232.949,32.497,232.747,32.283,232.546z
	 M34.041,234.82c-0.022-0.038-0.046-0.079-0.069-0.116c2.001-1.895,4.003-3.791,6.004-5.687c0.098,0.103,0.197,0.202,0.294,0.305
	C38.193,231.155,36.117,232.986,34.041,234.82z M54.99,251.793c-0.112,1.15-1.724,2.154-2.682,3.224
	c-1.066-0.978-2.792-1.832-3.002-2.968c-0.19-1.024,1.279-2.356,2.016-3.552c0.471-0.022,0.942-0.044,1.414-0.067
	C53.552,249.559,55.091,250.757,54.99,251.793z M60.654,223.581c-0.587-3.516,0.084-4.581,3.939-6.263
	C65.515,221.337,65.234,221.783,60.654,223.581z M69.421,220.001c-0.949,0.26-1.867,0.506-2.792,0.759
	c-1.04-4.481-0.807-5.002,2.792-5.897C69.421,216.692,69.421,218.251,69.421,220.001z M76.996,220.682
	c-0.917-0.212-1.829-0.421-2.769-0.64c0-1.813,0-3.456,0-5.133C77.72,215.665,77.91,216.063,76.996,220.682z M83.042,223.569
	L83.042,223.569c-0.001,0-0.001,0.002-0.001,0.002c-3.708-1.293-4.805-2.199-4.357-4.571c0.104-0.548,0.289-1.175,0.543-1.899
	c0.292,0.195,0.589,0.389,0.881,0.58C82.156,219.033,84.024,220.438,83.042,223.569z M91.563,254.921
	c-0.981,0.061-2.768-1.6-2.925-2.689c-0.003-0.025-0.002-0.053-0.004-0.078c-0.005-0.033-0.014-0.067-0.015-0.099
	c-0.02-0.323,0.149-0.733,0.42-1.146c0.452-0.739,1.172-1.518,1.628-2.256c0.43-0.016,0.859-0.029,1.288-0.045
	c0.854,1.139,2.431,2.321,2.363,3.402C94.248,253.106,92.604,254.856,91.563,254.921z M95.858,211.679
	c-4.96-0.646-8.911-3.883-12.463-7.371c-2-1.964-3.89-4.053-6.007-5.879c-3.746-3.232-7.293-3.228-11.056-0.016
	c-1.897,1.621-3.601,3.474-5.363,5.25c-5.098,5.137-10.939,8.677-18.428,8.943c-0.692,0.023-1.677,0.888-1.959,1.588
	c-0.663,1.65-0.982,3.439-1.457,5.23c-3.011-2.695-3.296-13.142-0.262-17.917c0.587,1.998,1.216,3.619,1.513,5.299
	c0.309,1.744,1.128,2.323,2.859,2.186c7.44-0.597,14.033-3.144,19.368-8.462c7.433-7.412,11.103-7.43,18.532,0.002
	c5.093,5.098,11.358,7.629,18.457,8.404c2.161,0.236,3.42-0.209,3.738-2.568c0.198-1.463,0.757-2.877,1.167-4.361
	c3.145,2.531,3.203,14.004-0.304,17.875C104.622,213.438,100.854,212.329,95.858,211.679z M109.348,234.995
	c-2.002-1.906-4.004-3.813-6.007-5.718c0.078-0.079,0.154-0.157,0.232-0.237c1.983,1.913,3.966,3.825,5.95,5.74
	C109.465,234.852,109.407,234.923,109.348,234.995z M110.858,232.939c-1.849-1.697-3.698-3.393-5.546-5.089
	c0.126-0.135,0.25-0.27,0.376-0.404c1.792,1.752,3.585,3.505,5.378,5.257C110.996,232.78,110.927,232.859,110.858,232.939z
	 M114.388,227.9c-1.294-1.231-2.589-2.463-3.883-3.694c0.34-0.357,0.68-0.714,1.02-1.072c1.267,1.264,2.535,2.526,3.802,3.787
	C115.014,227.247,114.701,227.573,114.388,227.9z"/>
<rect x="114.625" y="140.334" fill="#007300" width="2.625" height="2.625"/>
<rect id="_x3C_Slice_x3E_" y="1.334" fill="none" width="72" height="49"/>
</svg>
