<?xml version="1.0" encoding="utf-8"?>
<!-- Generator: Adobe Illustrator 16.0.3, SVG Export Plug-In . SVG Version: 6.00 Build 0)  -->
<!DOCTYPE svg PUBLIC "-//W3C//DTD SVG 1.1//EN" "http://www.w3.org/Graphics/SVG/1.1/DTD/svg11.dtd">
<svg version="1.1" xmlns="http://www.w3.org/2000/svg" xmlns:xlink="http://www.w3.org/1999/xlink" x="0px" y="0px" width="1625px"
	 height="420px" viewBox="0 0 1625 420" enable-background="new 0 0 1625 420" xml:space="preserve">
<g id="Layer_1">
	<circle fill="#CFB53B" cx="611.601" cy="209.597" r="180"/>
	<circle fill="#CFB53B" cx="1414.983" cy="209.597" r="180"/>
	<polygon fill="#CFB53B" points="210.507,211.985 210.507,29.597 29.91,29.597 29.91,389.597 389.91,389.597 389.91,211.985 	"/>
	<path fill="#CFB53B" d="M1011.999,211.985V29.613c-98.813,0.696-178.707,81.004-178.707,179.983c0,99.411,80.59,180,180,180
		c98.613,0,178.689-79.303,179.97-177.612H1011.999z"/>
	<g>
		<g>
			<line fill="none" stroke="#FF1D25" stroke-miterlimit="10" x1="-7383.167" y1="212.042" x2="-7377.167" y2="212.042"/>
			
				<line fill="none" stroke="#FF1D25" stroke-miterlimit="10" stroke-dasharray="11.9934,11.9934" x1="-7365.173" y1="212.042" x2="8987.837" y2="212.042"/>
			<line fill="none" stroke="#FF1D25" stroke-miterlimit="10" x1="8993.834" y1="212.042" x2="8999.834" y2="212.042"/>
		</g>
	</g>
	<g>
		<g>
			<line fill="none" stroke="#FF1D25" stroke-miterlimit="10" x1="-7369.167" y1="390" x2="-7363.167" y2="390"/>
			
				<line fill="none" stroke="#FF1D25" stroke-miterlimit="10" stroke-dasharray="11.9934,11.9934" x1="-7351.173" y1="390" x2="9001.837" y2="390"/>
			<line fill="none" stroke="#FF1D25" stroke-miterlimit="10" x1="9007.834" y1="390" x2="9013.834" y2="390"/>
		</g>
	</g>
	<g>
		<g>
			<line fill="none" stroke="#FF1D25" stroke-miterlimit="10" x1="-7391.852" y1="29.625" x2="-7385.852" y2="29.625"/>
			
				<line fill="none" stroke="#FF1D25" stroke-miterlimit="10" stroke-dasharray="11.9934,11.9934" x1="-7373.859" y1="29.625" x2="8979.151" y2="29.625"/>
			<line fill="none" stroke="#FF1D25" stroke-miterlimit="10" x1="8985.148" y1="29.625" x2="8991.148" y2="29.625"/>
		</g>
	</g>
	<g>
		<g>
			<line fill="none" stroke="#FF1D25" stroke-miterlimit="10" x1="210.333" y1="-7747" x2="210.333" y2="-7741"/>
			
				<line fill="none" stroke="#FF1D25" stroke-miterlimit="10" stroke-dasharray="11.9934,11.9934" x1="210.333" y1="-7729.007" x2="210.333" y2="8624.003"/>
			<line fill="none" stroke="#FF1D25" stroke-miterlimit="10" x1="210.333" y1="8630" x2="210.333" y2="8636"/>
		</g>
	</g>
	<g>
		<g>
			<line fill="none" stroke="#FF1D25" stroke-miterlimit="10" x1="390" y1="-7735.5" x2="390" y2="-7729.5"/>
			
				<line fill="none" stroke="#FF1D25" stroke-miterlimit="10" stroke-dasharray="11.9934,11.9934" x1="390" y1="-7717.507" x2="390" y2="8635.504"/>
			<line fill="none" stroke="#FF1D25" stroke-miterlimit="10" x1="390" y1="8641.5" x2="390" y2="8647.5"/>
		</g>
	</g>
	<g>
		<g>
			<line fill="none" stroke="#FF1D25" stroke-miterlimit="10" x1="431.5" y1="-7737.5" x2="431.5" y2="-7731.5"/>
			
				<line fill="none" stroke="#FF1D25" stroke-miterlimit="10" stroke-dasharray="11.9934,11.9934" x1="431.5" y1="-7719.507" x2="431.5" y2="8633.503"/>
			<line fill="none" stroke="#FF1D25" stroke-miterlimit="10" x1="431.5" y1="8639.5" x2="431.5" y2="8645.5"/>
		</g>
	</g>
	<g>
		<g>
			<line fill="none" stroke="#FF1D25" stroke-miterlimit="10" x1="791.5" y1="-7731.5" x2="791.5" y2="-7725.5"/>
			
				<line fill="none" stroke="#FF1D25" stroke-miterlimit="10" stroke-dasharray="11.9934,11.9934" x1="791.5" y1="-7713.507" x2="791.5" y2="8639.504"/>
			<line fill="none" stroke="#FF1D25" stroke-miterlimit="10" x1="791.5" y1="8645.5" x2="791.5" y2="8651.5"/>
		</g>
	</g>
	<g>
		<g>
			<line fill="none" stroke="#FF1D25" stroke-miterlimit="10" x1="833" y1="-7729.5" x2="833" y2="-7723.5"/>
			
				<line fill="none" stroke="#FF1D25" stroke-miterlimit="10" stroke-dasharray="11.9934,11.9934" x1="833" y1="-7711.507" x2="833" y2="8641.504"/>
			<line fill="none" stroke="#FF1D25" stroke-miterlimit="10" x1="833" y1="8647.5" x2="833" y2="8653.5"/>
		</g>
	</g>
	<g>
		<g>
			<line fill="none" stroke="#FF1D25" stroke-miterlimit="10" x1="1012" y1="-7723.5" x2="1012" y2="-7717.5"/>
			
				<line fill="none" stroke="#FF1D25" stroke-miterlimit="10" stroke-dasharray="11.9934,11.9934" x1="1012" y1="-7705.507" x2="1012" y2="8647.504"/>
			<line fill="none" stroke="#FF1D25" stroke-miterlimit="10" x1="1012" y1="8653.5" x2="1012" y2="8659.5"/>
		</g>
	</g>
	<g>
		<g>
			<line fill="none" stroke="#FF1D25" stroke-miterlimit="10" x1="1193.25" y1="-7715.313" x2="1193.25" y2="-7709.313"/>
			
				<line fill="none" stroke="#FF1D25" stroke-miterlimit="10" stroke-dasharray="11.9934,11.9934" x1="1193.25" y1="-7697.319" x2="1193.25" y2="8655.691"/>
			<line fill="none" stroke="#FF1D25" stroke-miterlimit="10" x1="1193.25" y1="8661.688" x2="1193.25" y2="8667.688"/>
		</g>
	</g>
	<g>
		<g>
			<line fill="none" stroke="#FF1D25" stroke-miterlimit="10" x1="1234.5" y1="-7716" x2="1234.5" y2="-7710"/>
			
				<line fill="none" stroke="#FF1D25" stroke-miterlimit="10" stroke-dasharray="11.9934,11.9934" x1="1234.5" y1="-7698.007" x2="1234.5" y2="8655.004"/>
			<line fill="none" stroke="#FF1D25" stroke-miterlimit="10" x1="1234.5" y1="8661" x2="1234.5" y2="8667"/>
		</g>
	</g>
	<g>
		<g>
			<line fill="none" stroke="#FF1D25" stroke-miterlimit="10" x1="1595.5" y1="-7714.999" x2="1595.5" y2="-7708.999"/>
			
				<line fill="none" stroke="#FF1D25" stroke-miterlimit="10" stroke-dasharray="11.9934,11.9934" x1="1595.5" y1="-7697.006" x2="1595.5" y2="8656.004"/>
			<line fill="none" stroke="#FF1D25" stroke-miterlimit="10" x1="1595.5" y1="8662" x2="1595.5" y2="8668"/>
		</g>
	</g>
	<g>
		<g>
			<line fill="none" stroke="#FF1D25" stroke-miterlimit="10" x1="29.667" y1="-7750.333" x2="29.667" y2="-7744.333"/>
			
				<line fill="none" stroke="#FF1D25" stroke-miterlimit="10" stroke-dasharray="11.9934,11.9934" x1="29.667" y1="-7732.34" x2="29.667" y2="8620.669"/>
			<line fill="none" stroke="#FF1D25" stroke-miterlimit="10" x1="29.667" y1="8626.666" x2="29.667" y2="8632.666"/>
		</g>
	</g>
	<rect id="_x3C_Slice_x3E_" fill="none" width="1625" height="420"/>
</g>
<g id="Layer_2">
</g>
</svg>
