<?xml version="1.0" encoding="utf-8"?>
<!-- Generator: Adobe Illustrator 16.0.0, SVG Export Plug-In . SVG Version: 6.00 Build 0)  -->
<!DOCTYPE svg PUBLIC "-//W3C//DTD SVG 1.1//EN" "http://www.w3.org/Graphics/SVG/1.1/DTD/svg11.dtd">
<svg version="1.1" id="Layer_1" xmlns="http://www.w3.org/2000/svg" xmlns:xlink="http://www.w3.org/1999/xlink" x="0px" y="0px"
	 width="1048.947px" height="521.908px" viewBox="0 0 1048.947 521.908" enable-background="new 0 0 1048.947 521.908"
	 xml:space="preserve">
<rect x="1.078" y="0.738" fill-rule="evenodd" clip-rule="evenodd" fill="#0041A8" width="258.167" height="258.165"/>
<rect x="527.483" y="0.559" fill="#FC0606" width="258.169" height="258.166"/>
<rect x="790.723" fill="#FCFF06" width="258.167" height="258.167"/>
<path fill-rule="evenodd" clip-rule="evenodd" d="M933.53,216.488c-2.041,5.194-2.916,5.587-8.77,3.139
	c-3.689,5.581-5.815,5.592-9.508,0.045c-5.852,2.373-6.813,1.938-8.479-2.426c-3.326-0.779-5.646-1.281-7.942-1.876
	c-1.69-0.438-3.343-1.397-5.024-1.43c-8.118-0.154-16.246,0.032-24.366-0.104c-13.198-0.22-23.074-10.331-22.527-23.528
	c0.173-4.126-0.763-7.043-3.878-9.585c-1.991-1.628-3.725-3.58-5.509-5.448c-10.648-11.159-6.878-26.784,7.673-31.851
	c0.845-0.291,1.696-0.566,3.891-1.3c-1.661-2.571-2.854-4.933-4.525-6.885c-2.609-3.039-2.349-13.637,0.287-16.676
	c1.367-1.581,2.091-3.803,2.793-5.841c0.527-1.537-0.011-3.746,0.907-4.8c5.506-6.309,9.37-14.62,19.735-14.894
	c21.563-0.568,43.118-2.175,64.674-2.146c14.695,0.018,29.394,2.03,44.08,3.294c2.945,0.253,5.997,0.861,5.986,5.031
	c0,0.617,1.005,1.473,1.732,1.806c5.585,2.551,7.71,7.064,7.659,12.939c-0.009,1.066-0.029,2.77,0.565,3.107
	c5.227,2.989,3.932,7.98,3.688,12.369c-0.125,2.256-1.833,4.415-2.789,6.633c-0.823,1.912-1.594,3.846-2.415,5.839
	c3.32,1.555,6.313,2.541,8.848,4.223c9.014,5.978,10.907,18.191,4.246,26.747c-1.577,2.027-3.429,3.88-5.341,5.604
	c-4.563,4.119-7.542,8.3-7.799,15.289c-0.429,11.603-10.691,19.896-22.495,20.082c-6.644,0.108-13.306-0.241-19.928,0.145
	c-3.039,0.177-5.967,1.825-9.021,2.425C938.028,216.8,935.939,216.488,933.53,216.488z M979.745,145.682
	c6.463-7.137,6.355-28.287,0.56-32.955c-0.756,2.736-1.788,5.34-2.151,8.037c-0.587,4.354-2.91,5.173-6.893,4.739
	c-13.089-1.43-24.639-6.099-34.028-15.495c-13.698-13.705-20.464-13.669-34.167-0.004c-9.836,9.806-21.989,14.499-35.709,15.6
	c-3.19,0.256-4.702-0.814-5.271-4.029c-0.547-3.097-1.707-6.082-2.789-9.77c-5.594,8.808-5.068,28.065,0.482,33.036
	c0.874-3.304,1.464-6.601,2.685-9.645c0.521-1.289,2.337-2.885,3.612-2.932c13.808-0.489,24.576-7.015,33.975-16.484
	c3.251-3.277,6.388-6.69,9.888-9.682c6.939-5.921,13.479-5.929,20.385,0.031c3.903,3.366,7.388,7.216,11.074,10.839
	c6.549,6.433,13.833,12.397,22.979,13.59C973.584,131.757,980.531,133.803,979.745,145.682z M865.895,120.584
	c13.227,1.313,34.585-9.633,36.23-18.848c-12.165,0-24.235-0.13-36.295,0.202c-1.161,0.036-3.349,3.064-3.167,4.45
	C863.303,111.23,864.775,115.964,865.895,120.584z M973.956,121.207c1.046-4.426,1.984-8.315,2.879-12.215
	c1.44-6.276,0.717-7.292-5.519-7.331c-9.734-0.055-19.472-0.04-29.205,0.014c-1.512,0.008-3.021,0.362-4.529,0.559
	c-0.151,0.591-0.303,1.18-0.454,1.77C947.009,113.911,958.514,120.602,973.956,121.207z M884.872,198.316
	c-0.872,0.039-1.739,0.079-2.607,0.122c-1.361,2.204-4.067,4.656-3.716,6.547c0.387,2.092,3.568,3.669,5.534,5.474
	c1.769-1.97,4.739-3.824,4.944-5.945C889.214,202.602,886.377,200.395,884.872,198.316z M960.249,205.899
	c-0.028-0.788-0.158-1.793-0.186-2.583c-2.216-1.37-2.104-3.995-4.083-3.711c-2.006,0.288-5.068,3.583-4.957,5.391
	c0.119,1.919,3.346,4.951,5.366,5.081C958.382,210.203,958.15,207.477,960.249,205.899z M933.711,140.555
	c-2.507,7.14-1.383,8.991,7.03,11.926C942.813,145.88,938.021,143.442,933.711,140.555z M906.73,140.958
	c-7.105,3.1-8.343,5.064-7.261,11.544C907.914,149.186,908.433,148.364,906.73,140.958z M915.631,136.428
	c-6.633,1.649-7.063,2.61-5.146,10.871c1.704-0.463,3.396-0.918,5.146-1.394C915.631,142.675,915.631,139.802,915.631,136.428z
	 M929.599,147.154c1.684-8.512,1.336-9.247-5.104-10.641c0,3.09,0,6.122,0,9.467C926.225,146.377,927.908,146.766,929.599,147.154z
	 M861.347,162.527c0.181,0.184,0.362,0.37,0.542,0.558c-3.829,3.38-7.657,6.756-11.484,10.137c-0.04-0.072-0.083-0.141-0.127-0.213
	C853.967,169.517,857.656,166.02,861.347,162.527z M978.171,163.002c0.143-0.144,0.284-0.291,0.427-0.436
	c3.657,3.525,7.313,7.055,10.971,10.58c-0.108,0.133-0.215,0.266-0.322,0.401C985.553,170.031,981.862,166.521,978.171,163.002z
	 M858.013,160.185c-0.407-0.391-0.815-0.779-1.223-1.172c-3.21,3.342-6.419,6.68-9.627,10.018c0.396,0.373,0.788,0.741,1.185,1.112
	C851.568,166.826,854.79,163.507,858.013,160.185z M992.411,169.318c-0.128,0.144-0.254,0.292-0.382,0.436
	c-3.408-3.129-6.818-6.255-10.225-9.38c0.23-0.249,0.461-0.497,0.691-0.746C985.8,162.858,989.107,166.088,992.411,169.318z
	 M848.47,153.921c-0.515-0.67-1.029-1.336-1.541-2.006c-2.326,2.298-4.646,4.599-6.971,6.896c0.521,0.55,1.044,1.099,1.564,1.649
	C843.838,158.281,846.153,156.1,848.47,153.921z M993.259,151.678c-0.627,0.658-1.253,1.319-1.88,1.977
	c2.384,2.269,4.771,4.541,7.159,6.81c0.576-0.602,1.153-1.203,1.731-1.805C997.933,156.333,995.596,154.007,993.259,151.678z"/>
<path fill-rule="evenodd" clip-rule="evenodd" d="M981.139,87.487c-40.896-5.808-81.788-5.667-122.694-0.101
	c-0.291-25.761,30.867-52.069,62.076-51.848C950.991,35.761,981.797,62.516,981.139,87.487z"/>
<path fill-rule="evenodd" clip-rule="evenodd" d="M719.747,83.98c-40.897-5.805-81.786-5.661-122.695-0.098
	c-0.292-25.761,30.868-52.072,62.075-51.846C689.599,32.255,720.404,59.012,719.747,83.98z"/>
<path fill-rule="evenodd" clip-rule="evenodd" d="M738.924,142.621c-2.533-1.68-5.527-2.668-8.844-4.224
	c0.818-1.991,1.588-3.925,2.412-5.837c0.954-2.219,2.665-4.375,2.787-6.632c0.245-4.388,1.541-9.382-3.684-12.367
	c-0.598-0.34-0.576-2.045-0.569-3.111c0.051-5.876-2.074-10.388-7.655-12.938c-0.728-0.335-1.735-1.192-1.732-1.806
	c0.008-4.172-3.042-4.78-5.988-5.034c-14.686-1.263-29.385-3.275-44.08-3.293c-21.557-0.029-43.108,1.577-64.674,2.147
	c-10.363,0.272-14.228,8.583-19.735,14.896c-0.916,1.052-0.38,3.259-0.909,4.798c-0.7,2.036-1.422,4.262-2.79,5.836
	c-2.636,3.042-2.896,13.644-0.288,16.679c1.672,1.95,2.866,4.314,4.526,6.885c-2.197,0.731-3.047,1.009-3.89,1.301
	c-14.551,5.064-18.324,20.69-7.673,31.85c1.782,1.867,3.516,3.82,5.509,5.446c3.115,2.544,4.048,5.461,3.879,9.588
	c-0.552,13.197,9.326,23.305,22.527,23.528c8.119,0.14,16.243-0.051,24.363,0.107c1.682,0.032,3.334,0.99,5.023,1.426
	c2.297,0.593,4.619,1.097,7.943,1.876c1.667,4.363,2.625,4.801,8.477,2.428c3.694,5.545,5.822,5.534,9.51-0.045
	c5.854,2.444,6.73,2.054,8.771-3.139c2.408,0,4.497,0.31,6.447-0.075c3.054-0.602,5.98-2.247,9.021-2.424
	c6.621-0.385,13.287-0.036,19.931-0.143c11.802-0.192,22.064-8.481,22.491-20.084c0.259-6.989,3.237-11.166,7.8-15.287
	c1.915-1.727,3.765-3.574,5.342-5.604C749.832,160.816,747.94,148.601,738.924,142.621z M676.188,98.729
	c1.511-0.194,3.021-0.551,4.532-0.558c9.732-0.051,19.47-0.068,29.203-0.015c6.234,0.04,6.959,1.055,5.518,7.331
	c-0.893,3.9-1.832,7.787-2.877,12.217c-15.444-0.607-26.949-7.298-36.83-17.205C675.886,99.907,676.037,99.32,676.188,98.729z
	 M604.44,98.435c12.06-0.331,24.128-0.202,36.294-0.202c-1.646,9.219-23.007,20.16-36.232,18.848c-1.12-4.62-2.59-9.352-3.23-14.191
	C601.092,101.497,603.277,98.467,604.44,98.435z M580.131,156.953c-0.522-0.548-1.044-1.095-1.563-1.646
	c2.322-2.298,4.645-4.599,6.968-6.896c0.515,0.668,1.027,1.336,1.541,2.006C584.762,152.596,582.446,154.777,580.131,156.953z
	 M585.771,165.526c3.21-3.338,6.419-6.676,9.627-10.014c0.407,0.389,0.814,0.777,1.221,1.17c-3.221,3.32-6.441,6.64-9.665,9.96
	C586.561,166.269,586.166,165.897,585.771,165.526z M589.013,169.718c-0.042-0.072-0.085-0.142-0.128-0.212
	c3.69-3.495,7.382-6.989,11.069-10.482c0.182,0.188,0.363,0.371,0.543,0.558C596.67,162.959,592.84,166.34,589.013,169.718z
	 M627.636,201.01c-0.207,2.125-3.178,3.976-4.946,5.945c-1.964-1.805-5.146-3.378-5.534-5.474c-0.35-1.887,2.358-4.341,3.716-6.546
	c0.872-0.044,1.739-0.083,2.607-0.123C624.983,196.891,627.821,199.102,627.636,201.01z M638.076,148.998
	c-1.08-6.481,0.159-8.447,7.264-11.548C647.039,144.861,646.524,145.682,638.076,148.998z M654.241,142.397
	c-1.75,0.478-3.442,0.933-5.147,1.397c-1.918-8.261-1.489-9.22,5.147-10.867C654.241,136.298,654.241,139.172,654.241,142.397z
	 M668.207,143.651c-1.69-0.39-3.372-0.78-5.104-1.178c0-3.342,0-6.37,0-9.463C669.541,134.404,669.891,135.139,668.207,143.651z
	 M679.352,148.975h-0.002v0.006c-6.834-2.388-8.857-4.055-8.033-8.43c0.191-1.009,0.533-2.164,1.003-3.5
	c0.538,0.359,1.086,0.715,1.626,1.069C677.721,140.612,681.161,143.201,679.352,148.975z M695.064,206.778
	c-1.812,0.111-5.104-2.949-5.395-4.958c-0.007-0.047-0.003-0.098-0.007-0.147c-0.011-0.058-0.025-0.123-0.028-0.177
	c-0.036-0.598,0.273-1.355,0.775-2.114c0.834-1.362,2.159-2.798,3.002-4.155c0.792-0.032,1.584-0.058,2.374-0.088
	c1.575,2.101,4.481,4.279,4.355,6.274C700.016,203.434,696.983,206.659,695.064,206.778z M702.982,127.055
	c-9.145-1.192-16.427-7.159-22.977-13.59c-3.688-3.623-7.174-7.472-11.075-10.839c-6.904-5.963-13.447-5.952-20.385-0.029
	c-3.498,2.989-6.638,6.404-9.888,9.68c-9.396,9.471-20.167,15.995-33.973,16.488c-1.278,0.043-3.094,1.635-3.612,2.932
	c-1.224,3.039-1.811,6.337-2.686,9.64c-5.553-4.97-6.079-24.23-0.483-33.035c1.081,3.684,2.242,6.673,2.789,9.77
	c0.571,3.217,2.08,4.285,5.273,4.029c13.717-1.099,25.871-5.798,35.707-15.6c13.705-13.665,20.47-13.701,34.165,0.004
	c9.392,9.398,20.939,14.065,34.029,15.495c3.982,0.436,6.305-0.386,6.892-4.735c0.367-2.701,1.397-5.305,2.153-8.043
	c5.796,4.669,5.903,25.82-0.56,32.958C719.139,130.295,712.192,128.254,702.982,127.055z M727.854,170.046
	c-3.694-3.515-7.382-7.033-11.075-10.547c0.143-0.141,0.283-0.288,0.427-0.437c3.659,3.525,7.313,7.051,10.969,10.58
	C728.066,169.775,727.962,169.909,727.854,170.046z M730.638,166.25c-3.41-3.129-6.818-6.255-10.227-9.38
	c0.23-0.249,0.461-0.497,0.693-0.747c3.304,3.235,6.609,6.462,9.915,9.695C730.892,165.959,730.764,166.103,730.638,166.25z
	 M737.145,156.96c-2.386-2.269-4.771-4.541-7.158-6.81c0.626-0.659,1.253-1.317,1.883-1.977c2.334,2.328,4.671,4.656,7.008,6.982
	C738.301,155.757,737.721,156.362,737.145,156.96z"/>
<rect x="264.515" y="0.65" fill="#007300" width="258.167" height="258.168"/>
<path fill-rule="evenodd" clip-rule="evenodd" d="M456.778,84.074c-40.896-5.805-81.788-5.662-122.695-0.098
	c-0.291-25.765,30.868-52.072,62.075-51.85C426.63,32.351,457.437,59.105,456.778,84.074z"/>
<path fill-rule="evenodd" clip-rule="evenodd" d="M475.956,142.715c-2.534-1.678-5.528-2.668-8.845-4.224
	c0.82-1.991,1.589-3.925,2.412-5.839c0.956-2.221,2.666-4.377,2.789-6.632c0.244-4.389,1.54-9.38-3.686-12.367
	c-0.597-0.336-0.577-2.043-0.568-3.109c0.051-5.876-2.074-10.389-7.657-12.941c-0.728-0.331-1.733-1.188-1.732-1.801
	c0.008-4.169-3.042-4.781-5.988-5.033c-14.685-1.265-29.383-3.273-44.081-3.299c-21.556-0.029-43.11,1.581-64.674,2.153
	c-10.363,0.271-14.228,8.581-19.734,14.892c-0.917,1.052-0.38,3.261-0.908,4.798c-0.701,2.038-1.424,4.264-2.792,5.837
	c-2.637,3.043-2.897,13.641-0.289,16.68c1.673,1.95,2.865,4.314,4.526,6.883c-2.195,0.733-3.045,1.011-3.89,1.302
	c-14.551,5.066-18.323,20.691-7.673,31.851c1.783,1.869,3.518,3.818,5.51,5.444c3.114,2.546,4.048,5.465,3.877,9.589
	c-0.548,13.201,9.327,23.306,22.527,23.53c8.121,0.139,16.245-0.052,24.364,0.103c1.682,0.036,3.334,0.992,5.025,1.43
	c2.296,0.595,4.617,1.095,7.942,1.876c1.666,4.361,2.625,4.799,8.478,2.424c3.693,5.549,5.819,5.538,9.507-0.043
	c5.854,2.448,6.73,2.056,8.771-3.141c2.41,0,4.497,0.313,6.449-0.071c3.053-0.602,5.979-2.247,9.02-2.424
	c6.622-0.386,13.286-0.036,19.929-0.141c11.802-0.194,22.065-8.483,22.493-20.086c0.257-6.989,3.235-11.166,7.8-15.289
	c1.914-1.725,3.764-3.576,5.341-5.604C486.864,160.91,484.971,148.692,475.956,142.715z M413.22,98.821
	c1.51-0.192,3.02-0.549,4.531-0.556c9.734-0.051,19.469-0.068,29.204-0.015c6.235,0.039,6.959,1.055,5.519,7.331
	c-0.896,3.9-1.833,7.789-2.879,12.215c-15.442-0.604-26.948-7.296-36.828-17.205C412.917,100.003,413.069,99.414,413.22,98.821z
	 M341.471,98.528c12.059-0.331,24.129-0.204,36.294-0.204c-1.646,9.217-23.004,20.164-36.231,18.85
	c-1.119-4.622-2.591-9.352-3.231-14.193C338.12,101.589,340.308,98.561,341.471,98.528z M317.162,157.046
	c-0.521-0.547-1.043-1.098-1.563-1.646c2.322-2.301,4.645-4.598,6.969-6.896c0.513,0.67,1.028,1.336,1.541,2.006
	C321.793,152.689,319.478,154.868,317.162,157.046z M322.803,165.62c3.208-3.34,6.417-6.676,9.626-10.014
	c0.407,0.385,0.815,0.777,1.222,1.168c-3.221,3.322-6.443,6.641-9.665,9.958C323.592,166.362,323.197,165.991,322.803,165.62z
	 M326.043,169.812c-0.042-0.072-0.085-0.144-0.127-0.213c3.69-3.496,7.38-6.989,11.07-10.483c0.181,0.188,0.361,0.372,0.542,0.56
	C333.699,163.053,329.872,166.432,326.043,169.812z M364.666,201.105c-0.205,2.121-3.177,3.97-4.944,5.939
	c-1.965-1.801-5.147-3.374-5.536-5.47c-0.35-1.887,2.358-4.343,3.716-6.548c0.87-0.038,1.738-0.081,2.607-0.125
	C362.015,196.984,364.853,199.191,364.666,201.105z M375.109,149.09c-1.082-6.479,0.156-8.445,7.261-11.546
	C384.07,144.953,383.554,145.775,375.109,149.09z M391.271,142.491c-1.749,0.479-3.441,0.933-5.146,1.396
	c-1.917-8.259-1.489-9.22,5.146-10.867C391.271,136.392,391.271,139.265,391.271,142.491z M405.238,143.745
	c-1.691-0.39-3.373-0.78-5.105-1.178c0-3.342,0-6.37,0-9.464C406.573,134.494,406.921,135.232,405.238,143.745z M416.383,149.07
	h-0.002c0,0,0,0,0,0c-6.835-2.384-8.858-4.055-8.033-8.426c0.191-1.012,0.532-2.164,1.002-3.5c0.54,0.359,1.086,0.713,1.625,1.069
	C414.751,140.709,418.193,143.295,416.383,149.07z M432.094,206.87c-1.809,0.113-5.103-2.947-5.393-4.956
	c-0.006-0.047-0.004-0.1-0.007-0.148c-0.01-0.059-0.025-0.122-0.028-0.176c-0.036-0.602,0.275-1.354,0.776-2.117
	c0.833-1.358,2.161-2.795,3.001-4.156c0.792-0.028,1.584-0.058,2.375-0.082c1.576,2.099,4.481,4.277,4.356,6.272
	C437.044,203.526,434.013,206.753,432.094,206.87z M440.014,127.148c-9.145-1.192-16.428-7.159-22.978-13.594
	c-3.687-3.619-7.172-7.469-11.075-10.839c-6.906-5.958-13.448-5.945-20.384-0.025c-3.5,2.989-6.638,6.402-9.888,9.68
	c-9.398,9.471-20.168,15.995-33.974,16.484c-1.276,0.047-3.093,1.643-3.612,2.936c-1.223,3.039-1.812,6.337-2.686,9.64
	c-5.551-4.974-6.077-24.229-0.482-33.035c1.082,3.684,2.242,6.673,2.79,9.77c0.569,3.216,2.08,4.283,5.271,4.029
	c13.718-1.102,25.872-5.794,35.708-15.6c13.704-13.665,20.47-13.701,34.167,0.004c9.389,9.398,20.939,14.062,34.028,15.495
	c3.983,0.436,6.306-0.386,6.893-4.739c0.364-2.697,1.396-5.302,2.152-8.037c5.796,4.667,5.904,25.818-0.56,32.955
	C456.17,130.389,449.224,128.347,440.014,127.148z M464.885,170.136c-3.692-3.515-7.383-7.029-11.075-10.544
	c0.142-0.144,0.285-0.289,0.427-0.438c3.657,3.527,7.313,7.053,10.97,10.582C465.099,169.869,464.993,170.002,464.885,170.136z
	 M467.668,166.342c-3.408-3.123-6.817-6.253-10.226-9.378c0.231-0.249,0.461-0.497,0.693-0.746c3.303,3.23,6.608,6.46,9.913,9.694
	C467.922,166.052,467.795,166.196,467.668,166.342z M474.176,157.054c-2.385-2.269-4.772-4.541-7.158-6.81
	c0.626-0.659,1.254-1.317,1.881-1.977c2.335,2.326,4.672,4.655,7.01,6.98C475.331,155.851,474.753,156.452,474.176,157.054z"/>
<path fill-rule="evenodd" clip-rule="evenodd" d="M193.342,84.16c-40.897-5.805-81.789-5.662-122.697-0.094
	c-0.291-25.764,30.87-52.076,62.077-51.849C163.193,32.438,193.999,59.195,193.342,84.16z"/>
<path fill-rule="evenodd" clip-rule="evenodd" d="M212.519,142.805c-2.534-1.686-5.529-2.672-8.847-4.228
	c0.82-1.991,1.589-3.925,2.413-5.837c0.956-2.22,2.666-4.379,2.79-6.633c0.243-4.386,1.538-9.381-3.687-12.365
	c-0.597-0.339-0.575-2.046-0.567-3.111c0.052-5.877-2.074-10.385-7.657-12.938c-0.728-0.335-1.733-1.191-1.732-1.804
	c0.008-4.172-3.042-4.782-5.987-5.034c-14.687-1.26-29.384-3.275-44.081-3.295c-21.557-0.03-43.11,1.577-64.674,2.146
	c-10.363,0.273-14.229,8.584-19.735,14.896c-0.917,1.052-0.379,3.259-0.908,4.797c-0.702,2.038-1.424,4.262-2.792,5.841
	c-2.636,3.039-2.896,13.64-0.288,16.676c1.672,1.951,2.865,4.313,4.525,6.885c-2.195,0.734-3.046,1.008-3.89,1.3
	c-14.551,5.066-18.322,20.694-7.673,31.854c1.783,1.865,3.518,3.817,5.51,5.444c3.114,2.542,4.048,5.463,3.878,9.586
	c-0.549,13.199,9.327,23.307,22.527,23.532c8.12,0.137,16.245-0.051,24.364,0.104c1.684,0.032,3.334,0.99,5.025,1.426
	c2.296,0.594,4.618,1.098,7.943,1.879c1.666,4.361,2.626,4.797,8.478,2.424c3.692,5.549,5.821,5.538,9.508-0.043
	c5.854,2.444,6.731,2.053,8.771-3.141c2.409,0,4.497,0.311,6.449-0.075c3.053-0.594,5.98-2.247,9.021-2.42
	c6.622-0.387,13.285-0.039,19.929-0.146c11.801-0.189,22.064-8.482,22.492-20.082c0.258-6.991,3.235-11.169,7.8-15.288
	c1.913-1.729,3.763-3.579,5.341-5.604C223.426,160.996,221.533,148.782,212.519,142.805z M149.783,98.91
	c1.51-0.195,3.019-0.552,4.531-0.559c9.734-0.051,19.469-0.068,29.204-0.013c6.234,0.038,6.96,1.054,5.519,7.33
	c-0.895,3.899-1.833,7.788-2.878,12.216c-15.443-0.604-26.949-7.294-36.829-17.203C149.479,100.091,149.632,99.5,149.783,98.91z
	 M78.034,98.614c12.058-0.327,24.128-0.201,36.293-0.201c-1.646,9.218-23.005,20.161-36.232,18.847
	c-1.119-4.62-2.59-9.352-3.23-14.191C74.684,101.679,76.87,98.646,78.034,98.614z M53.725,157.135
	c-0.521-0.548-1.042-1.097-1.563-1.647c2.323-2.298,4.645-4.599,6.968-6.896c0.514,0.669,1.028,1.337,1.542,2.005
	C58.355,152.775,56.04,154.954,53.725,157.135z M59.365,165.706c3.208-3.338,6.418-6.676,9.626-10.014
	c0.408,0.389,0.816,0.778,1.223,1.17c-3.221,3.32-6.444,6.641-9.666,9.961C60.154,166.45,59.76,166.077,59.365,165.706z
	 M62.606,169.899c-0.042-0.07-0.085-0.146-0.128-0.214c3.69-3.493,7.381-6.989,11.07-10.482c0.181,0.188,0.363,0.371,0.542,0.562
	C70.262,163.143,66.434,166.521,62.606,169.899z M101.229,201.189c-0.206,2.123-3.178,3.976-4.945,5.945
	c-1.965-1.8-5.147-3.378-5.536-5.47c-0.35-1.891,2.357-4.346,3.717-6.55c0.869-0.042,1.738-0.081,2.606-0.122
	C98.577,197.072,101.416,199.281,101.229,201.189z M111.671,149.179c-1.082-6.482,0.156-8.448,7.263-11.545
	C120.634,145.041,120.116,145.865,111.671,149.179z M127.835,142.578c-1.75,0.479-3.442,0.933-5.147,1.398
	c-1.917-8.262-1.488-9.222,5.147-10.873C127.835,136.478,127.835,139.352,127.835,142.578z M141.801,143.835
	c-1.691-0.393-3.372-0.778-5.105-1.182c0-3.342,0-6.373,0-9.463C143.136,134.584,143.485,135.318,141.801,143.835z M152.946,149.157
	L152.946,149.157c-0.002,0-0.002,0.003-0.002,0.003c-6.835-2.384-8.859-4.055-8.034-8.43c0.191-1.008,0.533-2.164,1.002-3.5
	c0.539,0.36,1.086,0.717,1.625,1.069C151.313,140.794,154.758,143.385,152.946,149.157z M168.656,206.959
	c-1.81,0.111-5.104-2.949-5.393-4.959c-0.006-0.047-0.004-0.098-0.007-0.144c-0.01-0.062-0.025-0.126-0.028-0.183
	c-0.037-0.596,0.274-1.352,0.775-2.111c0.834-1.363,2.161-2.798,3.002-4.159c0.792-0.029,1.583-0.054,2.374-0.083
	c1.575,2.1,4.481,4.281,4.356,6.272C173.607,203.613,170.577,206.84,168.656,206.959z M176.577,127.234
	c-9.145-1.191-16.428-7.158-22.979-13.59c-3.686-3.62-7.172-7.472-11.074-10.839c-6.906-5.959-13.447-5.95-20.384-0.028
	c-3.498,2.988-6.638,6.404-9.887,9.679c-9.399,9.471-20.168,15.999-33.975,16.489c-1.276,0.043-3.092,1.636-3.612,2.927
	c-1.223,3.043-1.811,6.342-2.686,9.644c-5.551-4.969-6.077-24.227-0.483-33.031c1.083,3.683,2.243,6.669,2.79,9.768
	c0.569,3.216,2.08,4.283,5.271,4.029c13.718-1.1,25.873-5.796,35.708-15.601c13.704-13.666,20.47-13.698,34.167,0.004
	c9.391,9.397,20.94,14.064,34.029,15.494c3.983,0.436,6.306-0.385,6.892-4.735c0.365-2.697,1.396-5.304,2.151-8.041
	c5.798,4.667,5.906,25.819-0.56,32.956C192.733,130.479,185.786,128.434,176.577,127.234z M201.447,170.222
	c-3.691-3.514-7.383-7.028-11.075-10.539c0.143-0.148,0.285-0.292,0.428-0.439c3.657,3.526,7.313,7.052,10.97,10.583
	C201.662,169.957,201.556,170.089,201.447,170.222z M204.23,166.432c-3.408-3.127-6.817-6.254-10.226-9.382
	c0.232-0.248,0.461-0.497,0.693-0.745c3.305,3.229,6.61,6.464,9.915,9.693C204.484,166.139,204.358,166.284,204.23,166.432z
	 M210.739,157.142c-2.387-2.271-4.773-4.539-7.159-6.811c0.626-0.659,1.254-1.316,1.88-1.978c2.336,2.33,4.673,4.658,7.01,6.982
	C211.894,155.938,211.316,156.539,210.739,157.142z"/>
<rect x="790.78" y="263.616" fill-rule="evenodd" clip-rule="evenodd" fill="#0041A8" width="258.167" height="258.165"/>
<rect x="264.609" y="263.589" fill="#FC0606" width="258.168" height="258.163"/>
<rect x="1.02" y="263.641" fill="#FCFF06" width="258.167" height="258.172"/>
<path fill-rule="evenodd" clip-rule="evenodd" d="M143.828,480.132c-2.041,5.194-2.917,5.589-8.77,3.139
	c-3.688,5.583-5.815,5.592-9.509,0.045c-5.851,2.373-6.811,1.938-8.477-2.429c-3.326-0.776-5.646-1.276-7.943-1.871
	c-1.689-0.439-3.343-1.397-5.024-1.432c-8.119-0.154-16.245,0.034-24.365-0.103c-13.2-0.22-23.076-10.332-22.527-23.528
	c0.171-4.126-0.764-7.045-3.878-9.587c-1.991-1.628-3.726-3.579-5.51-5.446c-10.649-11.159-6.877-26.785,7.674-31.855
	c0.843-0.286,1.694-0.563,3.89-1.297c-1.661-2.57-2.853-4.933-4.526-6.885c-2.608-3.037-2.348-13.637,0.288-16.676
	c1.368-1.58,2.091-3.801,2.792-5.841c0.528-1.537-0.009-3.746,0.909-4.798c5.505-6.311,9.369-14.619,19.733-14.898
	c21.564-0.565,43.118-2.172,64.674-2.141c14.696,0.016,29.395,2.03,44.081,3.293c2.945,0.254,5.996,0.86,5.987,5.034
	c-0.002,0.613,1.004,1.469,1.732,1.802c5.583,2.553,7.708,7.065,7.657,12.939c-0.008,1.068-0.029,2.77,0.567,3.109
	c5.226,2.987,3.93,7.979,3.686,12.368c-0.124,2.256-1.833,4.414-2.789,6.633c-0.824,1.913-1.593,3.848-2.414,5.839
	c3.318,1.557,6.313,2.54,8.847,4.222c9.014,5.978,10.908,18.191,4.246,26.747c-1.577,2.029-3.428,3.881-5.341,5.604
	c-4.564,4.119-7.542,8.3-7.801,15.289c-0.427,11.603-10.691,19.896-22.493,20.083c-6.644,0.107-13.306-0.241-19.929,0.146
	c-3.039,0.175-5.967,1.825-9.021,2.423C148.326,480.443,146.236,480.132,143.828,480.132z M190.042,409.326
	c6.465-7.138,6.356-28.287,0.56-32.956c-0.756,2.736-1.788,5.34-2.152,8.034c-0.586,4.356-2.909,5.176-6.892,4.742
	c-13.089-1.43-24.638-6.099-34.028-15.495c-13.696-13.705-20.462-13.667-34.167-0.004c-9.837,9.806-21.99,14.5-35.708,15.6
	c-3.191,0.256-4.702-0.813-5.271-4.029c-0.548-3.097-1.708-6.08-2.79-9.768c-5.594,8.806-5.068,28.063,0.482,33.035
	c0.874-3.305,1.463-6.601,2.686-9.644c0.52-1.289,2.335-2.887,3.611-2.932c13.807-0.489,24.576-7.015,33.975-16.484
	c3.25-3.279,6.388-6.69,9.888-9.683c6.937-5.922,13.478-5.931,20.383,0.03c3.903,3.367,7.388,7.216,11.075,10.839
	c6.549,6.433,13.834,12.395,22.979,13.59C183.882,395.401,190.829,397.446,190.042,409.326z M76.191,384.229
	c13.226,1.313,34.586-9.633,36.231-18.85c-12.165,0-24.235-0.129-36.294,0.202c-1.162,0.036-3.35,3.064-3.168,4.452
	C73.601,374.874,75.072,379.607,76.191,384.229z M184.254,384.851c1.045-4.424,1.984-8.313,2.878-12.213
	c1.441-6.278,0.716-7.292-5.518-7.333c-9.736-0.054-19.471-0.04-29.206,0.017c-1.511,0.007-3.021,0.359-4.529,0.556
	c-0.152,0.593-0.303,1.18-0.454,1.771C157.306,377.557,168.812,384.247,184.254,384.851z M95.168,461.96
	c-0.869,0.04-1.737,0.079-2.607,0.123c-1.359,2.203-4.066,4.655-3.716,6.548c0.388,2.09,3.57,3.669,5.536,5.472
	c1.767-1.974,4.737-3.822,4.944-5.943C99.511,466.247,96.673,464.038,95.168,461.96z M170.546,469.545
	c-0.027-0.794-0.157-1.795-0.185-2.585c-2.217-1.37-2.105-3.995-4.083-3.711c-2.005,0.29-5.067,3.579-4.956,5.391
	c0.119,1.919,3.343,4.951,5.365,5.083C168.68,473.847,168.448,471.121,170.546,469.545z M144.008,404.2
	c-2.505,7.139-1.382,8.991,7.031,11.926C153.111,409.523,148.319,407.088,144.008,404.2z M117.028,404.602
	c-7.105,3.101-8.343,5.064-7.261,11.544C118.212,412.826,118.73,412.009,117.028,404.602z M125.929,400.071
	c-6.634,1.649-7.064,2.612-5.146,10.871c1.704-0.463,3.396-0.918,5.146-1.394C125.929,406.32,125.929,403.445,125.929,400.071z
	 M139.897,410.8c1.682-8.514,1.335-9.248-5.105-10.642c0,3.089,0,6.123,0,9.467C136.523,410.021,138.205,410.409,139.897,410.8z
	 M71.645,426.171c0.181,0.186,0.362,0.372,0.542,0.558c-3.829,3.38-7.657,6.758-11.485,10.137c-0.041-0.073-0.083-0.141-0.127-0.212
	C64.265,433.158,67.955,429.664,71.645,426.171z M188.468,426.646c0.143-0.148,0.285-0.29,0.428-0.437
	c3.657,3.525,7.313,7.051,10.97,10.582c-0.108,0.131-0.214,0.266-0.322,0.399C195.851,433.675,192.16,430.164,188.468,426.646z
	 M68.309,423.828c-0.407-0.391-0.815-0.779-1.222-1.172c-3.209,3.342-6.417,6.68-9.627,10.018c0.395,0.373,0.79,0.738,1.184,1.114
	C61.866,430.47,65.088,427.15,68.309,423.828z M202.708,432.964c-0.128,0.143-0.255,0.29-0.382,0.434
	c-3.409-3.129-6.817-6.255-10.226-9.38c0.231-0.247,0.461-0.497,0.692-0.745C196.097,426.498,199.403,429.733,202.708,432.964z
	 M58.767,417.564c-0.515-0.67-1.028-1.336-1.541-2.006c-2.324,2.3-4.646,4.599-6.97,6.897c0.521,0.548,1.042,1.097,1.564,1.649
	C54.135,421.925,56.45,419.743,58.767,417.564z M203.556,415.321c-0.626,0.659-1.253,1.319-1.88,1.979
	c2.386,2.269,4.773,4.539,7.159,6.808c0.577-0.604,1.155-1.201,1.733-1.804C208.23,419.979,205.893,417.651,203.556,415.321z"/>
<path fill-rule="evenodd" clip-rule="evenodd" d="M191.437,351.132c-40.897-5.807-81.788-5.666-122.695-0.102
	c-0.292-25.761,30.868-52.068,62.076-51.848C161.288,299.406,192.095,326.161,191.437,351.132z"/>
<path fill-rule="evenodd" clip-rule="evenodd" d="M456.872,347.012c-40.897-5.806-81.787-5.664-122.695-0.097
	c-0.292-25.763,30.868-52.073,62.075-51.848C426.724,295.285,457.53,322.042,456.872,347.012z"/>
<path fill-rule="evenodd" clip-rule="evenodd" d="M476.049,405.651c-2.534-1.681-5.528-2.669-8.846-4.225
	c0.82-1.991,1.59-3.925,2.413-5.839c0.956-2.214,2.667-4.371,2.789-6.629c0.245-4.388,1.539-9.38-3.685-12.365
	c-0.598-0.343-0.576-2.048-0.568-3.111c0.051-5.879-2.075-10.391-7.657-12.938c-0.728-0.338-1.733-1.193-1.732-1.808
	c0.009-4.17-3.042-4.78-5.988-5.034c-14.686-1.262-29.384-3.272-44.08-3.293c-21.557-0.026-43.109,1.576-64.674,2.148
	c-10.363,0.271-14.229,8.584-19.735,14.896c-0.917,1.048-0.379,3.257-0.908,4.797c-0.702,2.036-1.424,4.262-2.792,5.835
	c-2.636,3.043-2.896,13.643-0.287,16.682c1.672,1.947,2.865,4.31,4.526,6.885c-2.196,0.73-3.047,1.006-3.89,1.298
	c-14.551,5.064-18.324,20.69-7.673,31.849c1.782,1.868,3.517,3.82,5.509,5.448c3.115,2.542,4.048,5.462,3.878,9.587
	c-0.549,13.199,9.328,23.307,22.527,23.53c8.12,0.137,16.246-0.053,24.364,0.104c1.684,0.032,3.335,0.99,5.025,1.426
	c2.296,0.594,4.618,1.099,7.943,1.878c1.666,4.362,2.626,4.798,8.478,2.425c3.692,5.548,5.821,5.535,9.508-0.043
	c5.854,2.445,6.73,2.055,8.771-3.14c2.409,0,4.498,0.312,6.448-0.074c3.054-0.6,5.981-2.245,9.021-2.425
	c6.622-0.386,13.286-0.032,19.929-0.141c11.803-0.192,22.065-8.482,22.493-20.082c0.257-6.991,3.235-11.168,7.799-15.29
	c1.914-1.727,3.764-3.575,5.341-5.606C486.958,423.848,485.064,411.63,476.049,405.651z M413.314,361.762
	c1.51-0.194,3.02-0.555,4.531-0.561c9.733-0.05,19.47-0.066,29.204-0.016c6.235,0.041,6.959,1.059,5.519,7.333
	c-0.894,3.897-1.833,7.787-2.879,12.216c-15.442-0.606-26.947-7.297-36.828-17.205C413.012,362.938,413.162,362.351,413.314,361.762
	z M341.564,361.464c12.06-0.329,24.129-0.199,36.294-0.199c-1.646,9.215-23.005,20.157-36.232,18.845
	c-1.119-4.618-2.59-9.35-3.23-14.192C338.216,364.526,340.401,361.497,341.564,361.464z M317.257,419.984
	c-0.522-0.551-1.044-1.095-1.564-1.647c2.322-2.297,4.646-4.599,6.968-6.894c0.514,0.666,1.028,1.336,1.542,2.005
	C321.888,415.627,319.572,417.808,317.257,419.984z M322.896,428.559c3.209-3.342,6.418-6.679,9.627-10.017
	c0.407,0.389,0.815,0.776,1.222,1.172c-3.222,3.32-6.444,6.641-9.665,9.961C323.685,429.3,323.291,428.927,322.896,428.559z
	 M326.138,432.75c-0.042-0.072-0.085-0.145-0.128-0.217c3.691-3.492,7.381-6.985,11.07-10.479c0.181,0.184,0.364,0.369,0.543,0.557
	C333.794,425.989,329.965,429.368,326.138,432.75z M364.761,464.04c-0.207,2.122-3.178,3.977-4.945,5.943
	c-1.965-1.803-5.147-3.376-5.535-5.472c-0.35-1.888,2.356-4.341,3.716-6.545c0.87-0.047,1.738-0.083,2.606-0.126
	C362.108,459.918,364.947,462.129,364.761,464.04z M375.202,412.026c-1.082-6.479,0.157-8.446,7.262-11.546
	C384.165,407.889,383.648,408.712,375.202,412.026z M391.365,405.43c-1.75,0.476-3.441,0.931-5.146,1.397
	c-1.917-8.263-1.489-9.223,5.146-10.868C391.365,399.329,391.365,402.201,391.365,405.43z M405.332,406.679
	c-1.691-0.385-3.372-0.777-5.105-1.176c0-3.341,0-6.369,0-9.461C406.667,397.436,407.016,398.17,405.332,406.679z M416.477,412.005
	L416.477,412.005c-0.001,0-0.002,0.002-0.002,0.004c-6.834-2.384-8.858-4.055-8.033-8.429c0.19-1.006,0.532-2.164,1.002-3.5
	c0.538,0.36,1.085,0.715,1.625,1.068C414.846,403.644,418.287,406.23,416.477,412.005z M432.188,469.811
	c-1.81,0.109-5.104-2.951-5.393-4.959c-0.006-0.049-0.004-0.097-0.008-0.147c-0.009-0.058-0.024-0.122-0.029-0.18
	c-0.036-0.595,0.275-1.354,0.777-2.11c0.834-1.365,2.16-2.8,3.001-4.155c0.793-0.033,1.583-0.062,2.375-0.091
	c1.576,2.102,4.481,4.28,4.356,6.276C437.14,466.465,434.108,469.689,432.188,469.811z M440.109,390.086
	c-9.146-1.191-16.429-7.16-22.979-13.594c-3.686-3.618-7.172-7.47-11.075-10.837c-6.905-5.963-13.447-5.95-20.385-0.026
	c-3.499,2.986-6.638,6.402-9.888,9.677c-9.397,9.471-20.166,15.996-33.974,16.489c-1.276,0.045-3.092,1.637-3.612,2.929
	c-1.223,3.041-1.811,6.342-2.686,9.644c-5.551-4.971-6.077-24.232-0.482-33.036c1.082,3.686,2.242,6.674,2.789,9.768
	c0.57,3.219,2.081,4.288,5.272,4.032c13.718-1.098,25.872-5.797,35.707-15.601c13.705-13.665,20.47-13.699,34.167,0.006
	c9.39,9.397,20.939,14.064,34.028,15.492c3.984,0.435,6.306-0.383,6.893-4.736c0.366-2.697,1.396-5.303,2.152-8.041
	c5.796,4.668,5.904,25.822-0.56,32.959C456.263,393.325,449.317,391.285,440.109,390.086z M464.979,433.073
	c-3.693-3.513-7.382-7.032-11.074-10.543c0.143-0.145,0.284-0.292,0.426-0.438c3.659,3.527,7.313,7.053,10.97,10.579
	C465.192,432.808,465.086,432.938,464.979,433.073z M467.762,429.282c-3.408-3.131-6.817-6.255-10.226-9.381
	c0.231-0.25,0.461-0.497,0.693-0.749c3.305,3.233,6.61,6.462,9.915,9.697C468.017,428.99,467.889,429.134,467.762,429.282z
	 M474.271,419.991c-2.387-2.269-4.773-4.542-7.159-6.811c0.625-0.661,1.253-1.318,1.881-1.976c2.335,2.326,4.672,4.654,7.009,6.982
	C475.425,418.787,474.847,419.394,474.271,419.991z"/>
<rect x="527.737" y="263.738" fill="#007300" width="258.167" height="258.171"/>
<path fill-rule="evenodd" clip-rule="evenodd" d="M720.001,347.161c-40.897-5.803-81.788-5.662-122.697-0.097
	c-0.29-25.765,30.868-52.073,62.076-51.85C689.853,295.437,720.658,322.194,720.001,347.161z"/>
<path fill-rule="evenodd" clip-rule="evenodd" d="M739.178,405.804c-2.533-1.678-5.529-2.67-8.846-4.224
	c0.82-1.991,1.588-3.929,2.412-5.841c0.954-2.218,2.665-4.375,2.789-6.631c0.243-4.39,1.539-9.38-3.686-12.367
	c-0.598-0.339-0.576-2.042-0.569-3.111c0.053-5.873-2.073-10.385-7.655-12.938c-0.728-0.334-1.733-1.188-1.732-1.804
	c0.008-4.17-3.042-4.778-5.988-5.034c-14.684-1.26-29.383-3.273-44.08-3.295c-21.557-0.028-43.109,1.577-64.674,2.15
	c-10.363,0.273-14.228,8.582-19.733,14.893c-0.918,1.052-0.382,3.263-0.909,4.797c-0.7,2.042-1.424,4.264-2.792,5.841
	c-2.636,3.039-2.896,13.64-0.288,16.678c1.674,1.949,2.866,4.312,4.526,6.883c-2.195,0.734-3.047,1.012-3.89,1.304
	c-14.551,5.066-18.324,20.687-7.673,31.85c1.782,1.869,3.518,3.817,5.509,5.443c3.115,2.544,4.048,5.464,3.879,9.587
	c-0.55,13.201,9.326,23.307,22.527,23.532c8.119,0.141,16.243-0.055,24.363,0.104c1.682,0.036,3.334,0.99,5.025,1.43
	c2.295,0.59,4.618,1.093,7.941,1.876c1.667,4.358,2.625,4.796,8.479,2.423c3.692,5.548,5.819,5.538,9.508-0.043
	c5.854,2.445,6.73,2.056,8.771-3.14c2.41,0,4.497,0.312,6.449-0.072c3.052-0.602,5.979-2.249,9.021-2.424
	c6.621-0.389,13.285-0.037,19.929-0.144c11.802-0.191,22.066-8.484,22.493-20.084c0.258-6.991,3.235-11.165,7.8-15.29
	c1.913-1.723,3.765-3.573,5.342-5.604C750.086,423.998,748.192,411.779,739.178,405.804z M676.44,361.909
	c1.511-0.191,3.021-0.548,4.532-0.555c9.734-0.051,19.468-0.072,29.205-0.018c6.232,0.039,6.958,1.057,5.518,7.335
	c-0.895,3.899-1.834,7.788-2.879,12.212c-15.442-0.603-26.949-7.294-36.828-17.205C676.138,363.09,676.291,362.503,676.44,361.909z
	 M604.692,361.615c12.06-0.333,24.13-0.203,36.294-0.203c-1.646,9.219-23.005,20.165-36.232,18.851
	c-1.118-4.623-2.589-9.354-3.23-14.194C601.342,364.677,603.529,361.646,604.692,361.615z M580.383,420.134
	c-0.521-0.549-1.043-1.097-1.563-1.644c2.322-2.301,4.645-4.599,6.968-6.897c0.515,0.671,1.029,1.336,1.541,2.004
	C585.014,415.776,582.698,417.953,580.383,420.134z M586.025,428.706c3.209-3.338,6.417-6.673,9.625-10.011
	c0.407,0.384,0.816,0.776,1.221,1.167c-3.219,3.321-6.441,6.64-9.664,9.96C586.814,429.449,586.418,429.08,586.025,428.706z
	 M589.265,432.899c-0.042-0.072-0.085-0.143-0.128-0.213c3.69-3.495,7.382-6.989,11.071-10.484c0.182,0.188,0.361,0.375,0.542,0.563
	C596.922,426.142,593.094,429.52,589.265,432.899z M627.888,464.192c-0.205,2.121-3.178,3.972-4.944,5.938
	c-1.964-1.797-5.147-3.374-5.536-5.47c-0.349-1.888,2.358-4.341,3.716-6.547c0.872-0.039,1.739-0.081,2.607-0.122
	C625.235,460.069,628.073,462.277,627.888,464.192z M638.33,412.178c-1.082-6.479,0.157-8.444,7.262-11.545
	C647.291,408.04,646.776,408.865,638.33,412.178z M654.493,405.579c-1.75,0.477-3.442,0.931-5.146,1.396
	c-1.92-8.261-1.491-9.223,5.146-10.868C654.493,399.479,654.493,402.354,654.493,405.579z M668.461,406.834
	c-1.692-0.391-3.374-0.781-5.106-1.178c0-3.342,0-6.373,0-9.463C669.795,397.583,670.143,398.319,668.461,406.834z M679.605,412.156
	h-0.003v0.003c-6.835-2.385-8.858-4.054-8.034-8.426c0.191-1.012,0.533-2.166,1.003-3.504c0.538,0.36,1.086,0.715,1.626,1.073
	C677.973,403.795,681.415,406.384,679.605,412.156z M695.316,469.958c-1.812,0.115-5.104-2.946-5.395-4.957
	c-0.007-0.045-0.003-0.099-0.007-0.147c-0.011-0.06-0.025-0.122-0.028-0.175c-0.036-0.602,0.275-1.357,0.775-2.119
	c0.834-1.359,2.161-2.796,3.002-4.153c0.792-0.031,1.584-0.058,2.374-0.083c1.576,2.1,4.481,4.277,4.355,6.271
	C700.266,466.614,697.234,469.839,695.316,469.958z M703.234,390.235c-9.143-1.191-16.427-7.16-22.977-13.594
	c-3.688-3.616-7.174-7.47-11.075-10.838c-6.904-5.958-13.447-5.947-20.383-0.025c-3.5,2.99-6.64,6.402-9.888,9.681
	c-9.398,9.471-20.169,15.992-33.975,16.485c-1.276,0.043-3.094,1.639-3.611,2.933c-1.225,3.041-1.812,6.338-2.687,9.642
	c-5.551-4.975-6.077-24.23-0.482-33.038c1.082,3.688,2.243,6.674,2.79,9.771c0.569,3.216,2.078,4.283,5.271,4.029
	c13.718-1.1,25.872-5.792,35.708-15.601c13.705-13.662,20.47-13.701,34.167,0.006c9.39,9.396,20.939,14.063,34.027,15.496
	c3.984,0.432,6.307-0.387,6.894-4.739c0.363-2.698,1.396-5.304,2.151-8.04c5.798,4.67,5.905,25.82-0.56,32.955
	C719.393,393.479,712.446,391.435,703.234,390.235z M728.106,433.225c-3.691-3.518-7.382-7.032-11.075-10.545
	c0.143-0.143,0.285-0.29,0.428-0.438c3.656,3.527,7.313,7.053,10.97,10.583C728.32,432.955,728.215,433.088,728.106,433.225z
	 M730.89,429.43c-3.408-3.126-6.816-6.255-10.227-9.381c0.232-0.248,0.461-0.495,0.695-0.745c3.302,3.233,6.607,6.464,9.913,9.695
	C731.144,429.14,731.016,429.285,730.89,429.43z M737.396,420.141c-2.384-2.269-4.771-4.538-7.158-6.808
	c0.626-0.658,1.255-1.319,1.883-1.979c2.334,2.326,4.671,4.658,7.01,6.98C738.553,418.94,737.975,419.541,737.396,420.141z"/>
<path fill-rule="evenodd" clip-rule="evenodd" d="M983.043,347.039c-40.896-5.811-81.787-5.662-122.695-0.096
	c-0.29-25.765,30.869-52.074,62.078-51.848C952.896,295.313,983.702,322.072,983.043,347.039z"/>
<path fill-rule="evenodd" clip-rule="evenodd" d="M1002.222,405.682c-2.535-1.688-5.529-2.672-8.848-4.228
	c0.821-1.995,1.59-3.925,2.413-5.837c0.957-2.219,2.666-4.379,2.79-6.631c0.243-4.388,1.538-9.381-3.688-12.367
	c-0.596-0.335-0.574-2.05-0.564-3.109c0.05-5.879-2.074-10.388-7.659-12.938c-0.728-0.337-1.732-1.192-1.732-1.806
	c0.009-4.172-3.043-4.786-5.986-5.034c-14.687-1.261-29.386-3.275-44.081-3.293c-21.557-0.032-43.109,1.577-64.674,2.146
	c-10.363,0.272-14.229,8.585-19.734,14.897c-0.918,1.052-0.378,3.257-0.907,4.796c-0.702,2.037-1.427,4.261-2.793,5.839
	c-2.636,3.04-2.896,13.643-0.288,16.678c1.673,1.95,2.864,4.314,4.524,6.885c-2.192,0.735-3.044,1.007-3.889,1.299
	c-14.552,5.066-18.321,20.696-7.674,31.854c1.782,1.865,3.519,3.818,5.51,5.444c3.114,2.544,4.049,5.463,3.878,9.586
	c-0.547,13.199,9.326,23.307,22.527,23.531c8.12,0.138,16.245-0.05,24.363,0.104c1.686,0.033,3.335,0.99,5.027,1.427
	c2.296,0.594,4.616,1.098,7.941,1.879c1.666,4.361,2.627,4.799,8.479,2.426c3.691,5.547,5.819,5.538,9.507-0.044
	c5.854,2.443,6.731,2.051,8.771-3.14c2.409,0,4.497,0.31,6.449-0.077c3.054-0.595,5.979-2.245,9.021-2.418
	c6.622-0.389,13.283-0.04,19.929-0.147c11.802-0.188,22.064-8.482,22.493-20.083c0.258-6.991,3.233-11.168,7.8-15.287
	c1.912-1.729,3.763-3.579,5.34-5.604C1013.129,423.875,1011.234,411.659,1002.222,405.682z M939.486,361.788
	c1.509-0.199,3.018-0.553,4.53-0.56c9.733-0.051,19.47-0.068,29.203-0.013c6.235,0.04,6.961,1.054,5.521,7.33
	c-0.896,3.899-1.833,7.788-2.879,12.216c-15.442-0.604-26.949-7.294-36.828-17.203C939.183,362.97,939.335,362.377,939.486,361.788z
	 M867.736,361.493c12.058-0.329,24.128-0.202,36.294-0.202c-1.646,9.217-23.004,20.16-36.232,18.846
	c-1.118-4.618-2.591-9.35-3.229-14.191C864.386,364.556,866.572,361.525,867.736,361.493z M843.427,420.012
	c-0.521-0.548-1.042-1.095-1.564-1.647c2.324-2.296,4.646-4.599,6.97-6.895c0.513,0.665,1.028,1.336,1.543,2.006
	C848.058,415.654,845.742,417.833,843.427,420.012z M849.068,428.585c3.208-3.34,6.416-6.678,9.625-10.016
	c0.408,0.389,0.817,0.779,1.224,1.17c-3.223,3.322-6.445,6.643-9.666,9.962C849.856,429.327,849.462,428.954,849.068,428.585z
	 M852.309,432.776c-0.041-0.07-0.085-0.146-0.128-0.212c3.689-3.495,7.38-6.989,11.071-10.484c0.18,0.189,0.361,0.371,0.54,0.562
	C859.964,426.021,856.137,429.397,852.309,432.776z M890.932,464.066c-0.205,2.123-3.178,3.976-4.943,5.945
	c-1.967-1.801-5.149-3.378-5.537-5.47c-0.351-1.891,2.357-4.347,3.719-6.548c0.867-0.044,1.735-0.083,2.604-0.125
	C888.28,459.949,891.119,462.16,890.932,464.066z M901.375,412.055c-1.084-6.481,0.154-8.447,7.261-11.544
	C910.337,407.92,909.818,408.742,901.375,412.055z M917.537,405.451c-1.75,0.482-3.442,0.937-5.147,1.402
	c-1.916-8.262-1.487-9.222,5.147-10.873C917.537,399.354,917.537,402.225,917.537,405.451z M931.503,406.712
	c-1.692-0.392-3.372-0.778-5.105-1.186c0-3.338,0-6.368,0-9.459C932.839,397.461,933.188,398.197,931.503,406.712z M942.648,412.033
	L942.648,412.033c-0.002,0-0.002,0.006-0.002,0.006c-6.837-2.386-8.86-4.055-8.034-8.432c0.191-1.007,0.533-2.164,1.003-3.5
	c0.539,0.36,1.084,0.717,1.624,1.069C941.017,403.671,944.459,406.263,942.648,412.033z M958.359,469.837
	c-1.81,0.11-5.103-2.951-5.395-4.958c-0.006-0.049-0.004-0.098-0.007-0.146c-0.01-0.059-0.025-0.124-0.027-0.182
	c-0.038-0.594,0.275-1.352,0.775-2.111c0.832-1.363,2.161-2.798,3.002-4.159c0.792-0.027,1.582-0.055,2.375-0.083
	c1.573,2.1,4.479,4.281,4.354,6.272C963.311,466.492,960.278,469.717,958.359,469.837z M966.279,390.113
	c-9.145-1.192-16.43-7.16-22.979-13.592c-3.686-3.621-7.171-7.472-11.072-10.839c-6.907-5.958-13.448-5.95-20.385-0.027
	c-3.499,2.987-6.639,6.403-9.889,9.678c-9.398,9.471-20.167,15.999-33.975,16.49c-1.274,0.044-3.091,1.635-3.611,2.93
	c-1.221,3.039-1.812,6.339-2.687,9.642c-5.549-4.972-6.074-24.229-0.482-33.033c1.084,3.682,2.243,6.671,2.791,9.768
	c0.568,3.216,2.079,4.285,5.271,4.029c13.718-1.099,25.872-5.796,35.707-15.601c13.705-13.666,20.471-13.698,34.169,0.005
	c9.389,9.398,20.938,14.065,34.028,15.493c3.982,0.438,6.305-0.386,6.892-4.733c0.364-2.699,1.394-5.306,2.15-8.043
	c5.797,4.667,5.905,25.818-0.559,32.958C982.435,393.355,975.488,391.313,966.279,390.113z M991.148,433.099
	c-3.69-3.513-7.382-7.027-11.072-10.54c0.142-0.147,0.284-0.289,0.427-0.438c3.656,3.526,7.312,7.052,10.97,10.584
	C991.365,432.834,991.259,432.966,991.148,433.099z M993.933,429.309c-3.407-3.127-6.816-6.255-10.226-9.38
	c0.232-0.25,0.461-0.499,0.693-0.747c3.306,3.229,6.611,6.463,9.915,9.693C994.188,429.018,994.062,429.161,993.933,429.309z
	 M1000.442,420.019c-2.387-2.274-4.774-4.539-7.158-6.812c0.626-0.658,1.253-1.315,1.88-1.975c2.337,2.328,4.674,4.656,7.011,6.982
	C1001.595,418.814,1001.019,419.415,1000.442,420.019z"/>
<rect id="_x3C_Slice_x3E_" y="2.46" fill="none" width="132.744" height="90.339"/>
</svg>
