<?xml version="1.0" encoding="utf-8"?>
<!-- Generator: Adobe Illustrator 16.0.3, SVG Export Plug-In . SVG Version: 6.00 Build 0)  -->
<!DOCTYPE svg PUBLIC "-//W3C//DTD SVG 1.1//EN" "http://www.w3.org/Graphics/SVG/1.1/DTD/svg11.dtd">
<svg version="1.1" id="Layer_1" xmlns="http://www.w3.org/2000/svg" xmlns:xlink="http://www.w3.org/1999/xlink" x="0px" y="0px"
	 width="895.25px" height="304.21px" viewBox="0 0 895.25 304.21" enable-background="new 0 0 895.25 304.21" xml:space="preserve">
<rect y="0.773" width="268.825" height="301.727"/>
<g>
	<path fill="#FFFFFF" d="M111.241,42.127v-12.32H37.162l-5.2,90.778h11.859c3.79-26.306,10.018-45.569,18.681-57.81
		c10.492-14.835,23.594-22.25,39.301-22.25C105.715,40.525,108.852,41.066,111.241,42.127z"/>
	<path fill="#FFFFFF" d="M232.206,29.807h-75.143v12.498c2.489-1.184,6.054-1.779,10.706-1.779c31.244,0,50.563,26.691,57.94,80.06
		h11.199L232.206,29.807z"/>
</g>
<g>
	<path d="M494.729,270.766v-36.053c0-8.396-0.507-14.498-1.546-18.656c-1.16-4.639-3.412-8.975-6.699-12.895
		c-3.393-4.047-8.366-7.307-14.786-9.689c-6.011-2.229-13.105-3.357-21.08-3.357c-22.298,0-38.312,8.791-47.592,26.129l-4.594,8.582
		l26.611,7.02c-4.111,1.725-7.924,4.092-11.416,7.094c-8.479,7.293-12.783,16.613-12.783,27.703
		c0,10.988,4.083,20.156,12.123,27.248c7.762,6.848,17.01,10.32,27.495,10.32c7.913,0,15.395-1.875,22.382-5.596v4.033h44.146
		v-31.883H494.729z M436.519,260.734c2.055-1.781,4.549-2.609,7.85-2.609c5.535,0,10.996,1.836,16.621,5.6v3.652
		c-5.792,4.771-11.642,7.098-17.793,7.098c-4.649,0-6.376-1.707-6.939-2.266c-1.563-1.547-2.26-3.293-2.26-5.666
		C433.996,264.006,434.75,262.27,436.519,260.734z M434.279,228.324c2.798-4.984,6.964-7.205,13.508-7.205
		c3.924,0,6.973,0.662,9.072,1.965c2.526,1.57,3.085,2.727,3.193,3.035c0.267,0.773,0.682,2.412,0.855,5.492
		c-5.837-2.143-11.824-3.223-17.904-3.223c-3.197,0-6.277,0.281-9.23,0.84L434.279,228.324z"/>
	<path d="M623.28,205.83c-10.278-10.43-23.142-15.717-38.233-15.717c-9.776,0-18.668,2.402-26.581,7.17v-45.836h-45.941v31.885
		h12.396v87.434h-12.396v31.883h44.242l1.699-5.4c0.722,0.41,1.462,0.813,2.229,1.211c7.329,3.816,15.49,5.752,24.253,5.752
		c15.688,0,28.767-5.703,38.873-16.955c9.89-11.012,14.905-24.682,14.905-40.629C638.728,229.955,633.531,216.23,623.28,205.83z
		 M581.725,222.387c6.057,0,11.202,2.031,15.729,6.207c4.35,4.02,6.463,9.758,6.463,17.543c0,8.271-2.224,14.559-6.788,19.225
		c-4.524,4.623-9.722,6.867-15.889,6.867c-5.874,0-10.954-2.127-15.528-6.506c-4.479-4.287-6.655-10.119-6.655-17.828
		c0-8.57,2.222-14.785,6.789-18.996C570.604,224.518,575.802,222.387,581.725,222.387z"/>
	<g>
		<polygon points="689.077,270.766 689.077,192.75 642.658,192.75 642.658,224.633 655.145,224.633 655.145,270.766 
			642.658,270.766 642.658,302.646 701.352,302.646 701.352,270.766 		"/>
		<path d="M666.135,184.896c5.064,0,9.673-1.896,13.313-5.486c3.672-3.619,5.609-8.264,5.609-13.434
			c0-5.191-1.954-9.834-5.653-13.431c-3.637-3.528-8.225-5.393-13.27-5.393c-5.341,0-10.052,1.97-13.612,5.697
			c-3.469,3.633-5.304,8.172-5.304,13.125c0,5.066,1.895,9.668,5.48,13.303C656.314,182.955,660.962,184.896,666.135,184.896z"/>
	</g>
	<path d="M793.908,247.842c-2.306-3.324-4.996-6.121-8.049-8.367h9.075V192.75h-31.881v0.41c-4.749-1.246-9.882-1.875-15.354-1.875
		c-11.77,0-21.527,3.32-28.997,9.873c-7.76,6.809-11.696,15.41-11.696,25.566c0,10.078,3.683,18.443,10.945,24.863
		c1.307,1.156,2.752,2.242,4.34,3.26h-15.384v47.799h31.979v-0.797c5.12,1.57,10.806,2.359,17.018,2.359
		c12.427,0,22.823-3.148,30.903-9.357c8.575-6.594,13.11-15.945,13.11-27.051C799.918,260.311,797.896,253.596,793.908,247.842z
		 M739.771,226.021c0-0.6,0-1.168,1.328-2.057c1.851-1.242,4.469-1.871,7.776-1.871c6.171,0,10.728,2.039,14.18,6.385v2.719
		c-2.106-0.404-4.357-0.793-6.752-1.166c-11.197-1.742-15.127-2.98-16.51-3.564C739.776,226.355,739.771,226.211,739.771,226.021z
		 M765.295,269.082c0,0.588,0,1.143-1.541,2.041c-2.339,1.361-5.967,2.082-10.487,2.082c-4.187,0-7.637-0.967-10.558-2.961
		c-2.788-1.896-3.552-3.719-3.822-5.164v-3.311c3.31,0.893,6.906,1.664,10.801,2.322c10.66,1.727,14.071,3.205,15.044,3.758
		C765.199,268.119,765.295,268.176,765.295,269.082z"/>
	<path d="M892.584,192.75h-92.129v48.873h27.821l-32.416,34.885v26.141h96.724v-50.143h-30.881l30.881-32.492V192.75z
		 M860.987,271.838h-17.65l17.65-18.578V271.838z M831.654,223.461h13.497l-13.497,14.527V223.461z"/>
</g>
<rect x="90.581" y="258.57" fill="#FFFFFF" width="32.669" height="12.168"/>
<rect x="146.075" y="258.529" fill="#FFFFFF" width="32.671" height="12.168"/>
<path d="M432.837,183.334v-63.229H276.838v63.229h36.055v-20.898c-0.006-0.07-0.023-0.137-0.023-0.209
	c0-5.729,4.461-10.373,10.091-10.766l0.088-0.093h1.587l0.116,0.123c5.485,0.53,9.797,5.104,9.797,10.733
	c0,0.053-0.015,0.1-0.015,0.15l-0.044,108.396l-21.345-0.049v31.924h83.76v-31.924l-21.749-0.002V162.637
	c-0.007-0.162-0.05-0.313-0.05-0.477c0-5.691,4.405-10.309,9.98-10.753l0.039-0.039h0.346c0.156-0.008,0.313-0.048,0.475-0.048
	c0.163,0,0.317,0.04,0.477,0.048h0.369l0.038,0.04c5.561,0.457,9.951,5.064,9.956,10.746v21.18H432.837z"/>
<rect id="_x3C_Slice_x3E__2_" x="1.25" fill="none" width="894" height="303"/>
</svg>
