<?xml version="1.0" encoding="UTF-8" standalone="no"?><!DOCTYPE svg PUBLIC "-//W3C//DTD SVG 1.1//EN" "http://www.w3.org/Graphics/SVG/1.1/DTD/svg11.dtd"><svg width="100%" height="100%" viewBox="0 0 119 123" version="1.1" xmlns="http://www.w3.org/2000/svg" xmlns:xlink="http://www.w3.org/1999/xlink" xml:space="preserve" style="fill-rule:evenodd;clip-rule:evenodd;stroke-linejoin:round;stroke-miterlimit:1.41421;"><path d="M77.907,33.964l40.329,-0.084l-27.158,33.797l10.254,41.904l-43.713,-20.927l-48.705,33.977l14.865,-52.581l-23.779,-35.823l42.593,-0.245l20.285,-33.982l15.029,33.964Z" style="fill:#fd0;fill-rule:nonzero;"/><clipPath id="_clip1"><path d="M44.185,36.767l-38.997,0.225l21.63,32.584l-13.089,46.287l43.628,-30.434l39.859,19.083l-9.178,-37.51l24.358,-30.316l-36.308,0.077l-13.579,-30.695l-18.324,30.699Z"/></clipPath><g clip-path="url(#_clip1)"><rect x="5.188" y="6.068" width="107.208" height="109.795" style="fill:url(#_Radial2);"/></g><path d="M53.957,69.637c-0.156,0.874 -0.409,1.732 -0.776,2.552c-1.758,3.948 -5.338,6.512 -9.573,7.241c-3.213,0.555 -6.26,-0.141 -8.893,-2.01c0.045,0.245 0.091,0.488 0.14,0.734c0.151,0.788 0.302,1.579 0.452,2.368c-6.252,1.323 -12.504,2.648 -18.756,3.969c-2.079,-10.626 -4.162,-21.255 -6.243,-31.882c4.173,-0.969 8.346,-1.939 12.521,-2.909c0.871,4.438 1.767,8.873 2.618,13.313l1.718,8.977l2.617,-0.444c-0.199,-0.638 -0.589,-2.732 -0.79,-3.691c-0.753,-3.595 -0.235,-7.691 1.972,-10.694c1.975,-2.685 4.535,-3.932 7.717,-4.599c2.677,-0.561 5.293,-0.318 7.804,0.781c0.752,0.327 1.433,0.721 2.049,1.169l-0.195,-0.996l-0.439,-2.448l2.164,-0.384l-0.623,-3.938c3.959,-1.887 7.697,-3.673 11.657,-5.56l0.738,3.68l12.774,-6.517l1.273,6.839l2.765,-0.534c0.237,1.267 0.496,2.922 0.732,4.188c0.165,-0.275 0.576,-1.119 0.74,-1.393c2.462,-3.285 6.337,-5.211 10.492,-5.108c3.692,0.094 6.7,1.404 9.187,4.486c2.447,3.034 3.602,6.944 3.503,11.063c-0.066,2.932 -1.18,5.484 -2.948,7.553c-1.802,2.105 -4.588,3.583 -7.315,4.044c-2.399,0.406 -4.479,0.342 -6.643,-0.395c-0.363,-0.12 -1.004,-0.414 -1.37,-0.574c-0.256,0.215 -0.793,0.652 -1.052,0.897c-1.188,0.989 -2.16,1.645 -3.274,2.16c-2.169,1.003 -4.354,1.248 -6.696,0.79c-0.891,-0.176 -1.703,-0.457 -2.512,-0.901c-0.662,0.652 -1.149,1.027 -1.754,1.513c-0.821,0.663 -1.693,1.14 -2.628,1.525c-0.923,0.376 -1.812,0.627 -2.692,0.768c-4.098,0.651 -7.296,-0.666 -9.566,-3.912c-0.271,-0.484 -0.546,-0.967 -0.819,-1.45c-0.025,-0.092 -0.05,-0.182 -0.076,-0.271" style="fill:#0095db;fill-rule:nonzero;"/><path d="M80.863,58.29c-0.784,-3.226 -0.606,-6.688 1.363,-9.367c1.644,-2.238 3.763,-3.128 6.239,-3.647c2.169,-0.456 4.26,-0.272 6.317,0.625c3.517,1.538 5.058,4.958 5.833,8.501c0.56,2.551 0.512,5.046 -0.398,7.093c-1.335,2.993 -4.076,5.187 -7.746,5.818c-2.733,0.472 -5.152,-0.191 -7.201,-1.699c-2.516,-1.85 -3.699,-4.412 -4.407,-7.324m-62.38,23.28l-5.306,-27.105l7.73,-1.793l4.352,22.124c2.077,-0.387 4.15,-0.773 6.226,-1.158l0.955,4.978l-13.957,2.954Zm13.1,-13.585c-0.786,-3.229 -0.605,-6.69 1.363,-9.368c1.646,-2.238 3.76,-3.129 6.239,-3.649c2.168,-0.454 4.26,-0.271 6.314,0.627c3.521,1.537 5.06,4.957 5.837,8.5c0.558,2.553 0.513,5.047 -0.4,7.095c-1.334,2.991 -4.078,5.184 -7.746,5.817c-2.733,0.472 -5.152,-0.191 -7.201,-1.7c-2.516,-1.849 -3.697,-4.411 -4.406,-7.322m7.312,-7.405c-0.505,0.957 -0.439,1.961 -0.375,3.198c0.093,0.57 0.186,1.142 0.278,1.713c0.091,0.546 0.193,1.076 0.302,1.619c0.151,0.748 0.317,1.552 0.587,2.289c0.468,1.285 1.368,2.889 2.964,2.585c0.863,-0.164 1.446,-0.797 1.652,-1.716c0.288,-1.283 -0.035,-2.74 -0.245,-4.018c-0.098,-0.602 -0.201,-1.172 -0.341,-1.768c-0.43,-1.809 -1.052,-3.83 -2.122,-4.65c-0.516,-0.395 -0.917,-0.324 -1.299,-0.278c-0.56,0.071 -1.038,0.333 -1.401,1.026m12.24,-7.91l2.028,-0.411l-0.795,-4.178l7.274,-3.479l1.081,6.172l2.528,-0.508l0.949,5.162l-2.491,0.5l1.465,7.882c0.15,0.699 0.287,1.321 0.475,1.965c0.213,0.731 0.616,1.357 1.438,1.527c0.557,0.114 1.138,-0.132 1.857,-0.613l0.931,4.561c-1.368,0.777 -2.305,1.229 -3.505,1.468c-2.102,0.418 -3.961,0.161 -5.493,-0.885c-2.015,-1.377 -2.61,-3.325 -3.05,-5.511l-1.677,-9.028l-2.042,0.381l-0.973,-5.005Zm13.654,-2.692l2.029,-0.409l-0.831,-4.251l7.272,-3.48l1.118,6.316l2.531,-0.508l0.939,5.127l-2.492,0.5l1.439,7.773c0.148,0.7 0.284,1.322 0.471,1.965c0.216,0.732 0.618,1.357 1.439,1.526c0.557,0.114 1.138,-0.13 1.855,-0.611l0.935,4.56c-1.37,0.778 -2.303,1.228 -3.506,1.467c-2.103,0.419 -3.961,0.164 -5.494,-0.883c-2.015,-1.378 -2.609,-3.327 -3.049,-5.511l-1.64,-8.848l-2.041,0.38l-0.975,-5.113Zm23.385,0.908c-0.505,0.957 -0.439,1.963 -0.374,3.197c0.092,0.571 0.187,1.143 0.278,1.714c0.09,0.547 0.193,1.077 0.302,1.62c0.151,0.747 0.316,1.551 0.587,2.289c0.469,1.284 1.366,2.886 2.964,2.584c0.863,-0.165 1.447,-0.797 1.653,-1.717c0.288,-1.281 -0.036,-2.737 -0.245,-4.016c-0.096,-0.604 -0.2,-1.174 -0.342,-1.767c-0.43,-1.81 -1.051,-3.83 -2.124,-4.652c-0.516,-0.395 -0.912,-0.323 -1.296,-0.276c-0.561,0.07 -1.037,0.332 -1.403,1.024" style="fill:#fff;fill-rule:nonzero;"/><defs><radialGradient id="_Radial2" cx="0" cy="0" r="1" gradientUnits="userSpaceOnUse" gradientTransform="matrix(54.2545,0,0,-54.2545,58.7905,60.9653)"><stop offset="0" style="stop-color:#fff9c7;stop-opacity:1"/><stop offset="0.1" style="stop-color:#fff4b4;stop-opacity:1"/><stop offset="0.3" style="stop-color:#fee783;stop-opacity:1"/><stop offset="0.57" style="stop-color:#fed135;stop-opacity:1"/><stop offset="0.75" style="stop-color:#fdc300;stop-opacity:1"/><stop offset="1" style="stop-color:#fbba00;stop-opacity:1"/></radialGradient></defs></svg>