<?xml version="1.0" encoding="utf-8"?>
<!-- Generator: Adobe Illustrator 16.0.3, SVG Export Plug-In . SVG Version: 6.00 Build 0)  -->
<!DOCTYPE svg PUBLIC "-//W3C//DTD SVG 1.1//EN" "http://www.w3.org/Graphics/SVG/1.1/DTD/svg11.dtd">
<svg version="1.1" id="Layer_1" xmlns="http://www.w3.org/2000/svg" xmlns:xlink="http://www.w3.org/1999/xlink" x="0px" y="0px"
	 width="104.317px" height="107.971px" viewBox="0 0 104.317 107.971" enable-background="new 0 0 104.317 107.971"
	 xml:space="preserve">
<g>
	<path fill="#FFFFFF" stroke="#1D1D1B" stroke-width="2" stroke-miterlimit="10" d="M58.802,33.005c0,0,0.807-0.524,0.878-0.737
		c0.071-0.212,0.112-0.113,0.112-0.113s4.305,0.766,7.605,2.593c0.311,0.368-3.025,0.863-3.201,0.807
		C60.706,35.657,58.802,33.005,58.802,33.005z"/>
	<path fill="#FFFFFF" stroke="#1D1D1B" stroke-width="2" stroke-miterlimit="10" d="M61.429,32.83c0,0-0.064,0.63-1.084,1.16"/>
	<path fill="#FFFFFF" stroke="#1D1D1B" stroke-width="2" stroke-miterlimit="10" d="M63.667,33.579c0,0-0.144,1.021-1.057,1.438"/>
	<path fill="#FFFFFF" stroke="#1D1D1B" stroke-width="2" stroke-miterlimit="10" d="M4.828,3.317
		c1.511-0.832,21.07-9.501,41.542,13.142c0,0-1.06,1.327-1.661,1.511C28.092,3.731,24.429,1.24,4.828,3.317z"/>
	<path fill="#FFFFFF" stroke="#1D1D1B" stroke-width="2" stroke-miterlimit="10" d="M44.841,17.924l5.623,5.662
		c0,0,1.289,1.417-0.216,1.995c-1.502,0.582,1.612,1.018,1.612,1.018s2.113,0.073,1.502-1.233c-0.129-0.28-0.06-1.213-0.248-1.635
		c-0.693-1.54-2.242-3.427-6.124-6.677l-0.646-0.691L44.841,17.924z"/>
	<path fill="#FFFFFF" stroke="#1D1D1B" stroke-width="2" stroke-miterlimit="10" d="M44.879,16.836c0,0,1.133,0.604-1.851,1.851
		c-0.68,0.228,0.151,1.321,0.151,1.209c0,0,0.604,0.756,0.982,0.34c0.377-0.417,0.377-0.605,0.377-0.605s0.982-2.379,1.625-1.359
		c0.641,1.02,0.301,0.416,0.301,0.416s0,0.68,0.34,0.604c0.34-0.074,1.323-0.831,1.096-1.095c-0.228-0.265-0.265,0.152-0.869-0.377
		c-0.604-0.53-0.303-1.058,0.34-1.549c0.642-0.491,0.831-0.756,0.831-0.756s1.096,0.416,0.869-0.226s-0.377-1.285-1.359-1.36
		s-0.34,0.604-0.34,0.604l-0.643,0.943c0,0-0.793,1.399-1.284,0.566c-0.415-0.264-0.717-0.566-0.717-0.566s0.151-1.057-1.02-0.68
		c-0.642,0.416-0.302,0.944-0.302,0.944s0.151,0.188,0.34,0.188C43.935,15.929,44.879,16.836,44.879,16.836z"/>
	<path fill="#FFFFFF" stroke="#1D1D1B" stroke-width="2" stroke-miterlimit="10" d="M48.75,19.348l-0.756,0.603
		c0,0-0.225,0.871,0.077,1.061c0,0,0.944,1.282,1.171,1.396c0.225,0.113-0.53-0.34-0.492,0.49c0.037,0.833-0.643,0.642-0.981,0.983
		c-0.341,0.341-2.002,2.869-1.965,4.117c0.038,1.245-0.944,3.776-1.057,3.927c-0.113,0.151-1.775,0.491-1.775,0.491
		s3.398-0.869,4.079-0.605c0.68,0.266,4.381,0.529,5.816,2.153c1.436,1.623,0.793,0.529,0.793,0.529s0.982,7.855-0.038,7.742
		c-1.019-0.114-3.058-4.343-3.058-4.343s1.851,2.983,1.737,3.171c-0.113,0.189-8.459,0.794-11.103-6.156
		c-0.377-0.302,2.19,3.475,2.19,3.475c-3.021-1.849-4.079-2.831-4.079-2.831s-1.888,0.036-1.587-1.058
		c0.303-1.096,0.944-9.329,8.536-12.236c0.869-0.643,0.869-1.097,0.869-1.097l0.113-1.699c0,0,1.398-1.208,1.586-1.058
		C49.015,18.555,48.75,19.348,48.75,19.348z"/>
	<path fill="#FFFFFF" stroke="#1D1D1B" stroke-width="2" stroke-miterlimit="10" d="M49.524,17.931c0,0-0.793,1.774-0.453,1.963
		c0.339,0.191,0.944-0.716,0.944-0.716s-0.626,1.194-0.529,1.32c0.379,0.491,1.095-0.452,1.095-0.452s-0.755,1.284-0.302,1.473
		c0.454,0.189,0.907-0.754,0.907-0.754s-0.377,0.603-0.114,0.791c0.264,0.189,0.793,0.529,0.566,0.152c0,0,0.302-0.455,0.227-0.982
		c-0.075-0.529-0.09-0.951-0.453-1.132c-0.302-0.153-0.416-0.416-0.416-0.416l-0.53-0.453
		C50.468,18.725,49.977,17.893,49.524,17.931z"/>
	<line fill="#FFFFFF" stroke="#1D1D1B" stroke-width="2" stroke-miterlimit="10" x1="45.861" y1="16.666" x2="45.842" y2="17.611"/>
	<line fill="#FFFFFF" stroke="#1D1D1B" stroke-width="2" stroke-miterlimit="10" x1="45.389" y1="17.148" x2="46.399" y2="17.177"/>
	
		<ellipse fill="#FFFFFF" stroke="#1D1D1B" stroke-width="2" stroke-miterlimit="10" cx="84.709" cy="45.913" rx="18.608" ry="19.035"/>
	
		<ellipse fill="#FFFFFF" stroke="#1D1D1B" stroke-width="2" stroke-miterlimit="10" cx="85.161" cy="45.913" rx="15.294" ry="15.646"/>
	<g>
		<path fill="#FFFFFF" d="M94.334,43.293c-1.638-2.121-3.854-4.035-6.581-5.505c0.408-0.433,0.838-0.854,1.289-1.265
			c2.736,1.61,4.947,3.649,6.566,5.877C95.165,42.685,94.74,42.983,94.334,43.293z"/>
		<path fill="none" stroke="#1D1D1B" stroke-width="2" stroke-miterlimit="10" d="M94.334,43.293
			c-1.638-2.121-3.854-4.035-6.581-5.505c0.408-0.433,0.838-0.854,1.289-1.265c2.736,1.61,4.947,3.649,6.566,5.877
			C95.165,42.685,94.74,42.983,94.334,43.293z"/>
	</g>
	<path fill="#FFFFFF" stroke="#1D1D1B" stroke-width="2" stroke-miterlimit="10" d="M69.221,38.552
		c2.87-1.774,10.272,2.19,10.558,6.2c-0.343-1.677,6.031-3.745,8.891-4.597c0,0,1.219-0.196,1.246-0.649
		c0.029-0.454,0.057-1.021,0.341-1.162c0.282-0.141,0.765-0.623,0.652-0.197c-0.113,0.425-0.681,0.821-0.567,0.935
		c0.113,0.114,0.17,0.764,0.397,0.736c0.226-0.029,0.537,0.198,0.764,0.565c0.228,0.369,0.114,1.105-0.084,1.219
		c-0.198,0.114-0.907,0.114-0.964,0.453c-0.057,0.341-3.569,3.795-4.93,4.079c-1.359,0.283-1.755,1.841-4.361,1.982
		c-0.451,0.907-0.565,0.509-0.793,0.566c0,0-0.481,0.029-1.104-0.396c-0.414-0.282-7.931-1.557-8.583-3.06
		c-0.65-1.501-1.133-5.835-1.133-5.835S68.606,38.931,69.221,38.552z"/>
	<path fill="#FFFFFF" stroke="#1D1D1B" stroke-width="2" stroke-miterlimit="10" d="M91.81,37.52c0,0-1.006,1.664-0.692,1.893
		c0.313,0.229,1.026-0.595,1.026-0.595s-0.77,1.107-0.689,1.245c0.313,0.535,1.145-0.313,1.145-0.313s-0.91,1.18-0.484,1.424
		c0.428,0.243,0.993-0.638,0.993-0.638s-0.448,0.553-0.211,0.772c0.24,0.221,0.722,0.623,0.544,0.221c0,0,0.355-0.413,0.347-0.945
		c-0.009-0.535,0.029-0.955-0.31-1.181c-0.28-0.188-0.359-0.464-0.359-0.464l-0.469-0.517C92.649,38.423,92.265,37.539,91.81,37.52z
		"/>
	<path fill="#FFFFFF" stroke="#1D1D1B" stroke-width="2" stroke-miterlimit="10" d="M64.282,63.187
		c0.482,10.648-6.486,20.139-6.232,21.61c0.255,1.474-0.425,4.334-0.452,4.618c-0.029,0.283,0.114,0.312-1.077,1.104
		c-1.189,0.794-2.151,12.632-2.151,12.632s0.312,0.54,0.65,0.71c-0.991,0.905,4.052,2.097,4.052,2.097l1.217-0.114
		c0,0,0.511,0,0.199,0.339c-0.682,0.991-3.428,0.851-4.674,0.425c-1.247-0.425-3.061,1.048-5.043-0.057
		c-1.982-1.104-0.593-2.096-0.593-2.096c-0.114-0.282,1.161-1.049,0.225-3.908c-2.094-4.25,1.56-12.407,1.56-12.407
		c-0.624-1.189-1.105-7.081-1.078-9.404c-0.509-2.039,1.757-9.092,1.757-9.092l-0.511,1.812l-0.396-0.594
		c-4.192-3.767,3.003-12.577,3.003-12.577s10.141,0.056,11.301,1.389c1.161,1.331,5.07,8.017,6.118,20.451
		c0.454,2.804-0.282,1.813-0.482,2.549c0,0,0.029,1.473,0.058,1.927c0.029,0.452,0.709,2.407,0.227,3.229
		c-0.482,0.822-0.426,10.679,1.303,12.065c1.729,1.39,1.587,1.701,3.54,1.616c1.955-0.085,1.671-0.029,2.069-0.029
		c0.396,0,1.387,0.342,0.736,0.539c-0.652,0.198-2.012,1.33-5.779,1.303c-2.096-0.368-2.379-0.425-3.313,0.369
		c0,0-0.917,0.348-1.258-0.275c-0.339-0.624-0.132-1.963-0.132-1.963s0.397-1.096-0.772-3.437
		c-1.244-2.489-2.306-10.037-1.965-10.235c0.339-0.199-0.521-1.625-1.965-2.842c-1.443-1.218-3.294-6.884-3.324-7.45
		C64.923,69.05,64.282,63.187,64.282,63.187z"/>
	<path fill="#FFFFFF" stroke="#1D1D1B" stroke-width="2" stroke-miterlimit="10" d="M51.333,41.187c0,0,0.685,1.065,0.854,1.803
		c0.17,0.736,0.901-1.049,0.901-1.049l-0.491-0.569l-0.235-0.316L51.333,41.187z"/>
	<path fill="#FFFFFF" stroke="#1D1D1B" stroke-width="2" stroke-miterlimit="10" d="M52.979,33.435c0,0,4.307,0.604,4.986-0.644
		l0.264-0.264c0,0,3.514,5.401,9.934,2.001c0.943-0.302,0.793,0.417,0.793,0.417l0.528,1.096c0,0,3.89,8.119,0.868,13.633
		s-1.736,11.33-1.736,11.33l0.754,1.548c0,0-8.119-5.514-19.034-1.51c1.814-3.286,1.059-6.798,1.059-6.798
		s-2.117-7.706,1.094-12.274C55.699,37.401,52.979,33.435,52.979,33.435z"/>
	<path fill="#FFFFFF" stroke="#1D1D1B" stroke-width="2" stroke-miterlimit="10" d="M69.437,31.929c0,0,1.191,0.666,1.219,0.185
		c0.027-0.483-1.432-2.266-1.288-2.551c0.141-0.283,0.183-1.188,0.055-1.218c-0.126-0.027-0.935-0.438-1.159-0.24
		c-0.229,0.198-1.007,0.24-1.501-0.411c-0.128-0.112,0.565,1.529,0.946,1.843c0,0,0.539,0.423,1.177,0.552
		c0.354,0.084,0.198,0.34,0.198,0.34L69.437,31.929z"/>
	<path fill="#1D1D1B" stroke="#1D1D1B" stroke-width="2" stroke-miterlimit="10" d="M67.95,28.743c0,0,0.693-0.197,1.02,0.099
		c0.326,0.298,0.227,0.438-0.1,0.411C68.544,29.223,67.95,28.743,67.95,28.743z"/>
	<path fill="#FFFFFF" stroke="#1D1D1B" stroke-width="2" stroke-miterlimit="10" d="M65.585,21.406c0,0-1.7-3.285,0.17-4.418
		c0.849,0.142,1.049,2.011,1.049,2.011s2.549-3.598,7.506,2.013c2.407,0.424-2.268-11.587-9.659-8.925c0,0-8.242,3.202-9.46,15.354
		c-0.171,2.408-3.57,1.783-3.57,1.783s5.891,1.247,6.289-1.755c0.396-3.003,2.719-8.951,4.361-9.291s0.906-0.397,0.906-0.397
		s0.396,3.06-0.113,3.626C62.554,21.973,65.585,21.406,65.585,21.406z"/>
	<path fill="#FFFFFF" stroke="#1D1D1B" stroke-width="2" stroke-miterlimit="10" d="M56.417,31.585c0,0,12.729,1.094,15.182,7.287
		c2.455,6.194-2.492-8.724-2.492-8.724s-0.906-0.112-1.284-0.378c-0.378-0.264-1.208-1.247-1.171-2.265
		c0.982,0.943,1.549,0.377,1.549,0.377s0.793-0.039,1.096,0.339c0.302,0.378,1.32-5.588-3.702-7.063c0,0-2.756-1.209-5.286,2.379
		c-1.359,3.552-0.113,5.1-0.113,5.1S60.761,30.678,56.417,31.585z"/>
	<path fill="none" stroke="#1D1D1B" stroke-width="2" stroke-miterlimit="10" d="M66.269,33.708c0,0,3.762,1.343,4.852,3.563"/>
	<path fill="#FFFFFF" stroke="#1D1D1B" stroke-width="2" stroke-miterlimit="10" d="M60.382,25.24c0,0,0.265-2.531,2.418-2.833"/>
	<g>
		<path fill="#FFFFFF" d="M86.947,48.756c-1.909-2.752-4.563-5.271-7.88-7.256c0.563-0.521,1.152-1.028,1.771-1.517
			c3.297,2.175,5.909,4.856,7.765,7.743C88.026,48.05,87.475,48.394,86.947,48.756z"/>
		<path fill="none" stroke="#1D1D1B" stroke-width="2" stroke-miterlimit="10" d="M86.947,48.756
			c-1.909-2.752-4.563-5.271-7.88-7.256c0.563-0.521,1.152-1.028,1.771-1.517c3.297,2.175,5.909,4.856,7.765,7.743
			C88.026,48.05,87.475,48.394,86.947,48.756z"/>
	</g>
	<line fill="#FFFFFF" stroke="#1D1D1B" stroke-width="2" stroke-miterlimit="10" x1="44.671" y1="23.804" x2="46.559" y2="22.861"/>
	<line fill="#FFFFFF" stroke="#1D1D1B" stroke-width="2" stroke-miterlimit="10" x1="46.447" y1="24.598" x2="47.126" y2="23.388"/>
	<line fill="#FFFFFF" stroke="#1D1D1B" stroke-width="2" stroke-miterlimit="10" x1="88.064" y1="41.101" x2="89.841" y2="40.498"/>
	<line fill="#FFFFFF" stroke="#1D1D1B" stroke-width="2" stroke-miterlimit="10" x1="89.085" y1="42.16" x2="90.067" y2="41.213"/>
	<path fill="#FFFFFF" stroke="#1D1D1B" stroke-width="2" stroke-miterlimit="10" d="M53.092,42.65c0,0-2.265,3.853-1.51,8.498
		c0.755,4.644,0.53,6.382,0.53,6.608"/>
	<path fill="none" stroke="#1D1D1B" stroke-width="2" stroke-miterlimit="10" d="M50.809,60.419c0,0,9.97-3.814,18.015,1.171"/>
	<path fill="none" stroke="#1D1D1B" stroke-width="2" stroke-miterlimit="10" d="M57.966,32.792c0,0,3.283,5.78,10.007,2.229"/>
</g>
</svg>
